SplineFontDB: 3.2
FontName: SteMitest01-test01
FullName: SteMitest01 test01
FamilyName: SteMitest01
Weight: Light
Copyright: Created by Krzysztof (Stenografow) Smirnow, with FontForge 2.0 (https://www.stenografia.pl)
UComments: "PL: Font, kt+APMA-rego zadaniem jest umo+AXwA-liwienie tworzenia tekst+APMA-w przy pomocy stenograficznego pisma SteMi: +AAoA-https://www.stenografia.pl/blog/2013-02-28_kurs-stemi-lekcja-01/+AAoA-EN:+AKAA Font whose task is to enable the creation of texts using the SteMi shorthand script (Polish basically, but)"
FontLog: "v. 2.0 began in 2023+AAoA-v. 1.0 postponed in 2013+AAoA-v. 1.0 began in 2012"
Version: 002.000
ItalicAngle: 0
UnderlinePosition: -298
UnderlineWidth: 148
Ascent: 2000
Descent: 1000
InvalidEm: 0
sfntRevision: 0x00020000
LayerCount: 3
Layer: 0 1 "Warstwa t+AUIA-a" 1
Layer: 1 1 "Plan pierwszy" 1
Layer: 2 0 "Warstwa t+AUIA-a 2" 1
HasVMetrics: 1
XUID: [1021 102 369710040 9694235]
BaseHoriz: 0
StyleMap: 0x0040
FSType: 0
OS2Version: 4
OS2_WeightWidthSlopeOnly: 0
OS2_UseTypoMetrics: 1
CreationTime: 1379607424
ModificationTime: 1717769928
PfmFamily: 17
TTFWeight: 300
TTFWidth: 3
LineGap: 270
VLineGap: 270
Panose: 2 0 5 3 0 0 0 0 0 0
OS2TypoAscent: 2000
OS2TypoAOffset: 0
OS2TypoDescent: -1000
OS2TypoDOffset: 0
OS2TypoLinegap: 270
OS2WinAscent: 3557
OS2WinAOffset: 0
OS2WinDescent: 1092
OS2WinDOffset: 0
HheadAscent: 3557
HheadAOffset: 0
HheadDescent: -1092
HheadDOffset: 0
OS2SubXSize: 1950
OS2SubYSize: 2100
OS2SubXOff: 0
OS2SubYOff: 420
OS2SupXSize: 1950
OS2SupYSize: 2100
OS2SupXOff: 0
OS2SupYOff: 1440
OS2StrikeYSize: 149
OS2StrikeYPos: 776
OS2CapHeight: 3432
OS2XHeight: 1520
OS2FamilyClass: 2560
OS2Vendor: 'KsMi'
OS2CodePages: 00000001.00000000
OS2UnicodeRanges: 00000007.02000000.04000000.00000000
MarkAttachClasses: 1
DEI: 91125
TtTable: prep
PUSHW_1
 511
SCANCTRL
PUSHB_1
 1
SCANTYPE
SVTCA[y-axis]
MPPEM
PUSHB_1
 8
LT
IF
PUSHB_2
 1
 1
INSTCTRL
EIF
PUSHB_2
 70
 6
CALL
IF
POP
PUSHB_1
 16
EIF
MPPEM
PUSHB_1
 20
GT
IF
POP
PUSHB_1
 128
EIF

StartChar: .notdef
Encoding: 1114112 -1 0
Width: 1200
Flags: HW
LayerCount: 3
Fore
SplineSet
150 150 m 1
 1050 150 l 1
 1050 1183 l 1
 150 1183 l 1
 150 150 l 1
0 0 m 1
 0 1333 l 1
 1200 1333 l 1
 1200 0 l 1
 0 0 l 1
EndSplineSet
Validated: 1
EndChar

StartChar: quoteright
Encoding: 8217 8217 4
Width: 350
VWidth: 2048
GlyphClass: 2
Flags: HW
LayerCount: 3
Fore
SplineSet
98 2756 m 1
 350 2756 l 1
 350 2550 l 1
 154 2167 l 1
 0 2167 l 1
 98 2550 l 1
 98 2756 l 1
EndSplineSet
Validated: 1
EndChar

StartChar: quotesinglbase
Encoding: 8218 8218 5
Width: 350
VWidth: 2048
GlyphClass: 2
Flags: HW
LayerCount: 3
Fore
SplineSet
98 -254 m 1
 350 -254 l 1
 350 -460 l 1
 154 -843 l 1
 0 -843 l 1
 98 -460 l 1
 98 -254 l 1
EndSplineSet
Validated: 1
EndChar

StartChar: quotedblright
Encoding: 8221 8221 6
Width: 809
VWidth: 2048
GlyphClass: 2
Flags: HW
LayerCount: 3
Fore
SplineSet
98 2726 m 1
 350 2726 l 1
 350 2520 l 1
 154 2137 l 1
 0 2137 l 1
 98 2520 l 1
 98 2726 l 1
557 2726 m 1
 809 2726 l 1
 809 2520 l 1
 612 2137 l 1
 459 2137 l 1
 557 2520 l 1
 557 2726 l 1
EndSplineSet
Validated: 1
EndChar

StartChar: quotedblbase
Encoding: 8222 8222 7
Width: 809
VWidth: 2048
GlyphClass: 2
Flags: HW
LayerCount: 3
Fore
SplineSet
98 -244 m 1
 350 -244 l 1
 350 -450 l 1
 154 -833 l 1
 0 -833 l 1
 98 -450 l 1
 98 -244 l 1
557 -244 m 1
 809 -244 l 1
 809 -450 l 1
 612 -833 l 1
 459 -833 l 1
 557 -450 l 1
 557 -244 l 1
EndSplineSet
Validated: 1
EndChar

StartChar: stemK
Encoding: 57352 57352 10
Width: 120
VWidth: 0
GlyphClass: 2
Flags: HW
LayerCount: 3
Fore
SplineSet
0 60 m 1025
80 60 m 25,0,-1
 69 71 l 25,1,-1
 60 80 l 25,2,-1
 60 40 l 25,3,-1
 40 60 l 25,4,-1
 80 60 l 1049,5,-1
80 1649 m 25,0,-1
 69 1660 l 25,1,-1
 60 1669 l 25,2,-1
 60 1629 l 25,3,-1
 40 1649 l 25,4,-1
 80 1649 l 1049,5,-1
0 60 m 2
 0 1648 l 2
 0 1648.26032112 0 1648.26032112 0.00109457119569 1648.51953131 c 0
 0.00109457119569 1648.75931509 0.00109457119569 1648.75931509 0 1649 c 0
 0 1653.42612761 0 1653.42612761 0.399808278454 1657.55239902 c 0
 4.89780529495 1709 4.89780529495 1709 60 1709 c 0
 115.102179341 1709 115.102179341 1709 119.600189079 1657.5524277 c 0
 120.000000135 1653.426143 120.000000135 1653.426143 120 1649 c 0
 120 1648.75931509 120 1648.75931509 119.998905429 1648.51953131 c 0
 119.998905429 1648.26032112 119.998905429 1648.26032112 120 1648 c 2
 120 60 l 2
 120 0 120 0 60 0 c 0
 0 0 0 0 0 60 c 2
EndSplineSet
Validated: 524291
EndChar

StartChar: gorP.brzh
Encoding: 57372 57372 11
Width: 459
VWidth: 3070
GlyphClass: 2
Flags: HW
LayerCount: 3
Back
SplineSet
232.21875 1326.22265625 m 4,0,1
 282.319335938 1326.203125 282.319335938 1326.203125 310.352539062 1359.96972656 c 4,2,3
 337.319335938 1392.203125 337.319335938 1392.203125 337.477539062 1439.48632812 c 4,3,4
 337.319335938 1470.203125 337.319335938 1470.203125 310.352539062 1515.48144531 c 4,5,6
 281.319335938 1563.203125 281.319335938 1563.203125 232.21875 1562.84765625 c 4,6,7
 185.319335938 1563.203125 185.319335938 1563.203125 153.319335938 1519.703125 c 132,-1,9
 121.319335938 1476.203125 121.319335938 1476.203125 121.319335938 1435.703125 c 132,-1,10
 121.319335938 1395.203125 121.319335938 1395.203125 152.819335938 1360.703125 c 132,-1,12
 184.319335938 1326.203125 184.319335938 1326.203125 232.21875 1326.22265625 c 4,0,1
229.791015625 1687.15429688 m 4,12,13
 310.319335938 1687.203125 310.319335938 1687.203125 378.770507812 1624 c 4,14,15
 412.319335938 1593.203125 412.319335938 1593.203125 434.233398438 1545.46191406 c 4,16,17
 455.319335938 1497.203125 455.319335938 1497.203125 455.690429688 1445.203125 c 4,17,18
 455.319335938 1395.203125 455.319335938 1395.203125 432.614257812 1344.61132812 c 4,19,20
 409.319335938 1293.203125 409.319335938 1293.203125 379.581054688 1269.40625 c 4,20,21
 340.319335938 1238.203125 340.319335938 1238.203125 307.11328125 1222.04101562 c 4,22,23
 274.319335938 1206.203125 274.319335938 1206.203125 229.791015625 1206.25195312 c 132,-1,23
 185.319335938 1206.203125 185.319335938 1206.203125 151.251953125 1222.4453125 c 4,24,25
 117.319335938 1238.203125 117.319335938 1238.203125 80 1269.40625 c 4,25,26
 47.3193359375 1297.203125 47.3193359375 1297.203125 26.966796875 1345.42089844 c 4,27,28
 6.3193359375 1394.203125 6.3193359375 1394.203125 6.3193359375 1445.203125 c 4,28,29
 6.3193359375 1557.203125 6.3193359375 1557.203125 80 1624 c 4,30,31
 150.319335938 1687.203125 150.319335938 1687.203125 229.791015625 1687.15429688 c 4,12,13
EndSplineSet
Fore
SplineSet
80 919 m 25,0,-1
 69 930 l 25,1,-1
 60 939 l 25,2,-1
 60 899 l 25,3,-1
 40 919 l 25,4,-1
 80 919 l 1049,5,-1
80 839 m 25,0,-1
 69 850 l 25,1,-1
 60 859 l 25,2,-1
 60 819 l 25,3,-1
 40 839 l 25,4,-1
 80 839 l 1049,5,-1
120 1003 m 1
 332 1189 332 1189 332 1437 c 0
 332 1643 332 1643 234 1643 c 0
 120 1643 120 1643 120 1437 c 2
 120 1003 l 1
0 919 m 1
 0 1437 l 2
 0 1762 0 1762 234.5 1762 c 0
 459.004415011 1762 459.004415011 1762 459.004415011 1440.85461164 c 0,0,0
 459.004415011 1177.9330956 459.004415011 1177.9330956 120 863 c 1
 120 839 l 1
 120 836 l 2
 120 799.555929584 120 799.555929584 94.5885788649 786.829185755 c 0
 80.9388259049 778.999999636 80.9388259049 778.999999636 60 779 c 0
 39.0611823825 779 39.0611823825 779 25.4114318555 786.829180001 c 0
 2.91610326997e-08 799.555921843 2.91610326997e-08 799.555921843 0 836 c 2
 0 839 l 1
 0 919 l 1
EndSplineSet
Validated: 524291
EndChar

StartChar: stemI.krt
Encoding: 57357 57357 12
Width: 121
VWidth: 0
GlyphClass: 2
Flags: HW
LayerCount: 3
Fore
SplineSet
1 60 m 1025
80 60 m 25,0,-1
 69 71 l 25,1,-1
 60 80 l 25,2,-1
 60 40 l 25,3,-1
 40 60 l 25,4,-1
 80 60 l 1049,5,-1
80 282 m 25,0,-1
 69 293 l 25,1,-1
 60 302 l 25,2,-1
 60 262 l 25,3,-1
 40 282 l 25,4,-1
 80 282 l 1049,5,-1
121 281 m 2
 121 60 l 2
 121 0 121 0 61 0 c 0
 60.7451171875 0 60.7451171875 0 60.4921875 0.0009765625 c 0
 60.2470703125 0.0009765625 60.2470703125 0.0009765625 60 0 c 0
 32 0 32 0 17.0341796875 14 c 0
 17.0029296875 14.029296875 17.0029296875 14.029296875 16.9716796875 14.05859375 c 0
 16.48828125 14.51171875 16.48828125 14.51171875 16.0205078125 14.9794921875 c 0
 -0 30.90625 -0 30.90625 0 60 c 0
 0 67 0 67 1 73.25 c 2
 1 268.284179688 l 2
 0 274.731445312 0 274.731445312 0 282 c 0
 0 302.033203125 0 302.033203125 8.1904296875 315.923828125 c 0
 19.4853515625 337.611328125 19.4853515625 337.611328125 48.5234375 341.26171875 c 0
 53.984375 342 53.984375 342 60 342 c 0
 60.23828125 342 60.23828125 342 60.4765625 341.999023438 c 0
 60.7373046875 341.999023438 60.7373046875 341.999023438 61 342 c 0
 121 342 121 342 121 281 c 2
EndSplineSet
Validated: 524291
EndChar

StartChar: stemKRT
Encoding: 57358 57358 13
Width: 121
VWidth: 0
GlyphClass: 2
Flags: HW
LayerCount: 3
Fore
SplineSet
1 60 m 1029,40,-1
60 200 m 29,16,-1
 60 160 l 29,17,-1
 40 180 l 29,18,-1
 80 180 l 1053,19,-1
60 80 m 29,0,-1
 60 40 l 29,1,-1
 40 60 l 29,2,-1
 80 60 l 1053,3,-1
121 179 m 2
 121 60 l 2
 121 0 121 0 61 0 c 0
 60.7490234375 0 60.7490234375 0 60.4990234375 0.0009765625 c 0
 60.25 0.0009765625 60.25 0.0009765625 60 0 c 0
 0 0 0 0 0 60 c 0
 0 67.74609375 0 67.74609375 1 74.4921875 c 2
 1 165.5078125 l 2
 -0 172.25390625 -0 172.25390625 0 180 c 0
 0 240 0 240 60 240 c 0
 60.251953125 240 60.251953125 240 60.501953125 239.999023438 c 0
 60.75 239.999023438 60.75 239.999023438 61 240 c 0
 121 240 121 240 121 179 c 2
EndSplineSet
Validated: 524291
EndChar

StartChar: gorBbrzh
Encoding: 57376 57376 14
Width: 465
VWidth: 3070
GlyphClass: 2
Flags: HW
LayerCount: 3
Fore
SplineSet
80 60 m 25,0,-1
 69 71 l 25,1,-1
 60 80 l 25,2,-1
 60 40 l 25,3,-1
 40 60 l 25,4,-1
 80 60 l 1049,5,-1
80 139 m 25,0,-1
 69 150 l 25,1,-1
 60 159 l 25,2,-1
 60 119 l 25,3,-1
 40 139 l 25,4,-1
 80 139 l 1049,5,-1
120 223 m 1
 205 300 205 300 267 392 c 0
 334.5437376 494.15990312 334.5437376 494.15990312 334.5437376 553.104066061 c 0,0,0
 334.5437376 633.501030928 334.5437376 633.501030928 208.887866006 633.501030928 c 0,0,0
 208.437902706 633.501030928 208.437902706 633.501030928 207.986328125 633.5 c 0
 120 633 120 633 120 427 c 2
 120 223 l 1
0 60 m 1
 0 139 l 1
 0 423 l 2
 0 754.003003003 0 754.003003003 206.7526265 754.003003003 c 0,0,0
 207.375375375 754.003003003 207.375375375 754.003003003 208 754 c 0
 464.805555556 753.402777778 464.805555556 753.402777778 464.805555556 603.002314815 c 0,0,0
 464.805555556 501.569444444 464.805555556 501.569444444 348 332 c 0
 251 194 251 194 120 83 c 1
 120 67.3833948613 120 67.3833948613 119.9968292 60.7859596951 c 0
 119.999999998 60.3941688969 119.999999998 60.3941688969 120 60 c 0
 120 59.5315082471 120 59.5315082471 119.995845829 59.0664306979 c 0
 119.993957549 56.3125013871 119.993957549 56.3125013871 119.991210938 56 c 0
 120 0 120 0 60 0 c 0
 0 0 0 0 0 56 c 2
 0 60 l 1
EndSplineSet
Validated: 524291
EndChar

StartChar: stemK.krt
Encoding: 57353 57353 15
Width: 121
VWidth: 0
GlyphClass: 2
Flags: HW
LayerCount: 3
Fore
SplineSet
1 60 m 1025
81 60 m 25,0,-1
 70 71 l 25,1,-1
 61 80 l 25,2,-1
 61 40 l 25,3,-1
 41 60 l 25,4,-1
 81 60 l 1049,5,-1
80 1249 m 25,0,-1
 69 1260 l 25,1,-1
 60 1269 l 25,2,-1
 60 1229 l 25,3,-1
 40 1249 l 25,4,-1
 80 1249 l 1049,5,-1
1 60 m 2
 1 1235.28417969 l 2
 0 1241.73144531 0 1241.73144531 0 1249 c 0
 0 1269.03320312 0 1269.03320312 8.1904296875 1282.92382812 c 0
 19.4853515625 1304.61132812 19.4853515625 1304.61132812 48.5234375 1308.26171875 c 0
 53.984375 1309 53.984375 1309 60 1309 c 0
 60.23828125 1309 60.23828125 1309 60.4765625 1308.99902344 c 0
 60.7373046875 1308.99902344 60.7373046875 1308.99902344 61 1309 c 0
 121 1309 121 1309 121 1248 c 2
 121 60 l 2
 121 0 121 0 61 0 c 0
 1 0 1 0 1 60 c 2
EndSplineSet
Validated: 524291
EndChar

StartChar: stemG
Encoding: 57354 57354 16
Width: 120
VWidth: 0
GlyphClass: 2
Flags: HW
LayerCount: 3
Fore
SplineSet
0 60 m 1029
80 60 m 25,0,-1
 69 71 l 25,1,-1
 60 80 l 25,2,-1
 60 40 l 25,3,-1
 40 60 l 25,4,-1
 80 60 l 1049,5,-1
80 900 m 25,0,-1
 69 911 l 25,1,-1
 60 920 l 25,2,-1
 60 880 l 25,3,-1
 40 900 l 25,4,-1
 80 900 l 1049,5,-1
0 60 m 2
 0 899 l 2
 0 899.260321118 0 899.260321118 0.00109457119532 899.519531309 c 0
 0.00109457119532 899.75931509 0.00109457119532 899.75931509 0 900 c 0
 0 904.426127613 0 904.426127613 0.399808278454 908.552399017 c 0
 4.89780529495 960 4.89780529495 960 60 960 c 0
 115.102179341 960 115.102179341 960 119.600189079 908.552427695 c 0
 120.000000135 904.426142999 120.000000135 904.426142999 120 900 c 0
 120 899.759315089 120 899.759315089 119.998905429 899.519531308 c 0
 119.998905429 899.260321118 119.998905429 899.260321118 120 899 c 2
 120 60 l 2
 120 0 120 0 60 0 c 0
 0 0 0 0 0 60 c 2
EndSplineSet
Validated: 524291
EndChar

StartChar: gorST.brzh
Encoding: 57374 57374 17
Width: 554
VWidth: 3070
GlyphClass: 2
Flags: HW
LayerCount: 3
Back
SplineSet
330.900390625 1744.92382812 m 4,0,1
 429.266601562 1745.37011719 429.266601562 1745.37011719 520.987304688 1658.73925781 c 4,2,3
 623.266601562 1562.37011719 623.266601562 1562.37011719 623.727539062 1404.37011719 c 4,4,5
 624.266601562 1248.37011719 624.266601562 1248.37011719 520.987304688 1156 c 4,6,7
 426.266601562 1070.37011719 426.266601562 1070.37011719 331.900390625 1069.81640625 c 4,8,9
 240.266601562 1069.37011719 240.266601562 1069.37011719 141.61328125 1156 c 4,10,11
 41.2666015625 1244.37011719 41.2666015625 1244.37011719 41.2666015625 1402.37011719 c 4,12,13
 41.2666015625 1568.37011719 41.2666015625 1568.37011719 141.61328125 1658.73925781 c 4,14,15
 237.266601562 1744.37011719 237.266601562 1744.37011719 330.900390625 1744.92382812 c 4,0,1
332.890625 1195.87011719 m 4,16,17
 408.266601562 1196.37011719 408.266601562 1196.37011719 456.916015625 1271.15917969 c 4,18,19
 501.266601562 1339.37011719 501.266601562 1339.37011719 499.69140625 1404.70214844 c 4,20,21
 497.266601562 1491.37011719 497.266601562 1491.37011719 464.266601562 1543.37011719 c 4,22,23
 417.266601562 1619.37011719 417.266601562 1619.37011719 331.890625 1619.65722656 c 4,24,25
 250.266601562 1619.37011719 250.266601562 1619.37011719 206.266601562 1543.37011719 c 4,26,27
 162.266601562 1466.37011719 162.266601562 1466.37011719 163.090820312 1402.15820312 c 4,28,29
 163.266601562 1333.37011719 163.266601562 1333.37011719 205.416015625 1270.15917969 c 4,30,31
 255.266601562 1195.37011719 255.266601562 1195.37011719 332.890625 1195.87011719 c 4,16,17
EndSplineSet
Refer: 46 57346 S 1 0 0 1 435.267 1157.37 2
Refer: 46 57346 S 1 0 0 1 41.2669 1341.37 2
Refer: 46 57346 S 1 0 0 1 292.267 1072.37 2
Refer: 46 57346 S 1 0 0 1 251.901 1071.82 2
Refer: 46 57346 S 1 0 0 1 503.267 1341.37 2
Refer: 46 57346 S 1 0 0 1 68.2669 1473.37 2
Refer: 46 57346 S 1 0 0 1 471.267 1210.37 2
Refer: 46 57346 S 1 0 0 1 106.267 1537.37 2
Refer: 46 57346 S 1 0 0 1 291.267 1622.37 2
Refer: 46 57346 S 1 0 0 1 256.267 1622.37 2
Fore
SplineSet
111.365234375 52.3193359375 m 25,0,-1
 107.338867188 67.345703125 l 25,1,-1
 104.044921875 79.6396484375 l 25,2,-1
 84.044921875 44.9990234375 l 25,3,-1
 76.724609375 72.3193359375 l 25,4,-1
 111.365234375 52.3193359375 l 1049,5,-1
177.793945312 -175.741210938 m 25,0,-1
 175.091796875 -160.420898438 l 25,1,-1
 172.881835938 -147.88671875 l 25,2,-1
 149.939453125 -180.65234375 l 25,3,-1
 145.02734375 -152.797851562 l 25,4,-1
 177.793945312 -175.741210938 l 1049,5,-1
140.061523438 124.665039062 m 1
 325.3125 214.587890625 325.3125 214.587890625 389.14453125 396.713867188 c 0
 424.072265625 496.369140625 424.072265625 496.369140625 424.072265625 554.370117188 c 0,0,0
 424.072265625 602.37109375 424.072265625 602.37109375 400.150390625 621.844726562 c 0
 351.59765625 661.174804688 351.59765625 661.174804688 307.626953125 661.174804688 c 0,0,0
 237.685546875 661.174804688 237.685546875 661.174804688 179.338867188 561.661132812 c 0
 119.448242188 459.514648438 119.448242188 459.514648438 119.448242188 312.541992188 c 0,0,0
 119.448242188 226.317382812 119.448242188 226.317382812 140.061523438 124.665039062 c 1
220.479492188 -140.9296875 m 1
 224.022460938 -153.12109375 224.022460938 -153.12109375 224.022460938 -164.048828125 c 0,0,0
 224.022460938 -201.955078125 224.022460938 -201.955078125 181.391601562 -224.650390625 c 1
 137.280273438 -235.875976562 137.280273438 -235.875976562 110.627929688 -198.747070312 c 0
 105.084960938 -192.096679688 105.084960938 -192.096679688 102.155273438 -184.887695312 c 0
 100.786132812 -182.274414062 100.786132812 -182.274414062 99.474609375 -179.499023438 c 0
 -0 71.4111328125 0 71.4111328125 0 282.729492188 c 0,0,0
 0 469.0078125 0 469.0078125 77.2958984375 624.521484375 c 1
 175.204101562 776.4296875 175.204101562 776.4296875 300.58203125 776.4296875 c 0,0,0
 374.994140625 776.4296875 374.994140625 776.4296875 459.083007812 722.919921875 c 0
 554.087890625 662.418945312 554.087890625 662.418945312 554.087890625 546.056640625 c 0,0,0
 554.087890625 457.411132812 554.087890625 457.411132812 498.951171875 336.345703125 c 0
 394.3125 106.587890625 394.3125 106.587890625 160.987304688 0 c 1
 204.3125 -106.412109375 204.3125 -106.412109375 220.479492188 -140.9296875 c 1
EndSplineSet
Validated: 524291
EndChar

StartChar: luD1
Encoding: 57445 57445 18
Width: 360
VWidth: 0
GlyphClass: 2
Flags: HW
LayerCount: 3
Fore
SplineSet
80 526 m 25,0,-1
 69 537 l 25,1,-1
 60 546 l 25,2,-1
 60 506 l 25,3,-1
 40 526 l 25,4,-1
 80 526 l 1049,5,-1
320 60 m 25,0,-1
 309 71 l 25,1,-1
 300 80 l 25,2,-1
 300 40 l 25,3,-1
 280 60 l 25,4,-1
 320 60 l 1049,5,-1
28.2011714138 472.348058478 m 1
 21.9224034399 475.427238126 21.9224034399 475.427238126 17.0341796875 480 c 0
 0 496 0 496 0 526 c 0
 0 554 0 554 16 570 c 0
 32 586 32 586 60 586 c 0
 77.4813673799 586 77.4813673799 586 90.2852112067 579.763301929 c 1
 91 581 l 1
 360 403 360 403 360 60 c 0
 360 30 360 30 342.965820312 14 c 0
 328 0 328 0 300 0 c 0
 272 0 272 0 257.034179688 14 c 0
 240 30 240 30 240 60 c 0
 240 335 240 335 28 472 c 1
 28.2011714138 472.348058478 l 1
EndSplineSet
Validated: 524291
EndChar

StartChar: luD2
Encoding: 57446 57446 19
Width: 360
VWidth: 0
GlyphClass: 2
Flags: HW
LayerCount: 3
Fore
SplineSet
40 526 m 25,0,-1
 51 515 l 25,1,-1
 60 506 l 25,2,-1
 60 546 l 25,3,-1
 80 526 l 25,4,-1
 40 526 l 1049,5,-1
280 60 m 25,0,-1
 291 49 l 25,1,-1
 300 40 l 25,2,-1
 300 80 l 25,3,-1
 320 60 l 25,4,-1
 280 60 l 1049,5,-1
120 526 m 0
 120 251 120 251 332 114 c 1
 331.798828586 113.651941522 l 1
 338.07759656 110.572761874 338.07759656 110.572761874 342.965820312 106 c 0
 360 90 360 90 360 60 c 0
 360 32 360 32 344 16 c 0
 328 0 328 0 300 0 c 0
 282.51863262 0 282.51863262 0 269.714788793 6.23669807087 c 1
 269 5 l 1
 0 183 0 183 0 526 c 0
 0 556 0 556 17.0341796875 572 c 0
 32 586 32 586 60 586 c 0
 88 586 88 586 102.965820312 572 c 0
 120 556 120 556 120 526 c 0
EndSplineSet
Validated: 524291
EndChar

StartChar: gorPS.brzh
Encoding: 57375 57375 20
Width: 584
VWidth: 3070
GlyphClass: 2
Flags: HW
LayerCount: 3
Fore
SplineSet
80 140 m 25,0,-1
 69 151 l 25,1,-1
 60 160 l 25,2,-1
 60 120 l 25,3,-1
 40 140 l 25,4,-1
 80 140 l 1049,5,-1
80 60 m 25,0,-1
 69 71 l 25,1,-1
 60 80 l 25,2,-1
 60 40 l 25,3,-1
 40 60 l 25,4,-1
 80 60 l 1049,5,-1
120 225 m 1
 456.005952381 408.093063872 456.005952381 408.093063872 456.005952381 808.160218254 c 0,0,0
 456.005952381 988 456.005952381 988 290 988 c 0
 123 988 123 988 123 806 c 0
 122 484 122 484 120 225 c 1
0 140 m 1
 0 806 l 2
 0 1121 0 1121 291.5 1121 c 0
 584.002145923 1121 584.002145923 1121 584.002145923 804.889604708 c 0,0,0
 584.002145923 314.5 584.002145923 314.5 120 82 c 1
 120 60 l 1
 120 55 l 2
 120 0 120 0 60 0 c 0
 0 0 0 0 0 55 c 2
 0 60 l 1
 0 140 l 1
EndSplineSet
Validated: 524291
Layer: 2
SplineSet
290.287109375 1900.18457031 m 4
 355.864257812 1900.48242188 419.2265625 1871.75390625 480.374023438 1814 c 4
 548.560546875 1749.75390625 582.806640625 1664.96386719 583.114257812 1559.63085938 c 4
 583.473632812 1455.63085938 549.2265625 1372.84082031 480.374023438 1311.26074219 c 4
 417.2265625 1254.17382812 354.198242188 1225.44628906 291.287109375 1225.07714844 c 4
 230.198242188 1224.77929688 166.768554688 1253.5078125 101 1311.26074219 c 4
 34.1025390625 1370.17382812 0.6533203125 1452.29785156 0.6533203125 1557.63085938 c 4
 0.6533203125 1668.29785156 34.1025390625 1753.75390625 101 1814 c 4
 164.768554688 1871.08691406 227.864257812 1899.81542969 290.287109375 1900.18457031 c 4
292.27734375 1361.13085938 m 4
 346.528320312 1361.46386719 387.870117188 1383.22753906 416.302734375 1426.41992188 c 4
 445.870117188 1471.89355469 460.127929688 1516.40820312 459.078125 1559.96289062 c 4
 458.127929688 1600.40820312 444.653320312 1646.63085938 418.653320312 1698.63085938 c 4
 395.986328125 1744.63085938 353.528320312 1767.7265625 291.27734375 1767.91796875 c 4
 233.528320312 1767.7265625 191.653320312 1744.63085938 165.653320312 1698.63085938 c 4
 136.3203125 1647.29785156 121.927734375 1600.2265625 122.477539062 1557.41894531 c 4
 122.594726562 1514.89355469 136.703125 1470.89355469 164.802734375 1425.41992188 c 4
 191.370117188 1382.22753906 233.861328125 1360.79785156 292.27734375 1361.13085938 c 4
EndSplineSet
EndChar

StartChar: luT1
Encoding: 57450 57450 21
Width: 426
VWidth: 0
GlyphClass: 2
Flags: HW
LayerCount: 3
Fore
SplineSet
385.975585938 60 m 25,0,-1
 374.975585938 71 l 25,1,-1
 365.975585938 80 l 25,2,-1
 365.975585938 40 l 25,3,-1
 345.975585938 60 l 25,4,-1
 385.975585938 60 l 1049,5,-1
80.2958984375 826.999023438 m 25,0,-1
 76.26953125 842.025390625 l 25,1,-1
 72.9755859375 854.3203125 l 25,2,-1
 52.9755859375 819.678710938 l 25,3,-1
 45.6552734375 846.999023438 l 25,4,-1
 80.2958984375 826.999023438 l 1049,5,-1
305.975585938 60 m 1
 305.975585938 60 l 1
 305.975585938 80 l 2
 306.978515625 608.616210938 306.978515625 608.616210938 45.099609375 778.038085938 c 0
 41.7626953125 780.196289062 41.7626953125 780.196289062 38.462890625 782.081054688 c 0
 35.7470703125 783.4375 35.7470703125 783.4375 32.9755859375 785.038085938 c 2
 32.9755859375 785.038085938 l 2
 32.9716796875 785.040039062 32.9716796875 785.040039062 32.9677734375 785.041992188 c 0
 0 804.041015625 0 804.041015625 0 831.901367188 c 0,0,0
 0 847.975585938 0 847.975585938 10.9755859375 867 c 0
 16.76953125 877.04296875 16.76953125 877.04296875 23.8056640625 883.783203125 c 0
 33.9697265625 893.647460938 33.9697265625 893.647460938 46.8701171875 897.104492188 c 0
 68.7265625 902.9609375 68.7265625 902.9609375 92.9755859375 888.9609375 c 0
 95.4296875 887.543945312 95.4296875 887.543945312 97.6953125 886.046875 c 0
 100.918945312 884.375976562 100.918945312 884.375976562 104.234375 882.461914062 c 0
 425.975585938 690 425.975585938 690 425.975585938 80 c 2
 425.975585938 60 l 1
 425.975585938 60 l 2
 425.975585938 30 425.975585938 30 408.94140625 14 c 0
 393.975585938 0 393.975585938 0 365.975585938 0 c 0
 337.975585938 0 337.975585938 0 323.009765625 14 c 0
 305.975585938 30 305.975585938 30 305.975585938 60 c 1
EndSplineSet
Validated: 524323
EndChar

StartChar: luT2
Encoding: 57451 57451 22
Width: 426
VWidth: 0
GlyphClass: 2
Flags: HW
LayerCount: 3
Fore
SplineSet
345.6796875 73.1982421875 m 25,0,-1
 349.706054688 58.171875 l 25,1,-1
 353 45.876953125 l 25,2,-1
 373 80.5185546875 l 25,3,-1
 380.3203125 53.1982421875 l 25,4,-1
 345.6796875 73.1982421875 l 1049,5,-1
40 840.197265625 m 25,0,-1
 51 829.197265625 l 25,1,-1
 60 820.197265625 l 25,2,-1
 60 860.197265625 l 25,3,-1
 80 840.197265625 l 25,4,-1
 40 840.197265625 l 1049,5,-1
387.512695312 118.116210938 m 0
 390.228515625 116.759765625 390.228515625 116.759765625 393 115.159179688 c 0
 432.890625 92.1748046875 432.890625 92.1748046875 423.9140625 55.2001953125 c 0
 421.51171875 44.54296875 421.51171875 44.54296875 414.961914062 33.1982421875 c 0
 414.740234375 32.814453125 414.740234375 32.814453125 414.517578125 32.435546875 c 0
 414.243164062 31.951171875 414.243164062 31.951171875 413.961914062 31.46484375 c 0
 395.833007812 -0 395.833007812 -0 368.677734375 -0 c 0,0,0
 352.450195312 -0 352.450195312 -0 333 11.2353515625 c 2
 321.741210938 17.7353515625 l 1
 0 210.197265625 0 210.197265625 0 820.197265625 c 0
 0 830.197265625 0 830.197265625 0 840.197265625 c 0
 0 870.197265625 0 870.197265625 17.0341796875 886.197265625 c 0
 32 900.197265625 32 900.197265625 60 900.197265625 c 0
 88 900.197265625 88 900.197265625 102.965820312 886.197265625 c 0
 120 870.197265625 120 870.197265625 120 840.197265625 c 2
 119.99609375 816.168945312 l 2,0,0
 119.99609375 290.934570312 119.99609375 290.934570312 380.875976562 122.159179688 c 0
 384.212890625 120.000976562 384.212890625 120.000976562 387.512695312 118.116210938 c 0
EndSplineSet
Validated: 524291
EndChar

StartChar: luKL
Encoding: 57455 57455 23
Width: 463
VWidth: 0
GlyphClass: 2
Flags: HW
LayerCount: 3
Fore
SplineSet
267.015625 221 m 25,0,-1
 256.015625 232 l 25,1,-1
 247.015625 241 l 25,2,-1
 247.015625 201 l 25,3,-1
 227.015625 221 l 25,4,-1
 267.015625 221 l 1049,5,-1
267.015625 60 m 25,0,-1
 256.015625 71 l 25,1,-1
 247.015625 80 l 25,2,-1
 247.015625 40 l 25,3,-1
 227.015625 60 l 25,4,-1
 267.015625 60 l 1049,5,-1
203.015625 376 m 1
 298.015625 374 l 1
 307.015625 293 307.015625 293 307.015625 283 c 1
 413 169 413 169 438.5 125 c 0
 463.168642561 82.4344991108 463.168642561 82.4344991108 463.168642561 -6.3390103687 c 0,0,0
 463.168642561 -9.33076467101 463.168642561 -9.33076467101 463.140625 -12.375 c 0
 463 -37 463 -37 427.015625 -86.5 c 0
 391 -136 391 -136 306.640625 -136.375 c 0
 306.020102266 -136.378215196 306.020102266 -136.378215196 305.402761751 -136.378215196 c 0,0,0
 185.640625 -136.378215196 185.640625 -136.378215196 185.640625 -15.375 c 2
 185.640625 98.375 l 1
 178 90 178 90 163.274414062 88.7626953125 c 0
 153.361235646 88.0908512423 153.361235646 88.0908512423 144.159932503 88.0908512423 c 0,0,0
 88.13329766 88.0908512423 88.13329766 88.0908512423 58.5 113 c 0
 0 162.173913043 0 162.173913043 0 232.586956522 c 0
 0 303 0 303 47 343.5 c 0
 87.0629765897 378.022352168 87.0629765897 378.022352168 143.120205131 378.022352168 c 0,0,0
 152.82668078 378.022352168 152.82668078 378.022352168 163.012695312 376.987304688 c 0
 173 376 173 376 187.015625 367 c 1
 203.015625 376 l 1
307.013046592 59.2639320473 m 2
 307.00278072 20.5 l 2
 306.989936441 -27.9999999999 306.989936441 -27.9999999999 325.015625 -28 c 0
 345 -28 345 -28 352.5 -1 c 0
 355.588965629 10.1202762649 355.588965629 10.1202762649 355.588965629 21.7900398764 c 0,0,0
 355.588965629 68.0733432018 355.588965629 68.0733432018 307 123 c 1
 307.015625 69 l 2
 307.015625 64.8282183101 307.015625 64.8282183101 307.01341537 60.6564366202 c 0
 307.015625 60.3290469214 307.015625 60.3290469214 307.015625 60 c 0
 307.015625 59.6309064567 307.015625 59.6309064567 307.013046592 59.2639320473 c 2
EndSplineSet
Validated: 524291
EndChar

StartChar: luSJ
Encoding: 57456 57456 24
Width: 458
VWidth: 0
GlyphClass: 2
Flags: HW
LayerCount: 3
Fore
SplineSet
242.422851562 54.80859375 m 25,0,-1
 235.848632812 68.9072265625 l 25,1,-1
 230.469726562 80.4423828125 l 25,2,-1
 216.7890625 42.8544921875 l 25,3,-1
 204.834960938 68.4892578125 l 25,4,-1
 242.422851562 54.80859375 l 1049,5,-1
289.442382812 -134.702148438 m 25,0,-1
 282.8671875 -120.603515625 l 25,1,-1
 277.48828125 -109.067382812 l 25,2,-1
 263.807617188 -146.655273438 l 25,3,-1
 251.854492188 -121.021484375 l 25,4,-1
 289.442382812 -134.702148438 l 1049,5,-1
244.150390625 118.030273438 m 0
 270.461914062 108.454101562 270.461914062 108.454101562 280.024414062 87.9462890625 c 0
 289.586914062 67.439453125 289.586914062 67.439453125 280.010742188 41.1279296875 c 0
 277.50390625 34.240234375 277.50390625 34.240234375 274.327148438 28.486328125 c 0
 247.056640625 -43.3388671875 247.056640625 -43.3388671875 174.904296875 -43.3388671875 c 0,0,0
 140.7578125 -43.3388671875 140.7578125 -43.3388671875 96.5595703125 -27.251953125 c 0
 0 7.892578125 0 7.892578125 0 99.736328125 c 0,0,0
 0 140.174804688 0 140.174804688 18.71875 191.60546875 c 0
 61.4228515625 308.931640625 61.4228515625 308.931640625 173.21484375 308.931640625 c 0,0,0
 221.724609375 308.931640625 221.724609375 308.931640625 283.244140625 286.83984375 c 0
 457.797851562 223.307617188 457.797851562 223.307617188 457.797851562 85.3623046875 c 0,0,0
 457.797851562 38.396484375 457.797851562 38.396484375 437.564453125 -17.1943359375 c 0
 388.8984375 -150.905273438 388.8984375 -150.905273438 298.754882812 -184.134765625 c 0
 297.060546875 -185.0234375 297.060546875 -185.0234375 295.290039062 -185.782226562 c 0
 276.438476562 -193.819335938 276.438476562 -193.819335938 250.126953125 -184.243164062 c 0
 223.815429688 -174.666992188 223.815429688 -174.666992188 214.540039062 -156.392578125 c 0
 204.005859375 -135.53125 204.005859375 -135.53125 214.266601562 -107.340820312 c 0
 223.842773438 -81.029296875 223.842773438 -81.029296875 244.350585938 -71.4658203125 c 0
 251.064453125 -68.3349609375 251.064453125 -68.3349609375 258.401367188 -67.255859375 c 1
 258.107421875 -65.83203125 l 1
 302.877929688 -59.779296875 302.877929688 -59.779296875 332.661132812 22.0517578125 c 0
 342.42578125 48.8798828125 342.42578125 48.8798828125 342.42578125 71.96875 c 0,0,0
 342.42578125 145.046875 342.42578125 145.046875 244.595703125 180.654296875 c 0
 212.057617188 192.126953125 212.057617188 192.126953125 188.138671875 192.126953125 c 0,0,0
 143.41796875 192.126953125 143.41796875 192.126953125 128.822265625 152.025390625 c 0
 106.419921875 90.4755859375 106.419921875 90.4755859375 134.140625 80.3857421875 c 0
 161.861328125 70.2958984375 161.861328125 70.2958984375 166.307617188 82.51171875 c 1
 167.247070312 82.169921875 l 1
 167.247070312 82.169921875 l 2
 176.82421875 108.481445312 176.82421875 108.481445312 197.331054688 118.043945312 c 0
 217.838867188 127.606445312 217.838867188 127.606445312 244.150390625 118.030273438 c 0
EndSplineSet
Validated: 524291
EndChar

StartChar: dolCZbrzh
Encoding: 57360 57360 25
Width: 465
VWidth: 3070
GlyphClass: 2
Flags: HW
LayerCount: 3
Fore
SplineSet
384.805664062 761 m 25,0,-1
 395.805664062 750 l 25,1,-1
 404.805664062 741 l 25,2,-1
 404.805664062 781 l 25,3,-1
 424.805664062 761 l 25,4,-1
 384.805664062 761 l 1049,5,-1
384.805664062 840 m 25,0,-1
 395.805664062 829 l 25,1,-1
 404.805664062 820 l 25,2,-1
 404.805664062 860 l 25,3,-1
 424.805664062 840 l 25,4,-1
 384.805664062 840 l 1049,5,-1
344.805664062 677 m 1
 259.805664062 600 259.805664062 600 197.805664062 508 c 0
 130.26171875 405.83984375 130.26171875 405.83984375 130.26171875 346.895507812 c 0,0,0
 130.26171875 266.499023438 130.26171875 266.499023438 255.91796875 266.499023438 c 0,0,0
 256.3671875 266.499023438 256.3671875 266.499023438 256.819335938 266.5 c 0
 344.805664062 267 344.805664062 267 344.805664062 473 c 0
 344.805664062 574 344.805664062 574 344.805664062 677 c 1
464.805664062 840 m 1
 464.805664062 761 l 1
 464.805664062 477 l 2
 464.805664062 145.997070312 464.805664062 145.997070312 258.052734375 145.997070312 c 0,0,0
 257.430664062 145.997070312 257.430664062 145.997070312 256.805664062 146 c 0
 0 146.59765625 0 146.59765625 0 296.998046875 c 0,0,0
 0 398.430664062 0 398.430664062 116.805664062 568 c 0
 213.805664062 706 213.805664062 706 344.805664062 817 c 1
 344.805664062 832.616210938 344.805664062 832.616210938 344.80859375 839.213867188 c 0
 344.805664062 839.60546875 344.805664062 839.60546875 344.805664062 840 c 0
 344.805664062 840.46875 344.805664062 840.46875 344.809570312 840.93359375 c 0
 344.811523438 843.6875 344.811523438 843.6875 344.814453125 844 c 0
 344.805664062 900 344.805664062 900 404.805664062 900 c 0
 464.805664062 900 464.805664062 900 464.805664062 844 c 2
 464.805664062 840 l 1
EndSplineSet
Validated: 524291
EndChar

StartChar: dolSZ.brzh
Encoding: 57361 57361 26
Width: 459
VWidth: 3070
GlyphClass: 2
Flags: HW
LayerCount: 3
Fore
SplineSet
379.004882812 61 m 25,0,-1
 390.004882812 50 l 25,1,-1
 399.004882812 41 l 25,2,-1
 399.004882812 81 l 25,3,-1
 419.004882812 61 l 25,4,-1
 379.004882812 61 l 1049,5,-1
379.004882812 -19 m 25,0,-1
 390.004882812 -30 l 25,1,-1
 399.004882812 -39 l 25,2,-1
 399.004882812 1 l 25,3,-1
 419.004882812 -19 l 25,4,-1
 379.004882812 -19 l 1049,5,-1
339.004882812 -103 m 1
 127.004882812 -289 127.004882812 -289 127.004882812 -537 c 0
 127.004882812 -743 127.004882812 -743 225.004882812 -743 c 0
 339.004882812 -743 339.004882812 -743 339.004882812 -537 c 0
 339.004882812 -463 339.004882812 -463 339.004882812 -103 c 1
339.004882812 61 m 1
 339.004882812 64 l 2
 339.004882812 100.444335938 339.004882812 100.444335938 364.416015625 113.170898438 c 0
 378.065429688 121 378.065429688 121 399.004882812 121 c 0
 419.943359375 121 419.943359375 121 433.592773438 113.170898438 c 0
 459.004882812 100.444335938 459.004882812 100.444335938 459.004882812 64 c 2
 459.004882812 61 l 1
 459.004882812 -19 l 1
 459.004882812 -537 l 2
 459.004882812 -862 459.004882812 -862 224.504882812 -862 c 0
 0 -862 0 -862 0 -540.854492188 c 0,0,0
 0 -277.932617188 0 -277.932617188 339.004882812 37 c 1
 339.004882812 61 l 1
EndSplineSet
Validated: 524291
EndChar

StartChar: dolDRZ.brzh
Encoding: 57362 57362 27
Width: 400
VWidth: 3070
GlyphClass: 2
Flags: HW
LayerCount: 3
Fore
SplineSet
360.443359375 60 m 25,0,-1
 349.443359375 71 l 25,1,-1
 340.443359375 80 l 25,2,-1
 340.443359375 40 l 25,3,-1
 320.443359375 60 l 25,4,-1
 360.443359375 60 l 1049,5,-1
360.443359375 -8 m 25,0,-1
 349.443359375 3 l 25,1,-1
 340.443359375 12 l 25,2,-1
 340.443359375 -28 l 25,3,-1
 320.443359375 -8 l 25,4,-1
 360.443359375 -8 l 1049,5,-1
107.331054688 -225.133789062 m 0
 107.331054688 -294.53125 107.331054688 -294.53125 200.544921875 -315.086914062 c 0
 246.248046875 -325.166015625 246.248046875 -325.166015625 263.345703125 -298.583007812 c 0
 280.443359375 -272 280.443359375 -272 280.849609375 -214.8046875 c 2
 280.849609375 -102.569335938 l 1
 169.990234375 -135.620117188 l 1
 107.331054688 -175.556640625 107.331054688 -175.556640625 107.331054688 -225.133789062 c 0
340.443359375 120 m 0
 368.443359375 120 368.443359375 120 384.443359375 104 c 0
 400.443359375 88 400.443359375 88 400.443359375 60 c 2
 400.443359375 -8 l 1
 400.443359375 -98 l 2
 400.443359375 -268.779296875 400.443359375 -268.779296875 373.806640625 -325.665039062 c 0
 331.443359375 -418 331.443359375 -418 196.845703125 -417.931640625 c 0
 106.443359375 -418 106.443359375 -418 54.0751953125 -362.1875 c 0
 1.7080078125 -306.374023438 1.7080078125 -306.374023438 0.0751953125 -230.1875 c 0
 0 -226.66796875 0 -226.66796875 0 -223.228515625 c 0,0,0
 0 -152.2265625 0 -152.2265625 32.146484375 -115.608398438 c 0
 65.849609375 -77.216796875 65.849609375 -77.216796875 129.365234375 -34.7451171875 c 0
 151.739257812 -23.75390625 151.739257812 -23.75390625 197.091796875 -1.376953125 c 0
 242.443359375 21 242.443359375 21 280.849609375 39.275390625 c 1
 280.849609375 51.068359375 l 2
 280.443359375 55.3671875 280.443359375 55.3671875 280.443359375 60 c 0
 280.443359375 88 280.443359375 88 296.443359375 104 c 0
 312.443359375 120 312.443359375 120 340.443359375 120 c 0
EndSplineSet
Validated: 524323
EndChar

StartChar: poczPUA
Encoding: 57344 57344 28
Width: 1746
GlyphClass: 2
Flags: HW
LayerCount: 3
Fore
SplineSet
1681.44921875 487.149414062 m 1
 1746.1953125 449.795898438 l 1
 1566.55078125 155.182617188 l 1
 1510.92480469 -102.619140625 1510.92480469 -102.619140625 1355.49902344 -102.619140625 c 0,0,0
 1354.04980469 -102.619140625 1354.04980469 -102.619140625 1352.59179688 -102.596679688 c 0
 1335.15820312 -102.331054688 1335.15820312 -102.331054688 1320.36035156 -98.87890625 c 1
 1289.35253906 -116.366210938 1289.35253906 -116.366210938 1250.4921875 -116.366210938 c 0
 1249.80761719 -116.369140625 1249.80761719 -116.369140625 1249.12695312 -116.369140625 c 0,0,0
 1121 -116.369140625 1121 -116.369140625 1121 -6.6494140625 c 2
 1121 22.2080078125 l 1
 1121 44.9130859375 l 1
 1121 390.030273438 l 1
 1121 487.149414062 l 1
 1121.30273438 487.149414062 l 1
 1122.7578125 953.409179688 l 1
 1122.7578125 953.995117188 l 2
 1122.171875 1123.77050781 1122.171875 1123.77050781 1262.2109375 1123.77050781 c 0
 1401.8125 1123.77050781 1401.8125 1123.77050781 1401.8125 951.7734375 c 0,0,0
 1401.8125 700.995117188 1401.8125 700.995117188 1224.7109375 405.947265625 c 1
 1224.7109375 22.2080078125 l 1
 1222.953125 22.2080078125 l 1
 1222.953125 14.4443359375 l 2
 1222.953125 -11.365234375 1222.953125 -11.365234375 1242.86328125 -14.9921875 c 1
 1237.30859375 9.2607421875 1237.30859375 9.2607421875 1237.30859375 40.2255859375 c 1
 1327.39648438 40.2255859375 l 1
 1327.39648438 36.291015625 1327.39648438 36.291015625 1327.50878906 32.603515625 c 2
 1385.51171875 1.908203125 l 1
 1481.44238281 159.203125 l 1
 1506.41992188 282.115234375 1506.41992188 282.115234375 1507.42578125 488.321289062 c 1
 1597.3671875 488.321289062 l 1
 1596.48242188 408.549804688 1596.48242188 408.549804688 1591.4296875 339.546875 c 1
 1681.44921875 487.149414062 l 1
1224.7109375 600.528320312 m 1
 1309.37890625 809.415039062 1309.37890625 809.415039062 1309.96484375 949.161132812 c 0
 1309.96484375 1015.22558594 1309.96484375 1015.22558594 1262.50390625 1015.22558594 c 0
 1224.125 1015.22558594 1224.125 1015.22558594 1224.7109375 949.161132812 c 0
 1225.95605469 862.735351562 1225.95605469 862.735351562 1225.95605469 775.577148438 c 0,0,0
 1225.95605469 688.418945312 1225.95605469 688.418945312 1224.7109375 600.528320312 c 1
490.13671875 487.149414062 m 1
 564.55078125 470.450195312 l 1
 525.5859375 244.717773438 525.5859375 244.717773438 477.5390625 171.622070312 c 0
 397.952148438 50.8466796875 397.952148438 50.8466796875 273.115234375 -10.6435546875 c 1
 225.04296875 -116.366210938 225.04296875 -116.366210938 129.4921875 -116.366210938 c 0
 128.807617188 -116.369140625 128.807617188 -116.369140625 128.126953125 -116.369140625 c 0,0,0
 0 -116.369140625 0 -116.369140625 0 -6.6494140625 c 2
 0 22.2080078125 l 1
 0 44.9130859375 l 1
 0 390.030273438 l 1
 0 487.149414062 l 1
 0.302734375 487.149414062 l 1
 1.7578125 953.409179688 l 1
 1.7578125 953.995117188 l 2
 1.171875 1123.77050781 1.171875 1123.77050781 141.2109375 1123.77050781 c 0
 280.8125 1123.77050781 280.8125 1123.77050781 280.8125 951.7734375 c 0,0,0
 280.8125 700.995117188 280.8125 700.995117188 103.7109375 405.947265625 c 1
 103.7109375 22.2080078125 l 1
 101.953125 22.2080078125 l 1
 101.953125 14.4443359375 l 2
 101.953125 -15.5849609375 101.953125 -15.5849609375 128.90625 -15.5849609375 c 0
 152.975585938 -15.5849609375 152.975585938 -15.5849609375 169.067382812 -1.7265625 c 1
 156.591796875 22.2080078125 l 1
 174.530273438 27.6630859375 174.530273438 27.6630859375 191.404296875 33.9541015625 c 0
 192.353515625 36.7197265625 192.353515625 36.7197265625 193.212890625 39.6396484375 c 1
 198.704101562 36.7333984375 l 1
 330.366210938 87.9384765625 330.366210938 87.9384765625 395.361328125 191.397460938 c 0
 470.361328125 310.782226562 470.361328125 310.782226562 490.13671875 487.149414062 c 1
103.7109375 600.528320312 m 1
 188.37890625 809.415039062 188.37890625 809.415039062 188.96484375 949.161132812 c 0
 188.96484375 1015.22558594 188.96484375 1015.22558594 141.50390625 1015.22558594 c 0
 103.125 1015.22558594 103.125 1015.22558594 103.7109375 949.161132812 c 0
 104.956054688 862.735351562 104.956054688 862.735351562 104.956054688 775.577148438 c 0,0,0
 104.956054688 688.418945312 104.956054688 688.418945312 103.7109375 600.528320312 c 1
EndSplineSet
Validated: 524321
EndChar

StartChar: koniecPUA
Encoding: 63743 63743 29
Width: 3000
LayerCount: 3
Fore
SplineSet
2300 1320 m 0,0,1
 2834 894 2834 894 2335 370 c 0,2,3
 1854 -136 1854 -136 1130 540 c 0,4,5
 782 865 782 865 1260 1375 c 4,6,7
 1675 1819 1675 1819 2300 1320 c 0,0,1
EndSplineSet
Validated: 33
EndChar

StartChar: stemG.krt
Encoding: 57355 57355 30
Width: 121
VWidth: 0
GlyphClass: 2
Flags: HW
LayerCount: 3
Fore
SplineSet
1 60 m 1025
81 60 m 25,0,-1
 70 71 l 25,1,-1
 61 80 l 25,2,-1
 61 40 l 25,3,-1
 41 60 l 25,4,-1
 81 60 l 1049,5,-1
80 640 m 25,0,-1
 69 651 l 25,1,-1
 60 660 l 25,2,-1
 60 620 l 25,3,-1
 40 640 l 25,4,-1
 80 640 l 1049,5,-1
1 60 m 2
 1 626.284179688 l 2
 0 632.731445312 0 632.731445312 0 640 c 0
 0 660.033203125 0 660.033203125 8.1904296875 673.923828125 c 0
 19.4853515625 695.611328125 19.4853515625 695.611328125 48.5234375 699.26171875 c 0
 53.984375 700 53.984375 700 60 700 c 0
 60.23828125 700 60.23828125 700 60.4765625 699.999023438 c 0
 60.7373046875 699.999023438 60.7373046875 699.999023438 61 700 c 0
 121 700 121 700 121 639 c 2
 121 60 l 2
 121 0 121 0 61 0 c 0
 1 0 1 0 1 60 c 2
EndSplineSet
Validated: 524291
EndChar

StartChar: stemI
Encoding: 57356 57356 31
Width: 121
VWidth: 0
GlyphClass: 2
Flags: HW
LayerCount: 3
Fore
SplineSet
1 60 m 1025
81 60 m 25,0,-1
 70 71 l 25,1,-1
 61 80 l 25,2,-1
 61 40 l 25,3,-1
 41 60 l 25,4,-1
 81 60 l 1049,5,-1
80 440 m 25,0,-1
 69 451 l 25,1,-1
 60 460 l 25,2,-1
 60 420 l 25,3,-1
 40 440 l 25,4,-1
 80 440 l 1049,5,-1
1 60 m 2
 1 426.284179688 l 2
 0 432.731445312 0 432.731445312 0 440 c 0
 0 460.033203125 0 460.033203125 8.1904296875 473.923828125 c 0
 19.4853515625 495.611328125 19.4853515625 495.611328125 48.5234375 499.26171875 c 0
 53.984375 500 53.984375 500 60 500 c 0
 60.23828125 500 60.23828125 500 60.4765625 499.999023438 c 0
 60.7373046875 499.999023438 60.7373046875 499.999023438 61 500 c 0
 121 500 121 500 121 439 c 2
 121 60 l 2
 121 0 121 0 61 0 c 0
 1 0 1 0 1 60 c 2
EndSplineSet
Validated: 524291
EndChar

StartChar: koloS
Encoding: 57440 57440 34
Width: 583
VWidth: 0
GlyphClass: 2
Flags: HW
LayerCount: 3
Fore
SplineSet
295 612 m 25,0,-1
 284 623 l 25,1,-1
 275 632 l 25,2,-1
 275 592 l 25,3,-1
 255 612 l 25,4,-1
 295 612 l 1049,5,-1
330 612 m 25,0,-1
 319 623 l 25,1,-1
 310 632 l 25,2,-1
 310 592 l 25,3,-1
 290 612 l 25,4,-1
 330 612 l 1049,5,-1
145 527 m 25,0,-1
 134 538 l 25,1,-1
 125 547 l 25,2,-1
 125 507 l 25,3,-1
 105 527 l 25,4,-1
 145 527 l 1049,5,-1
510 200 m 25,0,-1
 499 211 l 25,1,-1
 490 220 l 25,2,-1
 490 180 l 25,3,-1
 470 200 l 25,4,-1
 510 200 l 1049,5,-1
107 463 m 25,0,-1
 96 474 l 25,1,-1
 87 483 l 25,2,-1
 87 443 l 25,3,-1
 67 463 l 25,4,-1
 107 463 l 1049,5,-1
542 331 m 25,0,-1
 531 342 l 25,1,-1
 522 351 l 25,2,-1
 522 311 l 25,3,-1
 502 331 l 25,4,-1
 542 331 l 1049,5,-1
290.633789062 61.4462890625 m 25,0,-1
 279.633789062 72.4462890625 l 25,1,-1
 270.633789062 81.4462890625 l 25,2,-1
 270.633789062 41.4462890625 l 25,3,-1
 250.633789062 61.4462890625 l 25,4,-1
 290.633789062 61.4462890625 l 1049,5,-1
331 62 m 25,0,-1
 320 73 l 25,1,-1
 311 82 l 25,2,-1
 311 42 l 25,3,-1
 291 62 l 25,4,-1
 331 62 l 1049,5,-1
80 331 m 25,0,-1
 69 342 l 25,1,-1
 60 351 l 25,2,-1
 60 311 l 25,3,-1
 40 331 l 25,4,-1
 80 331 l 1049,5,-1
474 147 m 25,0,-1
 463 158 l 25,1,-1
 454 167 l 25,2,-1
 454 127 l 25,3,-1
 434 147 l 25,4,-1
 474 147 l 1049,5,-1
165 473 m 0
 123.505859375 400.385742188 123.505859375 400.385742188 123.505859375 331.78125 c 0,0,0
 123.505859375 260.741210938 123.505859375 260.741210938 168 194 c 0
 213.668945312 125.49609375 213.668945312 125.49609375 289.400390625 125.49609375 c 0,0,0
 289.94921875 125.49609375 289.94921875 125.49609375 290.5 125.5 c 0
 367 126 367 126 413.5 197.5 c 0
 458.08203125 266.051757812 458.08203125 266.051757812 458.08203125 338.739257812 c 0,0,0
 458.08203125 341.866210938 458.08203125 341.866210938 458 345 c 0
 456 421 456 421 416 485 c 0
 376 549 376 549 292.5 549 c 0
 209 549 209 549 165 473 c 0
100.346679688 588.369140625 m 0
 197.731445312 675.549804688 197.731445312 675.549804688 292.57421875 675.549804688 c 0,0,0
 387.41796875 675.549804688 387.41796875 675.549804688 479.720703125 588.369140625 c 0
 582.502929688 491.526367188 582.502929688 491.526367188 582.502929688 333.423828125 c 0,0,0
 582.502929688 192.950195312 582.502929688 192.950195312 502.5 107.15234375 c 0
 500.00390625 103.853515625 500.00390625 103.853515625 496.965820312 101 c 0
 495.65625 99.775390625 495.65625 99.775390625 494.247070312 98.6572265625 c 0
 489.264648438 93.732421875 489.264648438 93.732421875 484 89 c 0
 413.615234375 25.724609375 413.615234375 25.724609375 343.134765625 8.5146484375 c 0
 330.099609375 2 330.099609375 2 311 2 c 0
 306.313476562 2 306.313476562 2 301.991210938 2.392578125 c 0
 292.505859375 1.8857421875 292.505859375 1.8857421875 283.017578125 2.2119140625 c 0
 277.182617188 1.4462890625 277.182617188 1.4462890625 270.633789062 1.4462890625 c 0
 250.533203125 1.4462890625 250.533203125 1.4462890625 237.150390625 8.6611328125 c 0
 168.793945312 25.525390625 168.793945312 25.525390625 100.346679688 85.6298828125 c 0
 2.80859375 171.526367188 2.80859375 171.526367188 0.0791015625 326.98828125 c 0
 -0 328.961914062 -0 328.961914062 0 331 c 0
 0 331.7578125 0 331.7578125 0.01171875 332.506835938 c 0
 0 334.249023438 0 334.249023438 0 336 c 0
 0 473.594726562 0 473.594726562 72.3896484375 559.515625 c 0
 75.8740234375 565.874023438 75.8740234375 565.874023438 81 571 c 0
 84.576171875 574.576171875 84.576171875 574.576171875 88.7529296875 577.353515625 c 0
 94.3720703125 582.98828125 94.3720703125 582.98828125 100.346679688 588.369140625 c 0
EndSplineSet
Validated: 526339
EndChar

StartChar: koloZ
Encoding: 57441 57441 35
Width: 449
VWidth: 300
GlyphClass: 2
Flags: HW
LayerCount: 3
Fore
SplineSet
200 412 m 25,0,-1
 189 423 l 25,1,-1
 180 432 l 25,2,-1
 180 392 l 25,3,-1
 160 412 l 25,4,-1
 200 412 l 1049,5,-1
281 414 m 25,0,-1
 270 425 l 25,1,-1
 261 434 l 25,2,-1
 261 394 l 25,3,-1
 241 414 l 25,4,-1
 281 414 l 1049,5,-1
207 68 m 25,0,-1
 196 79 l 25,1,-1
 187 88 l 25,2,-1
 187 48 l 25,3,-1
 167 68 l 25,4,-1
 207 68 l 1049,5,-1
287.793945312 69.837890625 m 25,0,-1
 276.793945312 80.837890625 l 25,1,-1
 267.793945312 89.837890625 l 25,2,-1
 267.793945312 49.837890625 l 25,3,-1
 247.793945312 69.837890625 l 25,4,-1
 287.793945312 69.837890625 l 1049,5,-1
72 416 m 0
 144 481 144 481 224 481 c 0
 304 481 304 481 355 434 c 0
 448.595038602 347.745748739 448.595038602 347.745748739 449.37109375 239 c 0
 449 189 449 189 426 138 c 0
 390.625483652 59.5608550548 390.625483652 59.5608550548 300.793945312 15.837890625 c 0
 268 0 268 0 223.471679688 0.048828125 c 0
 149.311394922 -0.032596900544 149.311394922 -0.032596900544 95.1556974611 45.4837015497 c 0
 0 125.459314974 0 125.459314974 0 238.229657487 c 0
 0 351 0 351 72 416 c 0
146.5 162.5 m 0
 178 128 178 128 227 128 c 0
 276 128 276 128 303.5 161 c 0
 331 194 331 194 331 229 c 0
 331 264 331 264 304 309.5 c 0
 277 355 277 355 228 355 c 0
 179 355 179 355 147 312.5 c 0
 115 270 115 270 115 233.5 c 0
 115 197 115 197 146.5 162.5 c 0
EndSplineSet
Validated: 524323
EndChar

StartChar: eprost3
Encoding: 57475 57475 36
Width: 698
GlyphClass: 2
Flags: HW
LayerCount: 3
Fore
SplineSet
639.641601562 92.3466796875 m 25,0,-1
 649.640625 104.262695312 l 25,1,-1
 657.822265625 114.013671875 l 25,2,-1
 617.974609375 110.52734375 l 25,3,-1
 636.155273438 132.194335938 l 25,4,-1
 639.641601562 92.3466796875 l 1049,5,-1
61.935546875 40.7998046875 m 25,0,-1
 71.935546875 52.716796875 l 25,1,-1
 80.1162109375 62.466796875 l 25,2,-1
 40.2685546875 58.98046875 l 25,3,-1
 58.44921875 80.6474609375 l 25,4,-1
 61.935546875 40.7998046875 l 1049,5,-1
54.962890625 120.495117188 m 1025
697.703125 117.103515625 m 0
 697.731445312 116.803710938 697.731445312 116.803710938 697.7578125 116.502929688 c 0
 698.171875 111.767578125 698.171875 111.767578125 698.171875 107.374023438 c 0,0,0
 698.171875 56.310546875 698.171875 56.310546875 642.21875 51.4150390625 c 2
 65.421875 0.9521484375 l 2
 60.61328125 0.53125 60.61328125 0.53125 56.1572265625 0.53125 c 0,0,0
 5.2294921875 0.53125 5.2294921875 0.53125 0.4208984375 55.494140625 c 0
 0 60.302734375 0 60.302734375 0 64.7587890625 c 0,0,0
 0 115.686523438 0 115.686523438 54.962890625 120.495117188 c 2
 619.08984375 169.849609375 l 2
 625.42578125 171.408203125 625.42578125 171.408203125 632.668945312 172.041992188 c 0
 652.626953125 173.788085938 652.626953125 173.788085938 667.1796875 166.837890625 c 0
 689.797851562 157.463867188 689.797851562 157.463867188 695.951171875 128.791992188 c 0
 697.149414062 123.44921875 697.149414062 123.44921875 697.669921875 117.499023438 c 0
 697.6875 117.30078125 697.6875 117.30078125 697.703125 117.103515625 c 0
EndSplineSet
Validated: 524291
EndChar

StartChar: eprost4
Encoding: 57476 57476 37
Width: 499
GlyphClass: 2
Flags: HW
LayerCount: 3
Fore
SplineSet
440.403320312 74.630859375 m 25,0,-1
 450.40234375 86.5478515625 l 25,1,-1
 458.583984375 96.2978515625 l 25,2,-1
 418.736328125 92.8115234375 l 25,3,-1
 436.916992188 114.478515625 l 25,4,-1
 440.403320312 74.630859375 l 1049,5,-1
61.9365234375 40.515625 m 25,0,-1
 71.935546875 52.4326171875 l 25,1,-1
 80.1171875 62.1826171875 l 25,2,-1
 40.2685546875 58.6962890625 l 25,3,-1
 58.4501953125 80.36328125 l 25,4,-1
 61.9365234375 40.515625 l 1049,5,-1
54.9638671875 120.2109375 m 1025
498.473632812 99.2841796875 m 0
 498.49609375 99.037109375 498.49609375 99.037109375 498.518554688 98.7880859375 c 0
 498.932617188 94.0517578125 498.932617188 94.0517578125 498.932617188 89.6572265625 c 0,0,0
 498.932617188 38.595703125 498.932617188 38.595703125 442.98046875 33.7001953125 c 2
 65.421875 0.66796875 l 2
 60.6123046875 0.2470703125 60.6123046875 0.2470703125 56.1572265625 0.2470703125 c 0,0,0
 5.2294921875 0.2470703125 5.2294921875 0.2470703125 0.4208984375 55.2099609375 c 0
 0 60.017578125 0 60.017578125 0 64.47265625 c 0,0,0
 0 115.403320312 0 115.403320312 54.9638671875 120.2109375 c 2
 419.8515625 152.134765625 l 2
 426.1875 153.693359375 426.1875 153.693359375 433.430664062 154.327148438 c 0
 453.389648438 156.072265625 453.389648438 156.072265625 467.942382812 149.122070312 c 0
 490.51953125 139.763671875 490.51953125 139.763671875 496.690429688 111.17578125 c 0
 497.90625 105.7890625 497.90625 105.7890625 498.431640625 99.7841796875 c 0
 498.453125 99.5341796875 498.453125 99.5341796875 498.473632812 99.2841796875 c 0
EndSplineSet
Validated: 524291
EndChar

StartChar: luD3
Encoding: 57447 57447 38
Width: 361
GlyphClass: 2
Flags: HW
LayerCount: 3
Fore
SplineSet
80 60 m 25,0,-1
 69 71 l 25,1,-1
 60 80 l 25,2,-1
 60 40 l 25,3,-1
 40 60 l 25,4,-1
 80 60 l 1049,5,-1
321 526 m 25,0,-1
 310 537 l 25,1,-1
 301 546 l 25,2,-1
 301 506 l 25,3,-1
 281 526 l 25,4,-1
 321 526 l 1049,5,-1
301 586 m 0
 329 586 329 586 345 570 c 0
 361 554 361 554 361 526 c 0
 361 496 361 496 343.965820312 480 c 0
 338.694351284 475.068725613 338.694351284 475.068725613 331.805748655 471.874412613 c 0
 120 334.873983347 120 334.873983347 120 60 c 1
 120 30 120 30 102.965820312 14 c 0
 88 0 88 0 60 0 c 0
 32 0 32 0 17.0341796875 14 c 0
 0 30 0 30 0 60 c 0
 0 403 0 403 269 581 c 1
 269.93804605 579.377031437 l 1
 282.985409814 586 282.985409814 586 301 586 c 0
EndSplineSet
Validated: 524291
EndChar

StartChar: luD4
Encoding: 57448 57448 39
Width: 361
GlyphClass: 2
Flags: HW
LayerCount: 3
Fore
SplineSet
40 60 m 25,0,-1
 51 49 l 25,1,-1
 60 40 l 25,2,-1
 60 80 l 25,3,-1
 80 60 l 25,4,-1
 40 60 l 1049,5,-1
281 526 m 25,0,-1
 292 515 l 25,1,-1
 301 506 l 25,2,-1
 301 546 l 25,3,-1
 321 526 l 25,4,-1
 281 526 l 1049,5,-1
60 0 m 0
 32 0 32 0 16 16 c 0
 0 32 0 32 0 60 c 0
 0 90 0 90 17.0341796875 106 c 0
 22.3056487157 110.931274387 22.3056487157 110.931274387 29.1942513452 114.125587387 c 0
 241 251.126016653 241 251.126016653 241 526 c 1
 241 556 241 556 258.034179688 572 c 0
 273 586 273 586 301 586 c 0
 329 586 329 586 343.965820312 572 c 0
 361 556 361 556 361 526 c 0
 361 183 361 183 92 5 c 1
 91.06195395 6.62296856265 l 1
 78.014590186 8.881784197e-16 78.014590186 8.881784197e-16 60 0 c 0
EndSplineSet
Validated: 524291
EndChar

StartChar: luT3
Encoding: 57452 57452 40
Width: 425
GlyphClass: 2
Flags: HW
LayerCount: 3
Fore
SplineSet
385 837 m 25,0,-1
 374 848 l 25,1,-1
 365 857 l 25,2,-1
 365 817 l 25,3,-1
 345 837 l 25,4,-1
 385 837 l 1049,5,-1
80 60 m 25,0,-1
 69 71 l 25,1,-1
 60 80 l 25,2,-1
 60 40 l 25,3,-1
 40 60 l 25,4,-1
 80 60 l 1049,5,-1
345.82421875 894.78515625 m 0
 346.092773438 894.852539062 346.092773438 894.852539062 346.362304688 894.91796875 c 0
 396.825195312 907.340820312 396.825195312 907.340820312 419.01953125 870.732421875 c 0
 420.471679688 865.395507812 420.471679688 865.395507812 421.568359375 860.362304688 c 0
 425 849.967773438 425 849.967773438 425 837 c 0
 425 835.0625 425 835.0625 424.928710938 833.18359375 c 0
 425.268554688 796.216796875 425.268554688 796.216796875 397.084960938 783.489257812 c 0
 396.123046875 783.010742188 396.123046875 783.010742188 395.12890625 782.56640625 c 0
 389.534179688 779.696289062 389.534179688 779.696289062 383.93359375 776.038085938 c 0
 119.670898438 604.48828125 119.670898438 604.48828125 119.670898438 99.1865234375 c 0,0,0
 119.670898438 79.837890625 119.670898438 79.837890625 120.05859375 60 c 1
 120 60 l 1
 120 30 120 30 102.965820312 14 c 0
 88 0 88 0 60 0 c 0
 32 0 32 0 17.0341796875 14 c 0
 0 30 0 30 0 60 c 0
 0 61.46875 0 61.46875 0.0439453125 62.9052734375 c 0
 0.0087890625 71.4521484375 0.0087890625 71.4521484375 0.05859375 80 c 0
 -0.0009765625 698.694335938 -0.0009765625 698.694335938 333.05859375 890.961914062 c 0
 339.651367188 893.23828125 339.651367188 893.23828125 345.82421875 894.78515625 c 0
EndSplineSet
Validated: 524323
EndChar

StartChar: luT4
Encoding: 57453 57453 41
Width: 425
GlyphClass: 2
Flags: HW
LayerCount: 3
Fore
SplineSet
345 838.065429688 m 25,0,-1
 356 827.065429688 l 25,1,-1
 365 818.065429688 l 25,2,-1
 365 858.065429688 l 25,3,-1
 385 838.065429688 l 25,4,-1
 345 838.065429688 l 1049,5,-1
40 61.0654296875 m 25,0,-1
 51 50.0654296875 l 25,1,-1
 60 41.0654296875 l 25,2,-1
 60 81.0654296875 l 25,3,-1
 80 61.0654296875 l 25,4,-1
 40 61.0654296875 l 1049,5,-1
27.9150390625 114.576171875 m 0
 28.876953125 115.0546875 28.876953125 115.0546875 29.87109375 115.499023438 c 0
 35.4658203125 118.369140625 35.4658203125 118.369140625 41.06640625 122.02734375 c 0
 303 292.065429688 303 292.065429688 304.94140625 818.065429688 c 0
 305 835.065429688 305 835.065429688 304.94140625 838.065429688 c 1
 305 838.065429688 l 1
 305 868.065429688 305 868.065429688 322.034179688 884.065429688 c 0
 337 898.065429688 337 898.065429688 365 898.065429688 c 0
 393 898.065429688 393 898.065429688 407.965820312 884.065429688 c 0
 425 868.065429688 425 868.065429688 425 838.065429688 c 0
 425 836.596679688 425 836.596679688 424.956054688 835.16015625 c 0
 424.991210938 826.61328125 424.991210938 826.61328125 424.94140625 818.065429688 c 0
 425 206.065429688 425 206.065429688 103.201171875 13.603515625 c 1
 91.94140625 7.103515625 l 2
 85.3486328125 4.8271484375 85.3486328125 4.8271484375 79.17578125 3.2802734375 c 0
 78.9072265625 3.212890625 78.9072265625 3.212890625 78.6376953125 3.1474609375 c 0
 28.1748046875 -9.275390625 28.1748046875 -9.275390625 5.98046875 27.3330078125 c 0
 4.5283203125 32.669921875 4.5283203125 32.669921875 3.431640625 37.703125 c 0
 -0 48.09765625 -0 48.09765625 0 61.0654296875 c 0
 0 63.0029296875 0 63.0029296875 0.0712890625 64.8818359375 c 0
 -0.2685546875 101.848632812 -0.2685546875 101.848632812 27.9150390625 114.576171875 c 0
EndSplineSet
Validated: 524323
EndChar

StartChar: okroci
Encoding: 57496 57496 42
Width: 550
GlyphClass: 2
Flags: HW
LayerCount: 3
Back
SplineSet
190.1328125 1 m 5,0,-1
 190 119 l 5,1,2
 306 119 306 119 393.5 255 c 132,-1,4
 422 300 422 300 422 402 c 4,5,6
 422 504 422 504 394 542 c 4,7,8
 307 659 307 659 190 658.883789062 c 5,9,-1
 190.1328125 778.75390625 l 5,10,11
 342 779 342 779 444.5 661 c 4,12,13
 541 551 541 551 541.260742188 400.625976562 c 4,14,15
 541 245 541 245 443.517578125 123.745117188 c 4,16,17
 344 1 344 1 190.1328125 1 c 5,0,-1
EndSplineSet
Refer: 46 57346 S 1 0 0 1 130 658 2
Refer: 46 57346 S 1 0 0 1 130 0 2
Refer: 46 57346 S 1 0 0 1 421 342 2
Fore
SplineSet
210 60 m 25,0,-1
 199 71 l 25,1,-1
 190 80 l 25,2,-1
 190 40 l 25,3,-1
 170 60 l 25,4,-1
 210 60 l 1049,5,-1
509 403 m 25,0,-1
 498 414 l 25,1,-1
 489 423 l 25,2,-1
 489 383 l 25,3,-1
 469 403 l 25,4,-1
 509 403 l 1049,5,-1
410 153 m 25,0,-1
 399 164 l 25,1,-1
 390 173 l 25,2,-1
 390 133 l 25,3,-1
 370 153 l 25,4,-1
 410 153 l 1049,5,-1
80 638 m 25,0,-1
 69 649 l 25,1,-1
 60 658 l 25,2,-1
 60 618 l 25,3,-1
 40 638 l 25,4,-1
 80 638 l 1049,5,-1
190.132812413 7.883320459e-05 m 2
 190.066442904 7.883320459e-05 190.066442904 7.883320459e-05 190 0 c 0
 162 0 162 0 147.034179688 14 c 0
 130 30 130 30 130 60 c 0
 130 88 130 88 146 104 c 0
 162 120 162 120 190 120 c 0
 276.543626666 124.476394483 276.543626666 124.476394483 333.870210167 177.639333028 c 1
 337.869139898 188.869140446 337.869139898 188.869140446 346 197 c 0
 352.381705138 203.381705138 352.381705138 203.381705138 360.672449057 207.218025241 c 1
 397.065479263 254.729177452 397.065479263 254.729177452 418 328 c 0
 427.523809524 362.761904762 427.523809524 362.761904762 427.523809524 399.56462585 c 0,0,0
 427.523809524 440.047619048 427.523809524 440.047619048 416 483 c 0
 394 565 394 565 336.5 609 c 0
 276.941810198 654.574962631 276.941810198 654.574962631 222.678950082 654.574962631 c 0,0,0
 162.350421763 654.574962631 162.350421763 654.574962631 108.567246906 598.241503298 c 0
 106.044801296 594.892049848 106.044801296 594.892049848 102.965820312 592 c 0
 102.48440859 591.549656219 102.48440859 591.549656219 101.989509487 591.113799155 c 0
 101.494473478 590.559321726 101.494473478 590.559321726 101 590 c 1
 100.865939891 590.157230991 l 1
 86.0922389902 578 86.0922389902 578 60 578 c 0
 32 578 32 578 17.0341796875 592 c 0
 0 608 0 608 0 638 c 0
 0 666 0 666 16 682 c 0
 18.4624697402 684.46246974 18.4624697402 684.46246974 21.2091785673 686.545954038 c 0
 94.0445182221 779.004129148 94.0445182221 779.004129148 219.5 779.5 c 0
 220.042918455 779.502145923 220.042918455 779.502145923 220.585385621 779.502145923 c 0,0,0
 346.43776824 779.502145923 346.43776824 779.502145923 448 664 c 0
 550 548 550 548 550 403 c 0
 550 310.983050847 550 310.983050847 514 228 c 0
 455 92 455 92 356 45 c 0
 261.040816327 -0.0816326530612 261.040816327 -0.0816326530612 195.644890801 -0.0816326530612 c 0,0,0
 192.862085459 -0.0816326530612 192.862085459 -0.0816326530612 190.1328125 0 c 1
 190.132812413 7.883320459e-05 l 2
EndSplineSet
Validated: 524291
EndChar

StartChar: ellipsis
Encoding: 8230 8230 43
Width: 3000
LayerCount: 3
Fore
SplineSet
768 251 m 1,0,-1
 950 252 l 1,1,-1
 782 61 l 1,2,-1
 940 -131 l 1,3,-1
 758 -133 l 1,4,-1
 708 -23 l 1,5,-1
 637 -137 l 1,6,-1
 476 -133 l 1,7,-1
 637 54 l 1,8,-1
 477 252 l 1,9,-1
 654 252 l 1,10,-1
 714 148 l 1,11,-1
 768 251 l 1,0,-1
1466 256 m 1,0,-1
 1648 257 l 1,1,-1
 1480 66 l 1,2,-1
 1638 -126 l 1,3,-1
 1456 -128 l 1,4,-1
 1406 -18 l 1,5,-1
 1335 -132 l 1,6,-1
 1174 -128 l 1,7,-1
 1335 59 l 1,8,-1
 1175 257 l 1,9,-1
 1352 257 l 1,10,-1
 1412 153 l 1,11,-1
 1466 256 l 1,0,-1
2112 246 m 1,0,-1
 2294 247 l 1,1,-1
 2126 56 l 1,2,-1
 2284 -136 l 1,3,-1
 2102 -138 l 1,4,-1
 2052 -28 l 1,5,-1
 1981 -142 l 1,6,-1
 1820 -138 l 1,7,-1
 1981 49 l 1,8,-1
 1821 247 l 1,9,-1
 1998 247 l 1,10,-1
 2058 143 l 1,11,-1
 2112 246 l 1,0,-1
EndSplineSet
Validated: 1
EndChar

StartChar: prostaVOW
Encoding: 57348 57348 44
Width: 80
GlyphClass: 2
Flags: HW
LayerCount: 3
Fore
SplineSet
0 900 m 1
 80 900 l 1
 80 0 l 1
 0 0 l 1
 0 900 l 1
EndSplineSet
Validated: 1
EndChar

StartChar: prostaCONS
Encoding: 57347 57347 45
Width: 125
GlyphClass: 2
Flags: HW
LayerCount: 3
Fore
SplineSet
0.1103515625 900 m 1
 120.110351562 900 l 1
 119.684570312 0.3310546875 l 1
 0 -0.0341796875 l 1
 0.1103515625 900 l 1
EndSplineSet
Validated: 524289
Layer: 2
SplineSet
60.1103515625 353 m 4
 99.384765625 353 125.110351562 332.149414062 125.110351562 292 c 4
 125.110351562 248 106.110351562 227 61.1103515625 227 c 4
 26.8349609375 227 0.1103515625 247 0.1103515625 291 c 4
 0.1103515625 325 21.1103515625 353 60.1103515625 353 c 4
EndSplineSet
EndChar

StartChar: konCONS
Encoding: 57346 57346 46
Width: 120
GlyphClass: 2
Flags: HW
LayerCount: 3
Fore
SplineSet
80 60 m 25,0,-1
 60 80 l 25,2,-1
 60 40 l 25,3,-1
 40 60 l 25,4,-1
 80 60 l 1049,5,-1
0 60 m 0
 0 120 0 120 60 120 c 0
 120 120 120 120 120 60 c 0
 120 0 120 0 60 0 c 0
 0 0 0 0 0 60 c 0
EndSplineSet
Validated: 3
Layer: 2
SplineSet
60 80 m 29
 60 40 l 29
 40 60 l 29
 80 60 l 1053
60 120 m 132
 78.6666666667 120 93.3333333333 114.666666667 104 104 c 132
 114.666666667 93.3333333333 120 78.6666666667 120 60 c 4
 120 40 114.321940104 24.6666666667 102.965820312 14 c 4
 92.9886067707 4.66666666667 78.6666666667 0 60 0 c 132
 41.3333333333 0 27.0113932292 4.66666666667 17.0341796875 14 c 4
 5.67805989583 24.6666666667 0 40 0 60 c 4
 0 78.6666666667 5.33333333333 93.3333333333 16 104 c 132
 26.6666666667 114.666666667 41.3333333333 120 60 120 c 132
EndSplineSet
EndChar

StartChar: endash
Encoding: 8211 8211 47
Width: 1480
GlyphClass: 2
Flags: HW
LayerCount: 3
Fore
SplineSet
0 868 m 1
 1480 868 l 1
 1480 698 l 1
 0 698 l 1
 0 868 l 1
0 592 m 1
 1480 592 l 1
 1480 420 l 1
 0 420 l 1
 0 592 l 1
EndSplineSet
Validated: 1
EndChar

StartChar: konVOW
Encoding: 57345 57345 48
Width: 80
GlyphClass: 2
Flags: HW
LayerCount: 3
Fore
SplineSet
40 80 m 0
 80 80 80 80 80 40 c 0
 80 0 80 0 40 0 c 0
 0 0 0 0 0 40 c 0
 0 80 0 80 40 80 c 0
EndSplineSet
Validated: 1
EndChar

StartChar: eprost2
Encoding: 57474 57474 49
Width: 957
GlyphClass: 2
Flags: HW
LayerCount: 3
Fore
SplineSet
898.739257812 116.116210938 m 25,0,-1
 908.73828125 128.033203125 l 25,1,-1
 916.919921875 137.783203125 l 25,2,-1
 877.072265625 134.296875 l 25,3,-1
 895.252929688 155.963867188 l 25,4,-1
 898.739257812 116.116210938 l 1049,5,-1
61.935546875 42.9052734375 m 25,0,-1
 71.9345703125 54.822265625 l 25,1,-1
 80.1162109375 64.5732421875 l 25,2,-1
 40.2685546875 61.0869140625 l 25,3,-1
 58.44921875 82.75390625 l 25,4,-1
 61.935546875 42.9052734375 l 1049,5,-1
54.962890625 122.6015625 m 1029
910.729492188 77.416015625 m 0
 906.645507812 76.6552734375 906.645507812 76.6552734375 902.225585938 76.2685546875 c 0
 901.97265625 76.24609375 901.97265625 76.24609375 901.721679688 76.2255859375 c 0
 901.475585938 76.203125 901.475585938 76.203125 901.229492188 76.181640625 c 2
 65.421875 3.0576171875 l 2
 60.61328125 2.63671875 60.61328125 2.63671875 56.1572265625 2.63671875 c 0,0,0
 5.228515625 2.63671875 5.228515625 2.63671875 0.4208984375 57.6005859375 c 0
 0 62.4091796875 0 62.4091796875 0 66.865234375 c 0,0,0
 0 117.79296875 0 117.79296875 54.962890625 122.6015625 c 2
 890.770507812 195.724609375 l 2
 890.98828125 195.744140625 890.98828125 195.744140625 891.206054688 195.76171875 c 0
 891.485351562 195.788085938 891.485351562 195.788085938 891.766601562 195.8125 c 0
 896.21875 196.202148438 896.21875 196.202148438 900.401367188 196.159179688 c 0
 951.96875 196.119140625 951.96875 196.119140625 956.767578125 141.26953125 c 0
 961.569335938 86.3876953125 961.569335938 86.3876953125 910.729492188 77.416015625 c 0
EndSplineSet
Validated: 524291
EndChar

StartChar: dolMv.brzhd
Encoding: 57379 57379 50
Width: 360
GlyphClass: 2
Flags: HW
LayerCount: 3
Fore
SplineSet
84.53125 60 m 25,0,-1
 73.53125 71 l 25,1,-1
 64.53125 80 l 25,2,-1
 64.53125 40 l 25,3,-1
 44.53125 60 l 25,4,-1
 84.53125 60 l 1049,5,-1
80 327.01953125 m 25,0,-1
 69 338.01953125 l 25,1,-1
 60 347.01953125 l 25,2,-1
 60 307.01953125 l 25,3,-1
 40 327.01953125 l 25,4,-1
 80 327.01953125 l 1049,5,-1
120.53125 201 m 1
 120.53125 251 120.53125 251 182.53125 250.758789062 c 0
 359.53125 251 359.53125 251 359.53125 12 c 0
 359.53125 -227 359.53125 -227 180.03125 -227 c 0
 0.53125 -227 0.53125 -227 0.53125 138 c 2
 0.53125 316.860351562 l 2
 0 321.721679688 0 321.721679688 0 327.01953125 c 0
 0 355.01953125 0 355.01953125 16 371.01953125 c 0
 32 387.01953125 32 387.01953125 60 387.01953125 c 0
 88 387.01953125 88 387.01953125 104 371.01953125 c 0
 120 355.01953125 120 355.01953125 120 327.01953125 c 0
 120 327.009765625 120 327.009765625 120 327 c 1
 120.53125 327 l 1
 120.53125 201 l 1
120.53125 -35 m 0
 120.53125 -107 120.53125 -107 182.53125 -107 c 0
 244.53125 -107 244.53125 -107 244.53125 17.1123046875 c 0
 244.53125 141.616210938 244.53125 141.616210938 182.266601562 141.616210938 c 0,0,0
 121.529296875 141.616210938 121.529296875 141.616210938 120.53125 -35 c 0
EndSplineSet
Validated: 524323
EndChar

StartChar: luGL
Encoding: 57459 57459 51
Width: 356
GlyphClass: 2
Flags: HW
LayerCount: 3
Fore
SplineSet
130 412 m 25,38,-1
 130 372 l 25,39,-1
 110 392 l 25,40,-1
 150 392 l 1049
130 81 m 25,18,-1
 130 41 l 25,19,-1
 110 61 l 25,20,-1
 150 61 l 1049
179 384 m 25,0,-1
 168 395 l 25,1,-1
 159 404 l 25,2,-1
 159 364 l 25,3,-1
 139 384 l 25,4,-1
 179 384 l 1049,5,-1
125 384 m 25,0,-1
 114 395 l 25,1,-1
 105 404 l 25,2,-1
 105 364 l 25,3,-1
 85 384 l 25,4,-1
 125 384 l 1049,5,-1
178 232 m 25,0,-1
 167 243 l 25,1,-1
 158 252 l 25,2,-1
 158 212 l 25,3,-1
 138 232 l 25,4,-1
 178 232 l 1049,5,-1
128 231 m 25,0,-1
 117 242 l 25,1,-1
 108 251 l 25,2,-1
 108 211 l 25,3,-1
 88 231 l 25,4,-1
 128 231 l 1049,5,-1
70 61 m 0
 70 121 70 121 130 121 c 0
 130.19743058 121 130.19743058 121 130.394211512 120.999350353 c 1
 130.394211512 121.04801502 130.394211512 121.04801502 130.39453125 121.096679688 c 0
 175 121 175 121 207.5 152 c 0
 237.349300018 180.471640018 237.349300018 180.471640018 239.78380913 220.330962489 c 1
 231.299604008 207.535999594 231.299604008 207.535999594 221.600585938 199.600585938 c 0
 208.110727589 189.03336556 208.110727589 189.03336556 195.189482803 181.435944248 c 0
 192.381655174 179.570429169 192.381655174 179.570429169 189.230453217 178.073732064 c 0
 159.476345391 162.000001055 159.476345391 162.000001055 132.799804688 162 c 0
 104.907397682 162 104.907397682 162 76.6935872996 177.109888275 c 0
 73.688336592 178.543390234 73.688336592 178.543390234 70.9962121673 180.313221104 c 0
 57.534605945 188.240957233 57.534605945 188.240957233 44 199.600585938 c 0
 24.7998046875 215.600585938 24.7998046875 215.600585938 12.400390625 244.80078125 c 0
 0 274 0 274 0 308.400390625 c 0
 0 377.200195312 0 377.200195312 44 417.200195312 c 0
 85.6005859375 454.80078125 85.6005859375 454.80078125 132.799804688 454.80078125 c 0
 150.648248548 454.80078125 150.648248548 454.80078125 167.390557171 449.60186462 c 0
 238.309827856 438.791773884 238.309827856 438.791773884 290.5 387 c 0
 356 322 356 322 356 227.5 c 0
 356 133 356 133 290 67 c 0
 224 1 224 1 130 1 c 0
 70 1 70 1 70 61 c 0
EndSplineSet
Validated: 524291
EndChar

StartChar: dolTW
Encoding: 57538 57538 52
Width: 267
GlyphClass: 2
Flags: HW
LayerCount: 3
Fore
SplineSet
225 60 m 25,0,-1
 214 71 l 25,1,-1
 205 80 l 25,2,-1
 205 40 l 25,3,-1
 185 60 l 25,4,-1
 225 60 l 1049,5,-1
80 80 m 25,0,-1
 69 91 l 25,1,-1
 60 100 l 25,2,-1
 60 60 l 25,3,-1
 40 80 l 25,4,-1
 80 80 l 1049,5,-1
165.948247728 108.346681475 m 0
 168.090431666 109.99380132 168.090431666 109.99380132 170.407223021 111.408111085 c 0
 170.453894933 111.453894937 170.453894933 111.453894937 170.5 111.5 c 0
 178 119 178 119 202.5 120 c 0
 227.828181639 121.033803332 227.828181639 121.033803332 243.357012933 108.871338354 c 0
 246.343860094 106.656140675 246.343860094 106.656140675 249 104 c 0
 260.334003131 92.6659968691 260.334003131 92.6659968691 263.639279206 75.3104486248 c 0
 264.324645753 72.7518346577 264.324645753 72.7518346577 264.901428553 70.0469970838 c 0
 272.012581112 36.699089359 272.012581112 36.699089359 249.323386866 15.3247814765 c 0
 248.658695007 14.6508093558 248.658695007 14.6508093558 247.965820312 14 c 0
 245.32173482 11.5265507585 245.32173482 11.5265507585 242.270800298 9.49009757388 c 0
 231.000438174 1.2556784152 231.000438174 1.2556784152 214.508789062 -4.880859375 c 0
 190 -14 190 -14 126 -13.8076171875 c 0
 35.5073537579 -13.9457856779 35.5073537579 -13.9457856779 10.0061281652 42.2380148173 c 0
 1.7517287354e-07 57.0071043679 1.7517287354e-07 57.0071043679 0 80 c 0
 0 83.213088452 0 83.213088452 0.210691449341 86.2681573974 c 0
 1.15067034792e-06 90.5427859661 1.15067034792e-06 90.5427859661 0 95 c 0
 0 98.276212172 0 98.276212172 4.61277224949 106.608732387 c 0
 8.24911065502 115.733197056 8.24911065502 115.733197056 14.7520476736 122.707712388 c 0
 28.0893229047 140.000001927 28.0893229047 140.000001927 58.5 140 c 0
 58.8984002509 140 58.8984002509 140 59.2939453802 139.997444069 c 0
 59.6460137086 140.00000134 59.6460137086 140.00000134 60 140 c 0
 67.726073398 140 67.726073398 140 74.5384905182 138.78179163 c 0
 91.777910455 135.92 91.777910455 135.92 101.503539259 126.33534262 c 0
 102.786294941 125.213705059 102.786294941 125.213705059 104 124 c 0
 106.971018016 121.028981984 106.971018016 121.028981984 109.390351779 117.644200778 c 0
 121.855116508 105.828661488 121.855116508 105.828661488 140.5 105 c 0
 157.511297897 104.243942316 157.511297897 104.243942316 165.948247728 108.346681475 c 0
EndSplineSet
Validated: 524323
EndChar

StartChar: dolMK30
Encoding: 57539 57539 53
Width: 120
GlyphClass: 2
Flags: HW
LayerCount: 3
Fore
SplineSet
80.46875 78 m 25,0,-1
 69.46875 89 l 25,1,-1
 60.46875 98 l 25,2,-1
 60.46875 58 l 25,3,-1
 40.46875 78 l 25,4,-1
 80.46875 78 l 1049,5,-1
80.46875 59 m 25,0,-1
 69.46875 70 l 25,1,-1
 60.46875 79 l 25,2,-1
 60.46875 39 l 25,3,-1
 40.46875 59 l 25,4,-1
 80.46875 59 l 1049,5,-1
119.46875 36 m 1
 0 -166 l 1
 0 77 l 2
 0 138 0 138 60 138.5 c 0
 113.101695129 138.942514126 113.101695129 138.942514126 119.206889518 92.7801652877 c 0
 120.468750314 85.863280463 120.468750314 85.863280463 120.46875 78 c 0
 120.46875 72.9687044426 120.46875 72.9687044426 119.989636898 68.3311812458 c 0
 120.468749639 63.8452578815 120.468749639 63.8452578815 120.46875 59 c 0
 120.46875 52.1888029813 120.46875 52.1888029813 119.590687156 46.0992655933 c 2
 119.46875 36 l 1
EndSplineSet
Validated: 524291
EndChar

StartChar: dolTWe
Encoding: 57540 57540 54
Width: 242
GlyphClass: 2
Flags: HW
LayerCount: 3
Fore
SplineSet
80 180 m 25,0,-1
 69 191 l 25,1,-1
 60 200 l 25,2,-1
 60 160 l 25,3,-1
 40 180 l 25,4,-1
 80 180 l 1049,5,-1
202 80 m 25,0,-1
 191 91 l 25,1,-1
 182 100 l 25,2,-1
 182 60 l 25,3,-1
 162 80 l 25,4,-1
 202 80 l 1049,5,-1
60 240 m 0
 88 240 88 240 104 224 c 0
 120 208 120 208 120 180 c 2
 120 179 l 1
 129 151 129 151 140.5 145.5 c 0
 152 140 152 140 176 140 c 2
 182 140 l 2
 210 140 210 140 226 124 c 0
 242 108 242 108 242 80 c 0
 242 50 242 50 224.965820312 34 c 0
 210 20 210 20 182 20 c 0
 179.831331053 20 179.831331053 20 177.740852638 20.083984375 c 2
 175.623046875 20.083984375 l 2
 117 23 117 23 78 48 c 0
 13.1036710737 87.2696710779 13.1036710737 87.2696710779 1.74086145125 162.249706498 c 0
 0.262632152087 169.178456576 0.262632152087 169.178456576 0.0396216670432 177.138841885 c 0
 0.0195266798972 177.394426715 0.0195266798972 177.394426715 0 177.650390625 c 2
 0 180 l 2
 0 208 0 208 16 224 c 0
 32 240 32 240 60 240 c 0
EndSplineSet
Validated: 524291
EndChar

StartChar: dolMKE
Encoding: 57541 57541 55
Width: 120
GlyphClass: 2
Flags: HW
LayerCount: 3
Fore
SplineSet
80 60 m 25,0,-1
 69 71 l 25,1,-1
 60 80 l 25,2,-1
 60 40 l 25,3,-1
 40 60 l 25,4,-1
 80 60 l 1049,5,-1
80 140 m 25,0,-1
 69 151 l 25,1,-1
 60 160 l 25,2,-1
 60 120 l 25,3,-1
 40 140 l 25,4,-1
 80 140 l 1049,5,-1
60 200 m 0
 88 200 88 200 104 184 c 0
 120 168 120 168 120 140 c 2
 120 60 l 1
 120 7 l 1
 0 -10 l 1
 0 60 l 1
 0 140 l 2
 0 168 0 168 16 184 c 0
 32 200 32 200 60 200 c 0
EndSplineSet
Validated: 3
EndChar

StartChar: luU0
Encoding: 57517 57517 56
Width: 454
GlyphClass: 2
Flags: HW
LayerCount: 3
Fore
SplineSet
80 60 m 25,0,-1
 69 71 l 25,1,-1
 60 80 l 25,2,-1
 60 40 l 25,3,-1
 40 60 l 25,4,-1
 80 60 l 1049,5,-1
414 780 m 25,0,-1
 403 791 l 25,1,-1
 394 800 l 25,2,-1
 394 760 l 25,3,-1
 374 780 l 25,4,-1
 414 780 l 1049,5,-1
168 -44 m 0
 333 -44 333 -44 333 780 c 1
 334 780 l 1
 334 808 334 808 350 824 c 0
 366 840 366 840 394 840 c 0
 422 840 422 840 438 824 c 0
 454 808 454 808 454 780 c 0
 453.00524109 -164.026205451 453.00524109 -164.026205451 168.010984314 -164.026205451 c 0,0,0
 166.509433962 -164.026205451 166.509433962 -164.026205451 165 -164 c 0
 0 -161 0 -161 0 60 c 0
 0 88 0 88 16 104 c 0
 32 120 32 120 60 120 c 0
 88 120 88 120 104 104 c 0
 120 88 120 88 120 60 c 0
 120 -44 120 -44 168 -44 c 0
EndSplineSet
Validated: 524291
EndChar

StartChar: luU2
Encoding: 57519 57519 57
Width: 773
GlyphClass: 2
Flags: HW
LayerCount: 3
Fore
SplineSet
728.530273438 505.60546875 m 25,0,-1
 724.50390625 520.631835938 l 25,1,-1
 721.209960938 532.92578125 l 25,2,-1
 701.209960938 498.28515625 l 25,3,-1
 693.889648438 525.60546875 l 25,4,-1
 728.530273438 505.60546875 l 1049,5,-1
81.8828125 57.337890625 m 25,0,-1
 71.8837890625 69.2548828125 l 25,1,-1
 63.7021484375 79.0048828125 l 25,2,-1
 60.2158203125 39.1572265625 l 25,3,-1
 42.03515625 60.82421875 l 25,4,-1
 81.8828125 57.337890625 l 1049,5,-1
148.487304688 -85 m 0
 157.38671875 -91.3544921875 157.38671875 -91.3544921875 168.872070312 -91.3544921875 c 0,0,0
 283.91015625 -91.3544921875 283.91015625 -91.3544921875 658.381835938 546.10546875 c 1
 659.248046875 545.60546875 l 1
 659.248046875 545.60546875 l 2
 673.248046875 569.854492188 673.248046875 569.854492188 695.104492188 575.7109375 c 0
 716.9609375 581.567382812 716.9609375 581.567382812 741.209960938 567.567382812 c 0
 765.458984375 553.567382812 765.458984375 553.567382812 771.315429688 531.7109375 c 0
 777.171875 509.854492188 777.171875 509.854492188 763.171875 485.60546875 c 0
 763.099609375 485.481445312 763.099609375 485.481445312 763.028320312 485.357421875 c 0
 364.594726562 -207.240234375 364.594726562 -207.240234375 164.516601562 -207.240234375 c 0,0,0
 134.836914062 -207.240234375 134.836914062 -207.240234375 109.521484375 -192 c 0
 0 -126.287109375 0 -126.287109375 0 21.0380859375 c 0,0,0
 0 41.859375 0 41.859375 2.1875 64.310546875 c 0
 4.6279296875 92.2041015625 4.6279296875 92.2041015625 21.9619140625 106.748046875 c 0
 39.294921875 121.29296875 39.294921875 121.29296875 67.1884765625 118.852539062 c 0
 95.08203125 116.412109375 95.08203125 116.412109375 109.626953125 99.0791015625 c 0
 124.170898438 81.7451171875 124.170898438 81.7451171875 121.73046875 53.8515625 c 1
 121.731445312 53.8515625 l 2
 121.731445312 53.845703125 121.731445312 53.845703125 121.729492188 53.83984375 c 0
 121.1328125 47.029296875 121.1328125 47.029296875 119.71875 41.01953125 c 0
 116.482421875 18.0859375 116.482421875 18.0859375 116.482421875 -1.1171875 c 0,0,0
 116.482421875 -61.51171875 116.482421875 -61.51171875 148.487304688 -85 c 0
EndSplineSet
Validated: 524291
EndChar

StartChar: luNdol
Encoding: 57528 57528 58
Width: 452
GlyphClass: 2
Flags: HW
LayerCount: 3
Fore
SplineSet
412 105 m 25,0,-1
 401 116 l 25,1,-1
 392 125 l 25,2,-1
 392 85 l 25,3,-1
 372 105 l 25,4,-1
 412 105 l 1049,5,-1
80 60 m 25,0,-1
 69 71 l 25,1,-1
 60 80 l 25,2,-1
 60 40 l 25,3,-1
 40 60 l 25,4,-1
 80 60 l 1049,5,-1
111 96 m 1
 147.854700855 54.9572649573 147.854700855 54.9572649573 206.107750749 54.9572649573 c 0,0,0
 217.401709402 54.9572649573 217.401709402 54.9572649573 229.5 56.5 c 0
 304 66 304 66 335 129 c 1
 335.565640753 128.761835473 l 1
 339.553161725 140.553161725 339.553161725 140.553161725 348 149 c 0
 364 165 364 165 392 165 c 0
 420 165 420 165 436 149 c 0
 452 133 452 133 452 105 c 0
 452 91.6971598455 452 91.6971598455 448.650596575 81.1471172315 c 1
 449 81 l 1
 448.266914175 79.4116473801 448.266914175 79.4116473801 447.50397147 77.8700330151 c 0
 444.149467628 69.1276436038 444.149467628 69.1276436038 438.292156885 62.4422532571 c 0
 436.690743715 60.2166355284 436.690743715 60.2166355284 435 58.130859375 c 0
 360 -52 360 -52 254 -66 c 0
 220.347461781 -70.5232078844 220.347461781 -70.5232078844 190.884069474 -70.5232078844 c 0,0,0
 68.0167898156 -70.5232078844 68.0167898156 -70.5232078844 18 8.13671875 c 0
 14.6847539734 14.6538967301 14.6847539734 14.6538967301 10.6825787835 21.2649903237 c 0
 6.49701991762e-07 36.2426128809 6.49701991762e-07 36.2426128809 0 60 c 0
 0 88 0 88 16 104 c 0
 32 120 32 120 60 120 c 0
 88 120 88 120 104 104 c 0
 107.781546262 100.218453738 107.781546262 100.218453738 110.669336765 95.7665906579 c 1
 111 96 l 1
EndSplineSet
Validated: 524291
EndChar

StartChar: dolLUK
Encoding: 57545 57545 59
Width: 450
GlyphClass: 2
Flags: HW
LayerCount: 3
Fore
SplineSet
80 60 m 25,0,-1
 69 71 l 25,1,-1
 60 80 l 25,2,-1
 60 40 l 25,3,-1
 40 60 l 25,4,-1
 80 60 l 1049,5,-1
410 24 m 25,0,-1
 399 35 l 25,1,-1
 390 44 l 25,2,-1
 390 4 l 25,3,-1
 370 24 l 25,4,-1
 410 24 l 1049,5,-1
60 120 m 0
 88 120 88 120 104 104 c 0
 120 88 120 88 120 60 c 2
 120 24 l 2
 120 -20 120 -20 236 -20 c 0
 298 -20 298 -20 334 52 c 1
 334.97335092 51.491402222 l 1
 338.920404403 60.9204044034 338.920404403 60.9204044034 346 68 c 0
 362 84 362 84 390 84 c 0
 418 84 418 84 434 68 c 0
 450 52 450 52 450 24 c 0
 450 6.86159415621 450 6.86159415621 444.440707045 -5.70775683409 c 1
 445 -6 l 1
 368 -140 368 -140 235 -140 c 0
 233.584337349 -140.006024096 233.584337349 -140.006024096 232.177202787 -140.006024096 c 0,0,0
 -2.84217094304e-14 -140.006024096 -2.84217094304e-14 -140.006024096 0 24 c 2
 0 60 l 1
 0 61 l 1
 0.00257051119458 61 0.00257051119458 61 0.00514102238915 60.9999571581 c 1
 0.28680369284 88.2868036928 0.28680369284 88.2868036928 16 104 c 0
 32 120 32 120 60 120 c 0
EndSplineSet
Validated: 524323
EndChar

StartChar: eprost0
Encoding: 57472 57472 60
Width: 1703
GlyphClass: 2
Flags: HW
LayerCount: 3
Fore
SplineSet
1644.88964844 178.784179688 m 25,0,-1
 1654.88867188 190.701171875 l 25,1,-1
 1663.0703125 200.451171875 l 25,2,-1
 1623.22265625 196.96484375 l 25,3,-1
 1641.40332031 218.631835938 l 25,4,-1
 1644.88964844 178.784179688 l 1049,5,-1
61.935546875 40.2939453125 m 25,0,-1
 71.9345703125 52.2109375 l 25,1,-1
 80.1162109375 61.9609375 l 25,2,-1
 40.2685546875 58.474609375 l 25,3,-1
 58.44921875 80.1416015625 l 25,4,-1
 61.935546875 40.2939453125 l 1049,5,-1
54.962890625 119.989257812 m 1025
1656.8828125 140.083984375 m 0
 1652.796875 139.323242188 1652.796875 139.323242188 1648.37597656 138.936523438 c 0
 1648.12304688 138.9140625 1648.12304688 138.9140625 1647.87011719 138.893554688 c 0
 1647.62597656 138.87109375 1647.62597656 138.87109375 1647.37988281 138.849609375 c 2
 65.421875 0.4462890625 l 2
 60.61328125 0.025390625 60.61328125 0.025390625 56.1572265625 0.025390625 c 0,0,0
 5.2294921875 0.025390625 5.2294921875 0.025390625 0.4208984375 54.98828125 c 0
 0 59.796875 0 59.796875 0 64.2529296875 c 0,0,0
 0 115.180664062 0 115.180664062 54.962890625 119.989257812 c 2
 1636.92089844 258.392578125 l 2
 1637.19335938 258.416015625 1637.19335938 258.416015625 1637.46386719 258.438476562 c 0
 1637.69042969 258.459960938 1637.69042969 258.459960938 1637.91699219 258.479492188 c 0
 1642.31347656 258.864257812 1642.31347656 258.864257812 1646.44824219 258.827148438 c 0
 1698.11425781 258.841796875 1698.11425781 258.841796875 1702.91796875 203.9375 c 0
 1707.71972656 149.056640625 1707.71972656 149.056640625 1656.8828125 140.083984375 c 0
EndSplineSet
Validated: 524291
EndChar

StartChar: eprost1
Encoding: 57473 57473 61
Width: 1305
GlyphClass: 2
Flags: HW
LayerCount: 3
Fore
SplineSet
1246.32421875 144.349609375 m 25,0,-1
 1256.32324219 156.266601562 l 25,1,-1
 1264.50488281 166.016601562 l 25,2,-1
 1224.65722656 162.53125 l 25,3,-1
 1242.83789062 184.198242188 l 25,4,-1
 1246.32421875 144.349609375 l 1049,5,-1
61.935546875 39.7255859375 m 25,0,-1
 71.9345703125 51.642578125 l 25,1,-1
 80.1162109375 61.392578125 l 25,2,-1
 40.2685546875 57.90625 l 25,3,-1
 58.44921875 79.5732421875 l 25,4,-1
 61.935546875 39.7255859375 l 1049,5,-1
54.962890625 119.420898438 m 1025
1304.39453125 169.002929688 m 0
 1304.41796875 168.755859375 1304.41796875 168.755859375 1304.43945312 168.506835938 c 0
 1304.85351562 163.770507812 1304.85351562 163.770507812 1304.85351562 159.375976562 c 0,0,0
 1304.85351562 108.314453125 1304.85351562 108.314453125 1248.90136719 103.418945312 c 2
 65.421875 -0.1220703125 l 2
 60.61328125 -0.54296875 60.61328125 -0.54296875 56.1572265625 -0.54296875 c 0,0,0
 5.228515625 -0.54296875 5.228515625 -0.54296875 0.4208984375 54.419921875 c 0
 0 59.228515625 0 59.228515625 0 63.6845703125 c 0,0,0
 0 114.61328125 0 114.61328125 54.962890625 119.420898438 c 2
 1225.77246094 221.853515625 l 2
 1232.10839844 223.412109375 1232.10839844 223.412109375 1239.3515625 224.045898438 c 0
 1259.31054688 225.791992188 1259.31054688 225.791992188 1273.86230469 218.841796875 c 0
 1296.44238281 209.482421875 1296.44238281 209.482421875 1302.61230469 180.890625 c 0
 1303.82714844 175.505859375 1303.82714844 175.505859375 1304.35253906 169.502929688 c 0
 1304.37402344 169.252929688 1304.37402344 169.252929688 1304.39453125 169.002929688 c 0
EndSplineSet
Validated: 524291
EndChar

StartChar: eprost5
Encoding: 57477 57477 62
Width: 342
GlyphClass: 2
Flags: HW
LayerCount: 3
Fore
SplineSet
283.064453125 59.5439453125 m 25,0,-1
 293.063476562 71.4609375 l 25,1,-1
 301.245117188 81.2109375 l 25,2,-1
 261.397460938 77.724609375 l 25,3,-1
 279.578125 99.392578125 l 25,4,-1
 283.064453125 59.5439453125 l 1049,5,-1
61.9091796875 40.1953125 m 25,0,-1
 71.908203125 52.1123046875 l 25,1,-1
 80.08984375 61.8623046875 l 25,2,-1
 40.2421875 58.376953125 l 25,3,-1
 58.4228515625 80.0439453125 l 25,4,-1
 61.9091796875 40.1953125 l 1049,5,-1
55.0234375 118.895507812 m 1025
285.641601562 18.61328125 m 2
 65.482421875 -0.6484375 l 2
 60.673828125 -1.0693359375 60.673828125 -1.0693359375 56.21875 -1.0693359375 c 0,0,0
 5.291015625 -1.0693359375 5.291015625 -1.0693359375 0.4814453125 53.89453125 c 0
 0.4580078125 54.162109375 0.4580078125 54.162109375 0.4365234375 54.427734375 c 0
 0.4150390625 54.6591796875 0.4150390625 54.6591796875 0.39453125 54.890625 c 0
 -2.0458984375 82.7841796875 -2.0458984375 82.7841796875 10.595703125 98.9130859375 c 0
 10.6728515625 99.0107421875 10.6728515625 99.0107421875 10.75 99.1083984375 c 0
 11.0703125 99.5126953125 11.0703125 99.5126953125 11.400390625 99.908203125 c 0
 25.87109375 117.34765625 25.87109375 117.34765625 54.9365234375 119.891601562 c 0
 61.91015625 120.501953125 61.91015625 120.501953125 68.2236328125 120.049804688 c 2
 262.513671875 137.047851562 l 2
 268.849609375 138.606445312 268.849609375 138.606445312 276.091796875 139.240234375 c 0
 296.05859375 140.987304688 296.05859375 140.987304688 310.614257812 134.03125 c 0
 333.181640625 124.670898438 333.181640625 124.670898438 339.350585938 96.09375 c 0
 340.567382812 90.705078125 340.567382812 90.705078125 341.092773438 84.697265625 c 0
 341.115234375 84.447265625 341.115234375 84.447265625 341.135742188 84.197265625 c 0
 341.158203125 83.9501953125 341.158203125 83.9501953125 341.1796875 83.701171875 c 0
 341.594726562 78.96484375 341.594726562 78.96484375 341.594726562 74.5703125 c 0,0,0
 341.594726562 23.5087890625 341.594726562 23.5087890625 285.641601562 18.61328125 c 2
EndSplineSet
Validated: 524291
EndChar

StartChar: eprost6
Encoding: 57478 57478 63
Width: 240
GlyphClass: 2
Flags: HW
LayerCount: 3
Fore
SplineSet
55.0244140625 120.248046875 m 1029,40,-1
199.633789062 73.6748046875 m 29,16,-1
 159.786132812 70.1884765625 l 29,17,-1
 177.966796875 91.85546875 l 29,18,-1
 181.453125 52.0078125 l 1053,19,-1
80.0908203125 63.2158203125 m 29,0,-1
 40.2431640625 59.7294921875 l 29,1,-1
 58.423828125 81.396484375 l 29,2,-1
 61.91015625 41.548828125 l 1053,3,-1
184.030273438 11.076171875 m 2
 65.4833984375 0.705078125 l 2
 60.6748046875 0.2841796875 60.6748046875 0.2841796875 56.21875 0.2841796875 c 0,0,0
 5.291015625 0.2841796875 5.291015625 0.2841796875 0.482421875 55.2470703125 c 0
 0.4638671875 55.458984375 0.4638671875 55.458984375 0.4462890625 55.6689453125 c 0
 0.419921875 55.955078125 0.419921875 55.955078125 0.39453125 56.2431640625 c 0
 -2.044921875 84.13671875 -2.044921875 84.13671875 10.5966796875 100.265625 c 0
 10.673828125 100.36328125 10.673828125 100.36328125 10.7509765625 100.4609375 c 0
 11.0654296875 100.857421875 11.0654296875 100.857421875 11.388671875 101.24609375 c 0
 25.859375 118.700195312 25.859375 118.700195312 54.9375 121.244140625 c 0
 61.91015625 121.854492188 61.91015625 121.854492188 68.2236328125 121.403320312 c 2
 160.905273438 129.51171875 l 2
 167.240234375 131.069335938 167.240234375 131.069335938 174.48046875 131.703125 c 0
 194.43359375 133.44921875 194.43359375 133.44921875 208.983398438 126.502929688 c 0
 231.607421875 117.130859375 231.607421875 117.130859375 237.76171875 88.4580078125 c 0
 238.9609375 83.11328125 238.9609375 83.11328125 239.481445312 77.1611328125 c 0
 239.499023438 76.962890625 239.499023438 76.962890625 239.515625 76.765625 c 0
 239.54296875 76.4658203125 239.54296875 76.4658203125 239.569335938 76.1650390625 c 0
 239.983398438 71.4296875 239.983398438 71.4296875 239.983398438 67.0361328125 c 0,0,0
 239.983398438 15.9716796875 239.983398438 15.9716796875 184.030273438 11.076171875 c 2
EndSplineSet
Validated: 524291
EndChar

StartChar: gorMKE
Encoding: 57551 57551 64
Width: 120
GlyphClass: 2
Flags: HW
LayerCount: 3
Fore
SplineSet
40 60 m 25,0,-1
 51 49 l 25,1,-1
 60 40 l 25,2,-1
 60 80 l 25,3,-1
 80 60 l 25,4,-1
 40 60 l 1049,5,-1
40 140 m 25,0,-1
 51 129 l 25,1,-1
 60 120 l 25,2,-1
 60 160 l 25,3,-1
 80 140 l 25,4,-1
 40 140 l 1049,5,-1
60 0 m 0
 32 0 32 0 16 16 c 0
 0 32 0 32 0 60 c 2
 0 80 l 1
 0 140 l 1
 0 193 l 1
 120 210 l 1
 120 162 l 1
 120 140 l 1
 120 60 l 2
 120 32 120 32 104 16 c 0
 88 0 88 0 60 0 c 0
EndSplineSet
Validated: 3
EndChar

StartChar: koloL
Encoding: 57442 57442 65
Width: 266
GlyphClass: 2
Flags: HW
LayerCount: 3
Fore
SplineSet
128 68 m 25,0,-1
 117 79 l 25,1,-1
 108 88 l 25,2,-1
 108 48 l 25,3,-1
 88 68 l 25,4,-1
 128 68 l 1049,5,-1
178 69 m 25,0,-1
 167 80 l 25,1,-1
 158 89 l 25,2,-1
 158 49 l 25,3,-1
 138 69 l 25,4,-1
 178 69 l 1049,5,-1
125 221 m 25,0,-1
 114 232 l 25,1,-1
 105 241 l 25,2,-1
 105 201 l 25,3,-1
 85 221 l 25,4,-1
 125 221 l 1049,5,-1
179 221 m 25,0,-1
 168 232 l 25,1,-1
 159 241 l 25,2,-1
 159 201 l 25,3,-1
 139 221 l 25,4,-1
 179 221 l 1049,5,-1
133.200195313 291.80078125 m 0
 180.799804688 291.80078125 180.799804688 291.80078125 223.600097656 252.200683594 c 0
 266.400390625 212.600585938 266.400390625 212.600585938 266.400390625 142.58092238 c 0
 266.400390625 72.5612588211 266.400390625 72.5612588211 220.000488281 35.7806294106 c 0
 208.188861297 26.417698609 208.188861297 26.417698609 196.636408322 19.4382099925 c 0
 192.564914163 16.4989559541 192.564914163 16.4989559541 187.72286363 14.3873564853 c 0
 158.624922011 -1.0000009502 158.624922011 -1.0000009502 131.200195313 -1 c 0
 88.7998046875 -1 88.7998046875 -1 44.3999023438 36.1334398077 c 0
 0 73.2668796153 0 73.2668796153 0 143.733537464 c 0
 0 214.200195312 0 214.200195312 42.8002929688 253.000488281 c 0
 85.6005859375 291.80078125 85.6005859375 291.80078125 133.200195313 291.80078125 c 0
EndSplineSet
Validated: 524291
EndChar

StartChar: gorZD.brzhd
Encoding: 57377 57377 66
Width: 430
GlyphClass: 2
Flags: HW
LayerCount: 3
Back
SplineSet
381.21875 1129.22265625 m 4,0,1
 431.319335938 1129.203125 431.319335938 1129.203125 459.352539062 1162.96972656 c 4,2,3
 486.319335938 1195.203125 486.319335938 1195.203125 486.477539062 1242.48632812 c 4,4,5
 486.319335938 1273.203125 486.319335938 1273.203125 459.352539062 1318.48144531 c 4,6,7
 430.319335938 1366.203125 430.319335938 1366.203125 381.21875 1365.84765625 c 4,8,9
 334.319335938 1366.203125 334.319335938 1366.203125 302.319335938 1322.703125 c 132,-1,10
 270.319335938 1279.203125 270.319335938 1279.203125 270.319335938 1238.703125 c 132,-1,11
 270.319335938 1198.203125 270.319335938 1198.203125 301.819335938 1163.703125 c 132,-1,12
 333.319335938 1129.203125 333.319335938 1129.203125 381.21875 1129.22265625 c 4,0,1
378.791015625 1490.15429688 m 4,13,14
 459.319335938 1490.203125 459.319335938 1490.203125 527.770507812 1427 c 4,15,16
 561.319335938 1396.203125 561.319335938 1396.203125 583.233398438 1348.46191406 c 4,17,18
 604.319335938 1300.203125 604.319335938 1300.203125 604.690429688 1248.203125 c 4,19,20
 604.319335938 1198.203125 604.319335938 1198.203125 581.614257812 1147.61132812 c 4,21,22
 558.319335938 1096.203125 558.319335938 1096.203125 528.581054688 1072.40625 c 4,23,24
 489.319335938 1041.203125 489.319335938 1041.203125 456.11328125 1025.04101562 c 4,25,26
 423.319335938 1009.203125 423.319335938 1009.203125 378.791015625 1009.25195312 c 132,-1,27
 334.319335938 1009.203125 334.319335938 1009.203125 300.251953125 1025.4453125 c 4,28,29
 266.319335938 1041.203125 266.319335938 1041.203125 229 1072.40625 c 4,30,31
 196.319335938 1100.203125 196.319335938 1100.203125 175.966796875 1148.42089844 c 4,32,33
 155.319335938 1197.203125 155.319335938 1197.203125 155.319335938 1248.203125 c 4,34,35
 155.319335938 1360.203125 155.319335938 1360.203125 229 1427 c 4,36,37
 299.319335938 1490.203125 299.319335938 1490.203125 378.791015625 1490.15429688 c 4,13,14
EndSplineSet
Fore
SplineSet
361 -79 m 25,0,-1
 350 -68 l 25,1,-1
 341 -59 l 25,2,-1
 341 -99 l 25,3,-1
 321 -79 l 25,4,-1
 361 -79 l 1049,5,-1
229 60 m 25,0,-1
 218 71 l 25,1,-1
 209 80 l 25,2,-1
 209 40 l 25,3,-1
 189 60 l 25,4,-1
 229 60 l 1049,5,-1
222 141 m 1
 298.012695312 216.025390625 298.012695312 216.025390625 298.012695312 331.981445312 c 0,0,0
 298.012695312 453 298.012695312 453 214.5 453 c 0
 120 453 120 453 120 343.5 c 0
 120 234 120 234 222 141 c 1
300 58 m 1
 322 18 322 18 374.5 -25.5 c 0
 378.301757812 -28.650390625 378.301757812 -28.650390625 381.592773438 -31.8876953125 c 0
 383.359375 -33.359375 383.359375 -33.359375 385 -35 c 0
 390.373046875 -40.373046875 390.373046875 -40.373046875 393.942382812 -47.099609375 c 0
 408.8046875 -71.123046875 408.8046875 -71.123046875 398.643554688 -99.380859375 c 0
 395.280273438 -112.541015625 395.280273438 -112.541015625 387.1171875 -121.755859375 c 0
 384.739257812 -125.34765625 384.739257812 -125.34765625 382 -129 c 0
 351.4453125 -148.641601562 351.4453125 -148.641601562 319.403320312 -136.430664062 c 0
 306.588867188 -133.002929688 306.588867188 -133.002929688 298.034179688 -125 c 0
 297.756835938 -124.739257812 297.756835938 -124.739257812 297.483398438 -124.474609375 c 0
 281.422851562 -113.115234375 281.422851562 -113.115234375 265 -94 c 0
 210.265625 -38.2333984375 210.265625 -38.2333984375 166.836914062 13.267578125 c 0
 166.430664062 13.62890625 166.430664062 13.62890625 166.034179688 14 c 0
 161.279296875 18.4658203125 161.279296875 18.4658203125 157.8515625 24.0234375 c 0
 0 214.794921875 0 214.794921875 0 346 c 0
 0 570 0 570 215 570 c 0
 430 570 430 570 430 340 c 0
 430 221 430 221 300 58 c 1
EndSplineSet
Validated: 524291
EndChar

StartChar: dolDv.brzhd
Encoding: 57378 57378 67
Width: 394
GlyphClass: 2
Flags: HW
LayerCount: 3
Fore
SplineSet
82 383 m 25,0,-1
 71 394 l 25,1,-1
 62 403 l 25,2,-1
 62 363 l 25,3,-1
 42 383 l 25,4,-1
 82 383 l 1049,5,-1
82 60 m 25,0,-1
 71 71 l 25,1,-1
 62 80 l 25,2,-1
 62 40 l 25,3,-1
 42 60 l 25,4,-1
 82 60 l 1049,5,-1
120.5 -17 m 0
 120.5 -219 120.5 -219 199 -219 c 0
 267.5 -219 267.5 -219 267.5 45.5 c 0
 267.5 310 267.5 310 199.5 310 c 0
 131.0234375 310 131.0234375 310 121.901367188 64.314453125 c 0
 122 62.1943359375 122 62.1943359375 122 60 c 0
 122 54.3974609375 122 54.3974609375 121.40625 49.283203125 c 0
 120.5 18.0166015625 120.5 18.0166015625 120.5 -17 c 0
120.021484375 326.66796875 m 1
 121.3984375 442 121.3984375 442 199.5 442 c 0
 394.000976562 442 394.000976562 442 394.000976562 53.4951171875 c 0,0,0
 394.000976562 -339 394.000976562 -339 197 -339 c 0
 0.5 -339 0.5 -339 0 -18 c 0
 0.5 236 0.5 236 0.5 339 c 0
 0.5 357.79296875 0.5 357.79296875 2.4970703125 373.15625 c 0
 2 377.874023438 2 377.874023438 2 383 c 0
 2 411 2 411 18 427 c 0
 34 443 34 443 62 443 c 0
 82.7822265625 443 82.7822265625 443 96.953125 434.185546875 c 0
 109.061523438 427.447265625 109.061523438 427.447265625 114.943359375 414.897460938 c 0
 122 401.594726562 122 401.594726562 122 383 c 0
 122 373.622070312 122 373.622070312 120.3359375 365.612304688 c 2
 120.021484375 326.66796875 l 1
EndSplineSet
Validated: 524291
EndChar

StartChar: luU1
Encoding: 57518 57518 69
Width: 586
GlyphClass: 2
Flags: HW
LayerCount: 3
Fore
SplineSet
80 60 m 25,0,-1
 69 71 l 25,1,-1
 60 80 l 25,2,-1
 60 40 l 25,3,-1
 40 60 l 25,4,-1
 80 60 l 1049,5,-1
546 780 m 25,0,-1
 535 791 l 25,1,-1
 526 800 l 25,2,-1
 526 760 l 25,3,-1
 506 780 l 25,4,-1
 546 780 l 1049,5,-1
194 -44 m 0
 465 -44 465 -44 465 780 c 1
 466 780 l 1
 466 808 466 808 482 824 c 0
 498 840 498 840 526 840 c 0
 554 840 554 840 570 824 c 0
 586 808 586 808 586 780 c 0
 585.007306889 -164.051148225 585.007306889 -164.051148225 196.736846292 -164.051148225 c 0,0,0
 193.878914405 -164.051148225 193.878914405 -164.051148225 191 -164 c 0
 0 -161 0 -161 0 60 c 0
 0 88 0 88 16 104 c 0
 32 120 32 120 60 120 c 0
 88 120 88 120 104 104 c 0
 120 88 120 88 120 60 c 0
 120 -44 120 -44 194 -44 c 0
EndSplineSet
Validated: 524291
EndChar

StartChar: luU3
Encoding: 57520 57520 70
Width: 881
GlyphClass: 2
Flags: HW
LayerCount: 3
Fore
SplineSet
80 60 m 25,0,-1
 69 71 l 25,1,-1
 60 80 l 25,2,-1
 60 40 l 25,3,-1
 40 60 l 25,4,-1
 80 60 l 1049,5,-1
836.654296875 508.229492188 m 25,0,-1
 832.627929688 523.255859375 l 25,1,-1
 829.333984375 535.549804688 l 25,2,-1
 809.333984375 500.909179688 l 25,3,-1
 802.012695312 528.229492188 l 25,4,-1
 836.654296875 508.229492188 l 1049,5,-1
245 -44 m 0
 245.30078125 -44.001953125 245.30078125 -44.001953125 245.602539062 -44.001953125 c 0,0,0
 424.576171875 -44.001953125 424.576171875 -44.001953125 766.504882812 548.728515625 c 1
 767.37109375 548.228515625 l 1
 767.372070312 548.229492188 l 2
 781.372070312 572.478515625 781.372070312 572.478515625 803.228515625 578.334960938 c 0
 825.084960938 584.19140625 825.084960938 584.19140625 849.333984375 570.19140625 c 0
 873.58203125 556.19140625 873.58203125 556.19140625 879.438476562 534.334960938 c 0
 885.294921875 512.478515625 885.294921875 512.478515625 871.294921875 488.229492188 c 0
 871.181640625 488.033203125 871.181640625 488.033203125 871.068359375 487.838867188 c 0
 493.502929688 -164.001953125 493.502929688 -164.001953125 242.767578125 -164.001953125 c 0,0,0
 242.383789062 -164.001953125 242.383789062 -164.001953125 242 -164 c 0
 1 -164 1 -164 0 60 c 0
 0 88 0 88 16 104 c 0
 32 120 32 120 60 120 c 0
 88 120 88 120 104 104 c 0
 120 88 120 88 120 60 c 1
 120.000976562 60 l 1
 121 -44 121 -44 245 -44 c 0
EndSplineSet
Validated: 524291
EndChar

StartChar: luU4
Encoding: 57521 57521 71
Width: 451
GlyphClass: 2
Flags: HW
LayerCount: 3
Fore
SplineSet
411 80 m 25,0,-1
 400 91 l 25,1,-1
 391 100 l 25,2,-1
 391 60 l 25,3,-1
 371 80 l 25,4,-1
 411 80 l 1049,5,-1
80 60 m 25,0,-1
 69 71 l 25,1,-1
 60 80 l 25,2,-1
 60 40 l 25,3,-1
 40 60 l 25,4,-1
 80 60 l 1049,5,-1
391 140 m 0
 419 140 419 140 435 124 c 0
 451 108 451 108 451 80 c 0
 451 -163.515125612 451 -163.515125612 226.395332259 -163.515125612 c 0,0,0
 225.948111371 -163.515125612 225.948111371 -163.515125612 225.5 -163.514160156 c 0
 0 -163.028320312 0 -163.028320312 0 60 c 0
 0 88 0 88 16 104 c 0
 32 120 32 120 60 120 c 0
 88 120 88 120 104 104 c 0
 120 88 120 88 120 60 c 0
 120 -44 120 -44 225.5 -44 c 0
 331 -44 331 -44 331 80 c 0
 331 108 331 108 347 124 c 0
 363 140 363 140 391 140 c 0
EndSplineSet
Validated: 524291
EndChar

StartChar: luU5
Encoding: 57522 57522 72
Width: 834
GlyphClass: 2
Flags: HW
LayerCount: 3
Fore
SplineSet
79.6259765625 52.14453125 m 25,0,-1
 75.599609375 67.1708984375 l 25,1,-1
 72.3056640625 79.46484375 l 25,2,-1
 52.3056640625 44.82421875 l 25,3,-1
 44.9853515625 72.14453125 l 25,4,-1
 79.6259765625 52.14453125 l 1049,5,-1
789.87890625 707.907226562 m 25,0,-1
 785.852539062 722.93359375 l 25,1,-1
 782.557617188 735.227539062 l 25,2,-1
 762.557617188 700.586914062 l 25,3,-1
 755.237304688 727.907226562 l 25,4,-1
 789.87890625 707.907226562 l 1049,5,-1
401.126953125 608.999023438 m 25,0,-1
 397.100585938 624.025390625 l 25,1,-1
 393.805664062 636.3203125 l 25,2,-1
 373.805664062 601.678710938 l 25,3,-1
 366.485351562 628.999023438 l 25,4,-1
 401.126953125 608.999023438 l 1049,5,-1
802.557617188 769.869140625 m 0
 826.806640625 755.869140625 826.806640625 755.869140625 832.663085938 734.012695312 c 0
 838.51953125 712.15625 838.51953125 712.15625 824.51953125 687.907226562 c 1
 824.51953125 687.907226562 l 1
 716.095703125 313.143554688 716.095703125 313.143554688 524.815429688 313.143554688 c 0,0,0
 377.198242188 313.143554688 377.198242188 313.143554688 331.267578125 408 c 1
 114.267578125 32.14453125 l 1
 114.266601562 32.14453125 l 1
 114.266601562 32.14453125 l 2
 99.2666015625 6.1640625 99.2666015625 6.1640625 76.5146484375 0.8251953125 c 0
 56.5546875 -3.81640625 56.5546875 -3.81640625 32.3056640625 10.18359375 c 0
 8.056640625 24.18359375 8.056640625 24.18359375 2.095703125 43.791015625 c 0
 -4.65625 66.1640625 -4.65625 66.1640625 10.34375 92.14453125 c 0
 166.267578125 362 166.267578125 362 331.84375 648.999023438 c 1
 331.844726562 648.999023438 l 1
 331.844726562 648.999023438 l 2
 345.844726562 673.248046875 345.844726562 673.248046875 367.701171875 679.104492188 c 0
 389.557617188 684.9609375 389.557617188 684.9609375 413.805664062 670.9609375 c 0
 438.0546875 656.9609375 438.0546875 656.9609375 443.911132812 635.104492188 c 0
 449.767578125 613.248046875 449.767578125 613.248046875 435.767578125 588.999023438 c 0
 432.111328125 582.666992188 432.111328125 582.666992188 427.995117188 577.560546875 c 0
 422.736328125 569.173828125 422.736328125 569.173828125 422.267578125 565.616210938 c 0
 422.267578125 429.564453125 422.267578125 429.564453125 514.627929688 429.564453125 c 0,0,0
 515.010742188 429.564453125 515.010742188 429.564453125 515.395507812 429.56640625 c 0
 629.31640625 429.046875 629.31640625 429.046875 710.435546875 709.51953125 c 1
 708.879882812 727.61328125 708.879882812 727.61328125 720.596679688 747.907226562 c 0
 734.596679688 772.15625 734.596679688 772.15625 756.453125 778.012695312 c 0
 778.309570312 783.869140625 778.309570312 783.869140625 802.557617188 769.869140625 c 0
EndSplineSet
Validated: 524323
EndChar

StartChar: luUa0
Encoding: 57523 57523 73
Width: 454
GlyphClass: 2
Flags: HW
LayerCount: 3
Fore
SplineSet
40 59.97265625 m 25,0,-1
 51 48.97265625 l 25,1,-1
 60 39.97265625 l 25,2,-1
 60 79.97265625 l 25,3,-1
 80 59.97265625 l 25,4,-1
 40 59.97265625 l 1049,5,-1
374 779.97265625 m 25,0,-1
 385 768.97265625 l 25,1,-1
 394 759.97265625 l 25,2,-1
 394 799.97265625 l 25,3,-1
 414 779.97265625 l 25,4,-1
 374 779.97265625 l 1049,5,-1
60 -0.02734375 m 0
 32 -0.02734375 32 -0.02734375 16 15.97265625 c 0
 0 31.97265625 0 31.97265625 0 59.97265625 c 0
 0.9951171875 1003.99902344 0.9951171875 1003.99902344 285.989257812 1003.99902344 c 0,0,0
 287.490234375 1003.99902344 287.490234375 1003.99902344 289 1003.97265625 c 0
 454 1000.97265625 454 1000.97265625 454 779.97265625 c 0
 454 751.97265625 454 751.97265625 438 735.97265625 c 0
 422 719.97265625 422 719.97265625 394 719.97265625 c 0
 366 719.97265625 366 719.97265625 350 735.97265625 c 0
 334 751.97265625 334 751.97265625 334 779.97265625 c 0
 334 883.97265625 334 883.97265625 286 883.97265625 c 0
 121 883.97265625 121 883.97265625 121 59.97265625 c 1
 120 59.97265625 l 1
 120 31.97265625 120 31.97265625 104 15.97265625 c 0
 88 -0.02734375 88 -0.02734375 60 -0.02734375 c 0
EndSplineSet
Validated: 524291
EndChar

StartChar: luUa1
Encoding: 57524 57524 74
Width: 586
GlyphClass: 2
Flags: HW
LayerCount: 3
Fore
SplineSet
40 59.9501953125 m 25,0,-1
 51 48.9501953125 l 25,1,-1
 60 39.9501953125 l 25,2,-1
 60 79.9501953125 l 25,3,-1
 80 59.9501953125 l 25,4,-1
 40 59.9501953125 l 1049,5,-1
506 779.950195312 m 25,0,-1
 517 768.950195312 l 25,1,-1
 526 759.950195312 l 25,2,-1
 526 799.950195312 l 25,3,-1
 546 779.950195312 l 25,4,-1
 506 779.950195312 l 1049,5,-1
60 -0.0498046875 m 0
 32 -0.0498046875 32 -0.0498046875 16 15.9501953125 c 0
 0 31.9501953125 0 31.9501953125 0 59.9501953125 c 0
 0.9931640625 1004.00097656 0.9931640625 1004.00097656 389.262695312 1004.00097656 c 0,0,0
 392.12109375 1004.00097656 392.12109375 1004.00097656 395 1003.95019531 c 0
 586 1000.95019531 586 1000.95019531 586 779.950195312 c 0
 586 751.950195312 586 751.950195312 570 735.950195312 c 0
 554 719.950195312 554 719.950195312 526 719.950195312 c 0
 498 719.950195312 498 719.950195312 482 735.950195312 c 0
 466 751.950195312 466 751.950195312 466 779.950195312 c 0
 466 883.950195312 466 883.950195312 392 883.950195312 c 0
 121 883.950195312 121 883.950195312 121 59.9501953125 c 1
 120 59.9501953125 l 1
 120 31.9501953125 120 31.9501953125 104 15.9501953125 c 0
 88 -0.0498046875 88 -0.0498046875 60 -0.0498046875 c 0
EndSplineSet
Validated: 524291
EndChar

StartChar: luUa2
Encoding: 57525 57525 75
Width: 773
GlyphClass: 2
Flags: HW
LayerCount: 3
Fore
SplineSet
691.16015625 521.096679688 m 25,0,-1
 701.159179688 509.1796875 l 25,1,-1
 709.340820312 499.4296875 l 25,2,-1
 712.827148438 539.27734375 l 25,3,-1
 731.0078125 517.610351562 l 25,4,-1
 691.16015625 521.096679688 l 1049,5,-1
44.5126953125 72.8291015625 m 25,0,-1
 48.5390625 57.802734375 l 25,1,-1
 51.8330078125 45.5087890625 l 25,2,-1
 71.8330078125 80.1494140625 l 25,3,-1
 79.1533203125 52.8291015625 l 25,4,-1
 44.5126953125 72.8291015625 l 1049,5,-1
705.854492188 459.58203125 m 0
 677.9609375 462.022460938 677.9609375 462.022460938 663.416015625 479.35546875 c 0
 648.872070312 496.689453125 648.872070312 496.689453125 651.3125 524.583007812 c 1
 651.311523438 524.583007812 l 2
 651.311523438 524.588867188 651.311523438 524.588867188 651.313476562 524.594726562 c 0
 651.91015625 531.405273438 651.91015625 531.405273438 653.32421875 537.415039062 c 0
 656.560546875 560.348632812 656.560546875 560.348632812 656.560546875 579.551757812 c 0,0,0
 656.560546875 639.946289062 656.560546875 639.946289062 624.555664062 663.434570312 c 0
 615.65625 669.7890625 615.65625 669.7890625 604.169921875 669.7890625 c 0,0,0
 489.1328125 669.7890625 489.1328125 669.7890625 114.661132812 32.3291015625 c 1
 113.794921875 32.8291015625 l 1
 113.794921875 32.8291015625 l 2
 99.794921875 8.580078125 99.794921875 8.580078125 77.9384765625 2.7236328125 c 0
 56.08203125 -3.1328125 56.08203125 -3.1328125 31.8330078125 10.8671875 c 0
 7.583984375 24.8671875 7.583984375 24.8671875 1.7275390625 46.7236328125 c 0
 -4.12890625 68.580078125 -4.12890625 68.580078125 9.87109375 92.8291015625 c 0
 9.9423828125 92.953125 9.9423828125 92.953125 10.0146484375 93.0771484375 c 0
 408.448242188 785.674804688 408.448242188 785.674804688 608.526367188 785.674804688 c 0,0,0
 638.206054688 785.674804688 638.206054688 785.674804688 663.521484375 770.434570312 c 0
 773.04296875 704.721679688 773.04296875 704.721679688 773.04296875 557.396484375 c 0,0,0
 773.04296875 536.575195312 773.04296875 536.575195312 770.85546875 514.124023438 c 0
 768.415039062 486.23046875 768.415039062 486.23046875 751.081054688 471.686523438 c 0
 733.748046875 457.141601562 733.748046875 457.141601562 705.854492188 459.58203125 c 0
EndSplineSet
Validated: 524291
EndChar

StartChar: luUa3
Encoding: 57526 57526 76
Width: 881
GlyphClass: 2
Flags: HW
LayerCount: 3
Fore
SplineSet
44.51171875 74.095703125 m 25,0,-1
 48.5380859375 59.0693359375 l 25,1,-1
 51.83203125 46.775390625 l 25,2,-1
 71.83203125 81.416015625 l 25,3,-1
 79.1533203125 54.095703125 l 25,4,-1
 44.51171875 74.095703125 l 1049,5,-1
801.166015625 522.325195312 m 25,0,-1
 812.166015625 511.325195312 l 25,1,-1
 821.166015625 502.325195312 l 25,2,-1
 821.166015625 542.325195312 l 25,3,-1
 841.166015625 522.325195312 l 25,4,-1
 801.166015625 522.325195312 l 1049,5,-1
31.83203125 12.1337890625 m 0
 7.583984375 26.1337890625 7.583984375 26.1337890625 1.7275390625 47.990234375 c 0
 -4.12890625 69.8466796875 -4.12890625 69.8466796875 9.87109375 94.095703125 c 0
 9.984375 94.2919921875 9.984375 94.2919921875 10.09765625 94.486328125 c 0
 387.662109375 746.327148438 387.662109375 746.327148438 638.3984375 746.327148438 c 0,0,0
 638.782226562 746.327148438 638.782226562 746.327148438 639.166015625 746.325195312 c 0
 880.166015625 746.325195312 880.166015625 746.325195312 881.166015625 522.325195312 c 0
 881.166015625 494.325195312 881.166015625 494.325195312 865.166015625 478.325195312 c 0
 849.166015625 462.325195312 849.166015625 462.325195312 821.166015625 462.325195312 c 0
 793.166015625 462.325195312 793.166015625 462.325195312 777.166015625 478.325195312 c 0
 761.166015625 494.325195312 761.166015625 494.325195312 761.166015625 522.325195312 c 1
 761.165039062 522.325195312 l 1
 760.166015625 626.325195312 760.166015625 626.325195312 636.166015625 626.325195312 c 0
 635.865234375 626.327148438 635.865234375 626.327148438 635.563476562 626.327148438 c 0,0,0
 456.58984375 626.327148438 456.58984375 626.327148438 114.661132812 33.5966796875 c 1
 113.793945312 34.0966796875 l 1
 113.793945312 34.095703125 l 2
 99.7939453125 9.8466796875 99.7939453125 9.8466796875 77.9375 3.990234375 c 0
 56.0810546875 -1.8662109375 56.0810546875 -1.8662109375 31.83203125 12.1337890625 c 0
EndSplineSet
Validated: 524291
EndChar

StartChar: luUa4
Encoding: 57527 57527 77
Width: 451
GlyphClass: 2
Flags: HW
LayerCount: 3
Fore
SplineSet
371 79 m 25,0,-1
 382 68 l 25,1,-1
 391 59 l 25,2,-1
 391 99 l 25,3,-1
 411 79 l 25,4,-1
 371 79 l 1049,5,-1
40 59 m 25,0,-1
 51 48 l 25,1,-1
 60 39 l 25,2,-1
 60 79 l 25,3,-1
 80 59 l 25,4,-1
 40 59 l 1049,5,-1
391 19 m 0
 363 19 363 19 347 35 c 0
 331 51 331 51 331 79 c 0
 331 183 331 183 226 183 c 0
 120 183 120 183 120 59 c 0
 120 31 120 31 104 15 c 0
 88 -1 88 -1 60 -1 c 0
 32 -1 32 -1 16 15 c 0
 0 31 0 31 0 59 c 0
 0 303 0 303 229 303 c 0
 451 302.028320312 451 302.028320312 451 79 c 0
 451 51 451 51 435 35 c 0
 419 19 419 19 391 19 c 0
EndSplineSet
Validated: 524291
EndChar

StartChar: luKLY
Encoding: 57454 57454 78
Width: 334
GlyphClass: 2
Flags: HW
LayerCount: 3
Fore
SplineSet
179 154 m 25,0,-1
 168 165 l 25,1,-1
 159 174 l 25,2,-1
 159 134 l 25,3,-1
 139 154 l 25,4,-1
 179 154 l 1049,5,-1
125 154 m 25,0,-1
 114 165 l 25,1,-1
 105 174 l 25,2,-1
 105 134 l 25,3,-1
 85 154 l 25,4,-1
 125 154 l 1049,5,-1
178 2 m 25,0,-1
 167 13 l 25,1,-1
 158 22 l 25,2,-1
 158 -18 l 25,3,-1
 138 2 l 25,4,-1
 178 2 l 1049,5,-1
128 1 m 25,0,-1
 117 12 l 25,1,-1
 108 21 l 25,2,-1
 108 -19 l 25,3,-1
 88 1 l 25,4,-1
 128 1 l 1049,5,-1
277.501953125 60 m 25,0,-1
 266.501953125 71 l 25,1,-1
 257.501953125 80 l 25,2,-1
 257.501953125 40 l 25,3,-1
 237.501953125 60 l 25,4,-1
 277.501953125 60 l 1049,5,-1
293.501953125 174 m 25,0,-1
 282.501953125 185 l 25,1,-1
 273.501953125 194 l 25,2,-1
 273.501953125 154 l 25,3,-1
 253.501953125 174 l 25,4,-1
 293.501953125 174 l 1049,5,-1
273.501953125 234 m 0
 301.501953125 234 301.501953125 234 317.501953125 218 c 0
 333.501953125 202 333.501953125 202 333.501953125 174 c 1
 333.626953125 174 l 1
 333.501953125 171 333.501953125 171 333.251953125 139.625 c 0
 333.487224039 -48.8533459127 333.487224039 -48.8533459127 166.509687623 -62.0123230201 c 1
 149.081529009 -68.0000011163 149.081529009 -68.0000011163 132.799804688 -68 c 0
 104.907397681 -68 104.907397681 -68 76.6935872996 -52.8901117252 c 0
 73.6883365919 -51.456609766 73.6883365919 -51.456609766 70.9962121672 -49.6867788959 c 0
 57.534605945 -41.7590427668 57.534605945 -41.7590427668 44 -30.3994140625 c 0
 24.7998046875 -14.3994140625 24.7998046875 -14.3994140625 12.400390625 14.80078125 c 0
 0 44 0 44 0 78.400390625 c 0
 0 147.200195312 0 147.200195312 44 187.200195312 c 0
 85.6005859375 224.80078125 85.6005859375 224.80078125 132.799804688 224.80078125 c 0
 177.605441082 224.80078125 177.605441082 224.80078125 215.440434932 192.038250748 c 1
 219.071128012 207.569174887 219.071128012 207.569174887 229.501953125 218 c 0
 245.501953125 234 245.501953125 234 273.501953125 234 c 0
EndSplineSet
Validated: 524323
EndChar

StartChar: dolMK45
Encoding: 7 7 79
Width: 120
GlyphClass: 2
Flags: HW
LayerCount: 3
Fore
SplineSet
119.46875 28 m 1
 0 -80 l 1
 0 81 l 2
 0 140 0 140 60 140 c 0
 120 140 120 140 120 81 c 0
 120 54 120 54 119.46875 28 c 1
EndSplineSet
Refer: 46 57346 N 1 0 0 1 0.4688 0 2
Refer: 46 57346 N 1 0 0 1 0.46875 20 2
Validated: 4718603
EndChar

StartChar: dolTW.alt
Encoding: 7 7 80
Width: 240
GlyphClass: 2
Flags: HW
LayerCount: 3
Fore
SplineSet
199 60 m 25,0,-1
 188 71 l 25,1,-1
 179 80 l 25,2,-1
 179 40 l 25,3,-1
 159 60 l 25,4,-1
 199 60 l 1049,5,-1
80 120 m 25,0,-1
 69 131 l 25,1,-1
 60 140 l 25,2,-1
 60 100 l 25,3,-1
 40 120 l 25,4,-1
 80 120 l 1049,5,-1
120 110 m 0
 110.502929688 54.005859375 110.502929688 54.005859375 115.251953125 63.5029296875 c 0
 117.611328125 68.2236328125 117.611328125 68.2236328125 120.404296875 75.5380859375 c 0
 122.1953125 84.775390625 122.1953125 84.775390625 126.271484375 92.2978515625 c 0
 126.385742188 92.6474609375 126.385742188 92.6474609375 126.5 93 c 0
 133 113 133 113 160 118.5 c 0
 187 124 187 124 213.5 113 c 0
 240 102 240 102 240 61 c 0
 239 -53 239 -53 119 -52.8076171875 c 0
 0 -53 0 -53 0 118 c 0
 0 118.532226562 0 118.532226562 0.00390625 119.059570312 c 0
 -0 119.528320312 -0 119.528320312 0 120 c 0
 0 126.802734375 0 126.802734375 0.9443359375 132.896484375 c 0
 6.220703125 171.6015625 6.220703125 171.6015625 40.97265625 177.822265625 c 0
 49.669921875 180 49.669921875 180 60 180 c 0
 88 180 88 180 104 164 c 0
 120 148 120 148 120 120 c 0
 120 116.298828125 120 116.298828125 119.741210938 112.811523438 c 0
 119.881835938 111.419921875 119.881835938 111.419921875 120 110 c 0
EndSplineSet
Validated: 4718627
EndChar

StartChar: gorMK45
Encoding: 57552 57552 81
Width: 120
GlyphClass: 2
Flags: HW
LayerCount: 3
Fore
SplineSet
40 60 m 25,0,-1
 51 49 l 25,1,-1
 60 40 l 25,2,-1
 60 80 l 25,3,-1
 80 60 l 25,4,-1
 40 60 l 1049,5,-1
40 80 m 25,0,-1
 51 69 l 25,1,-1
 60 60 l 25,2,-1
 60 100 l 25,3,-1
 80 80 l 25,4,-1
 40 80 l 1049,5,-1
1 112 m 1
 120.46875 220 l 1
 120.46875 59 l 2
 120.46875 0 120.46875 0 60.46875 0 c 0
 60.345703125 0 60.345703125 0 60.2236328125 0 c 0
 60.111328125 0 60.111328125 0 60 0 c 0
 57.87109375 0 57.87109375 0 55.8125 0.0927734375 c 0
 9.533203125 1.96875 9.533203125 1.96875 1.953125 41.8974609375 c 0
 0 50.2158203125 0 50.2158203125 0 60 c 0
 0 65.0888671875 0 65.0888671875 0.490234375 69.7744140625 c 0
 0.4912109375 70.15625 0.4912109375 70.15625 0.4931640625 70.5380859375 c 0
 0 75.083984375 0 75.083984375 0 80 c 0
 0 85.9189453125 0 85.9189453125 0.6630859375 91.29296875 c 0
 0.7900390625 101.724609375 0.7900390625 101.724609375 1 112 c 1
EndSplineSet
Validated: 524291
EndChar

StartChar: okredzi
Encoding: 57504 57504 82
Width: 302
GlyphClass: 2
Flags: HW
LayerCount: 3
Fore
SplineSet
84 60 m 25,0,-1
 73 71 l 25,1,-1
 64 80 l 25,2,-1
 64 40 l 25,3,-1
 44 60 l 25,4,-1
 84 60 l 1049,5,-1
260 246 m 25,0,-1
 249 257 l 25,1,-1
 240 266 l 25,2,-1
 240 226 l 25,3,-1
 220 246 l 25,4,-1
 260 246 l 1049,5,-1
80 436 m 25,0,-1
 69 447 l 25,1,-1
 60 456 l 25,2,-1
 60 416 l 25,3,-1
 40 436 l 25,4,-1
 80 436 l 1049,5,-1
63.8600589044 119.999899977 m 0
 63.8600589044 120.175731238 63.8600589044 120.175731238 63.861328125 120.3515625 c 0
 113 120 113 120 146.5 152 c 0
 178.790041586 182.844218829 178.790041586 182.844218829 180.420832598 236.915142618 c 0
 180.000000028 241.28463501 180.000000028 241.28463501 180 246 c 0
 180 249.08002655 180 249.08002655 180.193602598 252.014850548 c 0
 176.927094276 301.827550701 176.927094276 301.827550701 139.5 337 c 0
 100.489402636 373.660561378 100.489402636 373.660561378 64.448965702 376.091791103 c 0
 62.2672117918 376.000000941 62.2672117918 376.000000941 60 376 c 0
 32 376 32 376 17.0341796875 390 c 0
 0 406 0 406 0 436 c 0
 0 464 0 464 16 480 c 0
 31.8365512609 495.836551261 31.8365512609 495.836551261 59.4291817016 495.998330282 c 0
 59.4291817016 496.334126078 59.4291817016 496.334126078 59.4267578125 496.669921875 c 1
 159 496 159 496 230 426 c 0
 301.503472222 355.503618936 301.503472222 355.503618936 301.503472222 247.515625 c 0,0,0
 301.503472222 141.506944444 301.503472222 141.506944444 230.5 71 c 0
 159 0 159 0 63.4267578125 -0.0546875 c 1
 63.4267578125 -0.0266072593005 63.4267578125 -0.0266072593005 63.4269605069 0.00147298139901 c 1
 35.8464905414 0.143602714411 35.8464905414 0.143602714411 21.0341796875 14 c 0
 4 30 4 30 4 60 c 0
 4 88 4 88 20 104 c 0
 35.9599953963 119.959995396 35.9599953963 119.959995396 63.8600589044 119.999899977 c 0
EndSplineSet
Validated: 524291
EndChar

StartChar: okrodzi
Encoding: 57505 57505 83
Width: 399
GlyphClass: 2
Flags: HW
LayerCount: 3
Fore
SplineSet
157 60 m 25,0,-1
 146 71 l 25,1,-1
 137 80 l 25,2,-1
 137 40 l 25,3,-1
 117 60 l 25,4,-1
 157 60 l 1049,5,-1
336 165 m 25,0,-1
 325 176 l 25,1,-1
 316 185 l 25,2,-1
 316 145 l 25,3,-1
 296 165 l 25,4,-1
 336 165 l 1049,5,-1
80 448 m 25,0,-1
 69 459 l 25,1,-1
 60 468 l 25,2,-1
 60 428 l 25,3,-1
 40 448 l 25,4,-1
 80 448 l 1049,5,-1
136.902051276 119.999951015 m 0
 136.902051276 120.175756757 136.902051276 120.175756757 136.903320312 120.3515625 c 0
 137.42465938 120.348461086 137.42465938 120.348461086 137.944590089 120.348461086 c 0,0,0
 196.361693786 120.348461086 196.361693786 120.348461086 237 159.5 c 0
 277.023809524 198.05952381 277.023809524 198.05952381 277.023809524 274.260487528 c 0,0,0
 277.023809524 356.138851802 277.023809524 356.138851802 222.5 402 c 0
 198.039702541 422.574081975 198.039702541 422.574081975 168.892890215 422.574081975 c 0,0,0
 134.289273418 422.574081975 134.289273418 422.574081975 93.080078125 393.575195312 c 1
 92.4216743155 394.65892075 l 1
 79.3106075001 388 79.3106075001 388 60 388 c 0
 32 388 32 388 17.0341796875 402 c 0
 0 418 0 418 0 448 c 0
 0 476 0 476 16 492 c 0
 21.655489553 497.655489553 21.655489553 497.655489553 28.8102561081 501.311942695 c 0
 89.3390697911 547.12951686 89.3390697911 547.12951686 157.831198435 547.12951686 c 0,0,0
 182.882929448 547.12951686 182.882929448 547.12951686 209 541 c 0
 399.498469443 494.879317924 399.498469443 494.879317924 399.498469443 275.195951876 c 0,0,0
 399.498469443 197.230106021 399.498469443 197.230106021 372.566459836 140.88417227 c 0
 369.482227583 131.320389707 369.482227583 131.320389707 363.627535057 124.033584662 c 0
 349.389482983 99.7484238401 349.389482983 99.7484238401 329.5 80 c 0
 264.833115271 15.7917456593 264.833115271 15.7917456593 156.3888367 2.01951786577 c 0
 147.688223428 0.0123906701693 147.688223428 0.0123906701693 137.130413213 7.60118129453e-05 c 0
 136.799771475 -0.0275244932577 136.799771475 -0.0275244932577 136.46875 -0.0546875 c 1
 136.46875 -0.0267114645867 136.46875 -0.0267114645867 136.468951942 0.00126457082654 c 1
 108.857764472 0.133056347355 108.857764472 0.133056347355 94.0341796875 14 c 0
 77 30 77 30 77 60 c 0
 77 88 77 88 93 104 c 0
 108.972004153 119.972004153 108.972004153 119.972004153 136.902051276 119.999951015 c 0
EndSplineSet
Validated: 524291
EndChar

StartChar: okreci
Encoding: 57497 57497 84
Width: 411
GlyphClass: 2
Flags: HW
LayerCount: 3
Fore
SplineSet
60 738 m 25,49,-1
 60 698 l 25,50,-1
 40 718 l 25,51,-1
 80 718 l 1049,52,-1
60 80 m 25,33,-1
 60 40 l 25,34,-1
 40 60 l 25,35,-1
 80 60 l 1049,36,-1
351 422 m 25,17,-1
 351 382 l 25,18,-1
 331 402 l 25,19,-1
 371 402 l 1049,20,-1
0 718 m 0
 0 778 0 778 60 778 c 0
 60.0660248844 778 60.0660248844 778 60.131977114 777.999927345 c 1
 60.131977114 778.376916798 60.131977114 778.376916798 60.1328125 778.75390625 c 0
 60.4599446097 778.754436352 60.4599446097 778.754436352 60.7868337354 778.754436352 c 0,0,0
 212.214329675 778.754436352 212.214329675 778.754436352 311.5 665 c 0
 408.399577024 553.979379088 408.399577024 553.979379088 410.932039292 405.970642432 c 0
 410.999998903 404.019301012 410.999998903 404.019301012 411 402 c 0
 411 401.327283386 411 401.327283386 410.992455076 400.662109219 c 0
 411.000002463 399.332533753 411.000002463 399.332533753 411 398 c 0
 411 245 411 245 312.5 123 c 0
 219.359574946 7.63825526266 219.359574946 7.63825526266 76.7133099849 1.36119991852 c 0
 69.0372547683 3.51416030941e-07 69.0372547683 3.51416030941e-07 60 0 c 0
 0 0 0 0 0 60 c 0
 0 120 0 120 60 120 c 0
 66.2174500097 120 66.2174500097 120 71.7906219421 119.355721918 c 0
 180.475008958 125.955442499 180.475008958 125.955442499 263.5 255 c 0
 290.067274475 296.948328118 290.067274475 296.948328118 291.868932248 388.427889431 c 0
 291.000000104 394.779478642 291.000000104 394.779478642 291 402 c 0
 291 409.226602968 291 409.226602968 291.870396473 415.582809429 c 0
 290.095032917 506.585312516 290.095032917 506.585312516 264 542 c 0
 181.297388529 653.220753358 181.297388529 653.220753358 71.4852965123 658.609518811 c 0
 66.0474077571 657.999999799 66.0474077571 657.999999799 60 658 c 0
 0 658 0 658 0 718 c 0
EndSplineSet
Validated: 524291
EndChar

StartChar: luNgor
Encoding: 57529 57529 85
Width: 452
VWidth: 2998
GlyphClass: 2
Flags: HW
LayerCount: 3
Fore
SplineSet
372 104.995117188 m 25,0,-1
 383 93.9951171875 l 25,1,-1
 392 84.9951171875 l 25,2,-1
 392 124.995117188 l 25,3,-1
 412 104.995117188 l 25,4,-1
 372 104.995117188 l 1049,5,-1
40 59.9951171875 m 25,0,-1
 51 48.9951171875 l 25,1,-1
 60 39.9951171875 l 25,2,-1
 60 79.9951171875 l 25,3,-1
 80 59.9951171875 l 25,4,-1
 40 59.9951171875 l 1049,5,-1
392 44.9951171875 m 0
 364 44.9951171875 364 44.9951171875 348 60.9951171875 c 0
 344.218453738 64.7766634492 344.218453738 64.7766634492 341.330663235 69.2285265296 c 1
 341 68.9951171875 l 1
 303.175438596 111.117924205 303.175438596 111.117924205 250.570944906 111.117924205 c 0,0,0
 241.98245614 111.117924205 241.98245614 111.117924205 233 109.995117188 c 0
 148 98.9951171875 148 98.9951171875 117 35.9951171875 c 1
 116.434359247 36.2332817149 l 1
 112.446838275 24.4419554626 112.446838275 24.4419554626 104 15.9951171875 c 0
 88 -0.0048828125 88 -0.0048828125 60 -0.0048828125 c 0
 32 -0.0048828125 32 -0.0048828125 16 15.9951171875 c 0
 0 31.9951171875 0 31.9951171875 0 59.9951171875 c 0
 0 73.297957342 0 73.297957342 3.34940342489 83.847999956 c 1
 3 83.9951171875 l 1
 3.73308582459 85.5834698074 3.73308582459 85.5834698074 4.49602853014 87.1250841725 c 0
 7.85053237199 95.8674735836 7.85053237199 95.8674735836 13.707843115 102.55286393 c 0
 15.309256285 104.778481659 15.309256285 104.778481659 17 106.864257812 c 0
 92 216.995117188 92 216.995117188 198 230.995117188 c 0
 231.652538219 235.518325072 231.652538219 235.518325072 261.115930526 235.518325072 c 0,0,0
 383.983210184 235.518325072 383.983210184 235.518325072 434 156.858398438 c 0
 437.315246027 150.341220457 437.315246027 150.341220457 441.317421216 143.730126864 c 0
 451.99999935 128.752504307 451.99999935 128.752504307 452 104.995117188 c 0
 452 76.9951171875 452 76.9951171875 436 60.9951171875 c 0
 420 44.9951171875 420 44.9951171875 392 44.9951171875 c 0
EndSplineSet
Validated: 524291
EndChar

StartChar: luNOdol
Encoding: 57530 57530 86
Width: 776
GlyphClass: 2
Flags: HW
LayerCount: 3
Fore
SplineSet
80 60 m 25,0,-1
 69 71 l 25,1,-1
 60 80 l 25,2,-1
 60 40 l 25,3,-1
 40 60 l 25,4,-1
 80 60 l 1049,5,-1
736 105 m 25,0,-1
 725 116 l 25,1,-1
 716 125 l 25,2,-1
 716 85 l 25,3,-1
 696 105 l 25,4,-1
 736 105 l 1049,5,-1
111 96 m 1
 203.885106383 -1.43829787234 203.885106383 -1.43829787234 361.038026256 -1.43829787234 c 0,0,0
 376.459574468 -1.43829787234 376.459574468 -1.43829787234 392.5 -0.5 c 0
 572 10 572 10 659 129 c 1
 659.565640753 128.761835473 l 1
 663.553161725 140.553161725 663.553161725 140.553161725 672 149 c 0
 688 165 688 165 716 165 c 0
 744 165 744 165 760 149 c 0
 776 133 776 133 776 105 c 0
 776 91.6971598455 776 91.6971598455 772.650596575 81.1471172315 c 1
 773 81 l 2
 772.344183629 79.4260407085 772.344183629 79.4260407085 771.344289134 77.4586459901 c 0
 768.208833141 69.4730677348 768.208833141 69.4730677348 762.961757236 63.2229803917 c 0
 755.468158151 51.5210166618 755.468158151 51.5210166618 743 34.130859375 c 0
 631.08203125 -122.6875 631.08203125 -122.6875 382.541015625 -127.84375 c 0
 373.780925357 -128.02548747 373.780925357 -128.02548747 365.185488723 -128.02548747 c 0,0,0
 129.911457638 -128.02548747 129.911457638 -128.02548747 18 8.13671875 c 0
 13.2138538065 15.0447696018 13.2138538065 15.0447696018 9.3794193136 23.1863238711 c 0
 -1.91140987482e-08 37.7387975569 -1.91140987482e-08 37.7387975569 0 60 c 0
 0 88 0 88 16 104 c 0
 32 120 32 120 60 120 c 0
 88 120 88 120 104 104 c 0
 107.781546262 100.218453738 107.781546262 100.218453738 110.669336765 95.7665906579 c 1
 111 96 l 1
EndSplineSet
Validated: 524291
EndChar

StartChar: luONgor
Encoding: 57531 57531 87
Width: 776
GlyphClass: 2
Flags: HW
LayerCount: 3
Fore
SplineSet
40 59.5869140625 m 25,0,-1
 51 48.5869140625 l 25,1,-1
 60 39.5869140625 l 25,2,-1
 60 79.5869140625 l 25,3,-1
 80 59.5869140625 l 25,4,-1
 40 59.5869140625 l 1049,5,-1
696 104.586914062 m 25,0,-1
 707 93.5869140625 l 25,1,-1
 716 84.5869140625 l 25,2,-1
 716 124.586914062 l 25,3,-1
 736 104.586914062 l 25,4,-1
 696 104.586914062 l 1049,5,-1
60 -0.4130859375 m 0
 32 -0.4130859375 32 -0.4130859375 16 15.5869140625 c 0
 0 31.5869140625 0 31.5869140625 0 59.5869140625 c 0
 0 72.889754217 0 72.889754217 3.34940342489 83.439796831 c 1
 3 83.5869140625 l 2
 3.65581637148 85.160873354 3.65581637148 85.160873354 4.65571086628 87.1282680723 c 0
 7.79116685916 95.1138463278 7.79116685916 95.1138463278 13.0382427636 101.363933671 c 0
 20.5318418486 113.065897401 20.5318418486 113.065897401 33 130.456054688 c 0
 144.91796875 287.274414062 144.91796875 287.274414062 401 292.586914062 c 0
 409.245703135 292.757986742 409.245703135 292.757986742 417.345076963 292.757986742 c 0,0,0
 645.968886156 292.757986742 645.968886156 292.757986742 758 156.450195312 c 0
 762.786146193 149.542144461 762.786146193 149.542144461 766.620580686 141.400590191 c 0
 776.000000019 126.848116506 776.000000019 126.848116506 776 104.586914062 c 0
 776 76.5869140625 776 76.5869140625 760 60.5869140625 c 0
 744 44.5869140625 744 44.5869140625 716 44.5869140625 c 0
 688 44.5869140625 688 44.5869140625 672 60.5869140625 c 0
 668.218453738 64.3684603242 668.218453738 64.3684603242 665.330663235 68.8203234046 c 1
 665 68.5869140625 l 1
 571.717948718 166.441614917 571.717948718 166.441614917 428.253999562 166.441614917 c 0,0,0
 414.846153846 166.441614917 414.846153846 166.441614917 401 165.586914062 c 0
 204 154.586914062 204 154.586914062 117 35.5869140625 c 1
 116.434359247 35.8250785899 l 1
 112.446838275 24.0337523376 112.446838275 24.0337523376 104 15.5869140625 c 0
 88 -0.4130859375 88 -0.4130859375 60 -0.4130859375 c 0
EndSplineSet
Validated: 524291
EndChar

StartChar: OstrI
Encoding: 57553 57553 88
Width: 120
GlyphClass: 2
Flags: HW
LayerCount: 3
Fore
SplineSet
80 140 m 25,0,-1
 69 151 l 25,1,-1
 60 160 l 25,2,-1
 60 120 l 25,3,-1
 40 140 l 25,4,-1
 80 140 l 1049,5,-1
80 59 m 25,0,-1
 69 70 l 25,1,-1
 60 79 l 25,2,-1
 60 39 l 25,3,-1
 40 59 l 25,4,-1
 80 59 l 1049,5,-1
60 200 m 0
 88 200 88 200 104 184 c 0
 120 168 120 168 120 140 c 2
 120 59 l 1
 120 -85 l 1
 21.725788393 9.17945279 l 2
 19.2385881478 10.9378532015 19.2385881478 10.9378532015 17.0341796875 13 c 0
 14.3029089938 15.5654496959 14.3029089938 15.5654496959 12.0095718982 18.4908269309 c 2
 0 30 l 1
 0 59 l 1
 0 140 l 2
 0 168 0 168 16 184 c 0
 32 200 32 200 60 200 c 0
EndSplineSet
Validated: 524291
EndChar

StartChar: gorLUK
Encoding: 57546 57546 89
Width: 450
GlyphClass: 2
Flags: HW
LayerCount: 3
Fore
SplineSet
40 60.994140625 m 25,0,-1
 51 49.994140625 l 25,1,-1
 60 40.994140625 l 25,2,-1
 60 80.994140625 l 25,3,-1
 80 60.994140625 l 25,4,-1
 40 60.994140625 l 1049,5,-1
370 24.994140625 m 25,0,-1
 381 13.994140625 l 25,1,-1
 390 4.994140625 l 25,2,-1
 390 44.994140625 l 25,3,-1
 410 24.994140625 l 25,4,-1
 370 24.994140625 l 1049,5,-1
60 0.994140625 m 0
 32 0.994140625 32 0.994140625 16 16.994140625 c 0
 0 32.994140625 0 32.994140625 0 60.994140625 c 0
 0 78.1325464688 0 78.1325464688 5.55929295544 90.7018974591 c 1
 5 90.994140625 l 1
 82 224.994140625 82 224.994140625 215 224.994140625 c 0
 216.415662651 225.000164721 216.415662651 225.000164721 217.822797213 225.000164721 c 0,0,0
 450 225.000164721 450 225.000164721 450 60.994140625 c 2
 450 24.994140625 l 1
 450 23.994140625 l 1
 449.997429489 23.994140625 449.997429489 23.994140625 449.994858978 23.9941834669 c 1
 449.713196307 -3.29266306784 449.713196307 -3.29266306784 434 -19.005859375 c 0
 418 -35.005859375 418 -35.005859375 390 -35.005859375 c 0
 362 -35.005859375 362 -35.005859375 346 -19.005859375 c 0
 330 -3.005859375 330 -3.005859375 330 24.994140625 c 2
 330 60.994140625 l 2
 330 104.994140625 330 104.994140625 214 104.994140625 c 0
 152 104.994140625 152 104.994140625 116 32.994140625 c 1
 115.02664908 33.502738403 l 1
 111.079595597 24.0737362216 111.079595597 24.0737362216 104 16.994140625 c 0
 88 0.994140625 88 0.994140625 60 0.994140625 c 0
EndSplineSet
Validated: 4718595
EndChar

StartChar: gorOMluk
Encoding: 57547 57547 90
Width: 780
GlyphClass: 2
Flags: HW
LayerCount: 3
Fore
SplineSet
700 23 m 25,0,-1
 711 12 l 25,1,-1
 720 3 l 25,2,-1
 720 43 l 25,3,-1
 740 23 l 25,4,-1
 700 23 l 1049,5,-1
40 60 m 25,0,-1
 51 49 l 25,1,-1
 60 40 l 25,2,-1
 60 80 l 25,3,-1
 80 60 l 25,4,-1
 40 60 l 1049,5,-1
720 -37 m 0
 692 -37 692 -37 676 -21 c 0
 660 -5 660 -5 660 23 c 2
 660 59 l 2
 660 201.006944444 660 201.006944444 378.94458912 201.006944444 c 0,0,0
 376.979166667 201.006944444 376.979166667 201.006944444 375 201 c 0
 198.263222206 200.012643699 198.263222206 200.012643699 116.089074393 35.2467129386 c 0
 112.089575894 24.0895773261 112.089575894 24.0895773261 104 16 c 0
 88 0 88 0 60 0 c 0
 32 0 32 0 16 16 c 0
 0 32 0 32 0 60 c 0
 0 76.5845027431 0 76.5845027431 5.20575378682 88.8905163336 c 1
 5 89 l 1
 5.75566207674 90.3796557613 5.75566207674 90.3796557613 6.51483091297 91.7514461031 c 0
 7.68420820457 94.120511258 7.68420820457 94.120511258 9.06348406454 96.3170659407 c 0
 140.656017052 330.015298081 140.656017052 330.015298081 376 331 c 0
 378.927536232 331.014492754 378.927536232 331.014492754 381.833858433 331.014492754 c 0,0,0
 780 331.014492754 780 331.014492754 780 59 c 2
 780 23 l 1
 780 22 l 1
 779.997429489 22 779.997429489 22 779.994858978 22.0000428419 c 1
 779.713196307 -5.28680369284 779.713196307 -5.28680369284 764 -21 c 0
 748 -37 748 -37 720 -37 c 0
EndSplineSet
Validated: 524291
EndChar

StartChar: dolMOluk
Encoding: 57548 57548 91
Width: 780
GlyphClass: 2
Flags: HW
LayerCount: 3
Fore
SplineSet
740 23.0146484375 m 25,0,-1
 729 34.0146484375 l 25,1,-1
 720 43.0146484375 l 25,2,-1
 720 3.0146484375 l 25,3,-1
 700 23.0146484375 l 25,4,-1
 740 23.0146484375 l 1049,5,-1
80 60.0146484375 m 25,0,-1
 69 71.0146484375 l 25,1,-1
 60 80.0146484375 l 25,2,-1
 60 40.0146484375 l 25,3,-1
 40 60.0146484375 l 25,4,-1
 80 60.0146484375 l 1049,5,-1
720 83.0146484375 m 0
 748 83.0146484375 748 83.0146484375 764 67.0146484375 c 0
 780 51.0146484375 780 51.0146484375 780 23.0146484375 c 0
 780 6.43014569442 780 6.43014569442 774.794246213 -5.87586789612 c 1
 775 -5.9853515625 l 1
 774.244337923 -7.36500732382 774.244337923 -7.36500732382 773.485169087 -8.7367976656 c 0
 772.315791795 -11.1058628204 772.315791795 -11.1058628204 770.936515935 -13.3024175032 c 0
 639.343982948 -247.000649644 639.343982948 -247.000649644 404 -247.985351562 c 0
 401.072463768 -247.999844316 401.072463768 -247.999844316 398.166141567 -247.999844316 c 0,0,0
 0 -247.999844316 0 -247.999844316 0 24.0146484375 c 2
 0 60.0146484375 l 1
 0 61.0146484375 l 1
 0.00257051119458 61.0146484375 0.00257051119458 61.0146484375 0.00514102238915 61.0146055956 c 1
 0.28680369284 88.3014521303 0.28680369284 88.3014521303 16 104.014648438 c 0
 32 120.014648438 32 120.014648438 60 120.014648438 c 0
 88 120.014648438 88 120.014648438 104 104.014648438 c 0
 120 88.0146484375 120 88.0146484375 120 60.0146484375 c 2
 120 24.0146484375 l 2
 120 -117.992296007 120 -117.992296007 401.05541088 -117.992296007 c 0,0,0
 403.020833333 -117.992296007 403.020833333 -117.992296007 405 -117.985351562 c 0
 581.736777794 -116.997995262 581.736777794 -116.997995262 663.910925607 47.7679354989 c 0
 667.910424106 58.9250711114 667.910424106 58.9250711114 676 67.0146484375 c 0
 692 83.0146484375 692 83.0146484375 720 83.0146484375 c 0
EndSplineSet
Validated: 524291
EndChar

StartChar: k
Encoding: 107 107 92
Width: 120
Flags: HW
LayerCount: 3
Fore
SplineSet
80 1649 m 25,0,-1
 69 1660 l 25,1,-1
 60 1669 l 25,2,-1
 60 1629 l 25,3,-1
 40 1649 l 25,4,-1
 80 1649 l 1049,5,-1
80 60 m 25,0,-1
 69 71 l 25,1,-1
 60 80 l 25,2,-1
 60 40 l 25,3,-1
 40 60 l 25,4,-1
 80 60 l 1049,5,-1
0 60 m 1025
119.600189079 1657.5524277 m 0
 120.000000135 1653.426143 120.000000135 1653.426143 120 1649 c 0
 120 1648.75931509 120 1648.75931509 119.998905429 1648.51953131 c 0
 119.998905429 1648.26032112 119.998905429 1648.26032112 120 1648 c 2
 120 60 l 2
 120 0 120 0 60 0 c 0
 0 0 0 0 0 60 c 2
 0 1648 l 2
 0 1648.26032112 0 1648.26032112 0.00109457119569 1648.51953131 c 0
 0.00109457119569 1648.75931509 0.00109457119569 1648.75931509 0 1649 c 0
 0 1653.42612761 0 1653.42612761 0.399808278454 1657.55239902 c 0
 4.89780529495 1709 4.89780529495 1709 60 1709 c 0
 115.102179341 1709 115.102179341 1709 119.600189079 1657.5524277 c 0
EndSplineSet
Validated: 524291
EndChar

StartChar: g
Encoding: 103 103 93
Width: 120
Flags: HW
LayerCount: 3
Fore
SplineSet
80 900 m 25,0,-1
 69 911 l 25,1,-1
 60 920 l 25,2,-1
 60 880 l 25,3,-1
 40 900 l 25,4,-1
 80 900 l 1049,5,-1
80 60 m 25,0,-1
 69 71 l 25,1,-1
 60 80 l 25,2,-1
 60 40 l 25,3,-1
 40 60 l 25,4,-1
 80 60 l 1049,5,-1
0 60 m 1029
119.600189079 908.552427695 m 0
 120.000000135 904.426142999 120.000000135 904.426142999 120 900 c 0
 120 899.759315089 120 899.759315089 119.998905429 899.519531308 c 0
 119.998905429 899.260321118 119.998905429 899.260321118 120 899 c 2
 120 60 l 2
 120 0 120 0 60 0 c 0
 0 0 0 0 0 60 c 2
 0 899 l 2
 0 899.260321118 0 899.260321118 0.00109457119532 899.519531309 c 0
 0.00109457119532 899.75931509 0.00109457119532 899.75931509 0 900 c 0
 0 904.426127613 0 904.426127613 0.399808278454 908.552399017 c 0
 4.89780529495 960 4.89780529495 960 60 960 c 0
 115.102179341 960 115.102179341 960 119.600189079 908.552427695 c 0
EndSplineSet
Validated: 524291
EndChar

StartChar: i
Encoding: 105 105 94
Width: 121
Flags: HW
LayerCount: 3
Fore
SplineSet
80 440 m 25,0,-1
 69 451 l 25,1,-1
 60 460 l 25,2,-1
 60 420 l 25,3,-1
 40 440 l 25,4,-1
 80 440 l 1049,5,-1
81 60 m 25,0,-1
 70 71 l 25,1,-1
 61 80 l 25,2,-1
 61 40 l 25,3,-1
 41 60 l 25,4,-1
 81 60 l 1049,5,-1
1 60 m 1025
60.4765625461 499.998835646 m 0
 60.7377079607 499.998835646 60.7377079607 499.998835646 61 500 c 0
 121 500 121 500 121 439 c 2
 121 60 l 2
 121 0 121 0 61 0 c 0
 1 0 1 0 1 60 c 2
 1 426.28434649 l 2
 0 432.73123476 0 432.73123476 0 440 c 0
 0 460.033261264 0 460.033261264 8.19043999139 473.923692543 c 0
 19.4854538418 495.611785806 19.4854538418 495.611785806 48.5231005669 499.261535979 c 0
 53.9846264303 499.999999647 53.9846264303 499.999999647 60 500 c 0
 60.2387173872 500 60.2387173872 500 60.4765625461 499.998835646 c 0
EndSplineSet
Validated: 524291
EndChar

StartChar: e
Encoding: 101 101 95
Width: 957
Flags: HW
LayerCount: 3
Fore
SplineSet
898.739257812 116.116210938 m 25,0,-1
 908.73828125 128.033203125 l 25,1,-1
 916.919921875 137.783203125 l 25,2,-1
 877.072265625 134.296875 l 25,3,-1
 895.252929688 155.963867188 l 25,4,-1
 898.739257812 116.116210938 l 1049,5,-1
61.935546875 42.9052734375 m 25,0,-1
 71.9345703125 54.822265625 l 25,1,-1
 80.1162109375 64.5732421875 l 25,2,-1
 40.2685546875 61.0869140625 l 25,3,-1
 58.44921875 82.75390625 l 25,4,-1
 61.935546875 42.9052734375 l 1049,5,-1
54.962890625 122.6015625 m 1029
910.729492188 77.416015625 m 0
 906.645507812 76.6552734375 906.645507812 76.6552734375 902.225585938 76.2685546875 c 0
 901.97265625 76.24609375 901.97265625 76.24609375 901.721679688 76.2255859375 c 0
 901.475585938 76.203125 901.475585938 76.203125 901.229492188 76.181640625 c 2
 65.421875 3.0576171875 l 2
 60.61328125 2.63671875 60.61328125 2.63671875 56.1572265625 2.63671875 c 0,0,0
 5.228515625 2.63671875 5.228515625 2.63671875 0.4208984375 57.6005859375 c 0
 0 62.4091796875 0 62.4091796875 0 66.865234375 c 0,0,0
 0 117.79296875 0 117.79296875 54.962890625 122.6015625 c 2
 890.770507812 195.724609375 l 2
 890.98828125 195.744140625 890.98828125 195.744140625 891.206054688 195.76171875 c 0
 891.485351562 195.788085938 891.485351562 195.788085938 891.766601562 195.8125 c 0
 896.21875 196.202148438 896.21875 196.202148438 900.401367188 196.159179688 c 0
 951.96875 196.119140625 951.96875 196.119140625 956.767578125 141.26953125 c 0
 961.569335938 86.3876953125 961.569335938 86.3876953125 910.729492188 77.416015625 c 0
EndSplineSet
Validated: 524291
EndChar

StartChar: u
Encoding: 117 117 96
Width: 454
Flags: HW
LayerCount: 3
Fore
SplineSet
414 780 m 25,0,-1
 403 791 l 25,1,-1
 394 800 l 25,2,-1
 394 760 l 25,3,-1
 374 780 l 25,4,-1
 414 780 l 1049,5,-1
80 60 m 25,0,-1
 69 71 l 25,1,-1
 60 80 l 25,2,-1
 60 40 l 25,3,-1
 40 60 l 25,4,-1
 80 60 l 1049,5,-1
394 840 m 0
 422 840 422 840 438 824 c 0
 454 808 454 808 454 780 c 0
 453.00524109 -164.026205451 453.00524109 -164.026205451 168.010984314 -164.026205451 c 0,0,0
 166.509433962 -164.026205451 166.509433962 -164.026205451 165 -164 c 0
 0 -161 0 -161 0 60 c 0
 0 88 0 88 16 104 c 0
 32 120 32 120 60 120 c 0
 88 120 88 120 104 104 c 0
 120 88 120 88 120 60 c 0
 120 -44 120 -44 168 -44 c 0
 333 -44 333 -44 333 780 c 1
 334 780 l 1
 334 808 334 808 350 824 c 0
 366 840 366 840 394 840 c 0
EndSplineSet
Validated: 524291
EndChar

StartChar: s
Encoding: 115 115 97
Width: 582
Flags: HW
LayerCount: 3
Fore
SplineSet
474 147 m 25,0,-1
 463 158 l 25,1,-1
 454 167 l 25,2,-1
 454 127 l 25,3,-1
 434 147 l 25,4,-1
 474 147 l 1049,5,-1
80 331 m 25,0,-1
 69 342 l 25,1,-1
 60 351 l 25,2,-1
 60 311 l 25,3,-1
 40 331 l 25,4,-1
 80 331 l 1049,5,-1
331 62 m 25,0,-1
 320 73 l 25,1,-1
 311 82 l 25,2,-1
 311 42 l 25,3,-1
 291 62 l 25,4,-1
 331 62 l 1049,5,-1
290.633789062 61.4462890625 m 25,0,-1
 279.633789062 72.4462890625 l 25,1,-1
 270.633789062 81.4462890625 l 25,2,-1
 270.633789062 41.4462890625 l 25,3,-1
 250.633789062 61.4462890625 l 25,4,-1
 290.633789062 61.4462890625 l 1049,5,-1
542 331 m 25,0,-1
 531 342 l 25,1,-1
 522 351 l 25,2,-1
 522 311 l 25,3,-1
 502 331 l 25,4,-1
 542 331 l 1049,5,-1
107 463 m 25,0,-1
 96 474 l 25,1,-1
 87 483 l 25,2,-1
 87 443 l 25,3,-1
 67 463 l 25,4,-1
 107 463 l 1049,5,-1
510 200 m 25,0,-1
 499 211 l 25,1,-1
 490 220 l 25,2,-1
 490 180 l 25,3,-1
 470 200 l 25,4,-1
 510 200 l 1049,5,-1
145 527 m 25,0,-1
 134 538 l 25,1,-1
 125 547 l 25,2,-1
 125 507 l 25,3,-1
 105 527 l 25,4,-1
 145 527 l 1049,5,-1
330 612 m 25,0,-1
 319 623 l 25,1,-1
 310 632 l 25,2,-1
 310 592 l 25,3,-1
 290 612 l 25,4,-1
 330 612 l 1049,5,-1
295 612 m 25,0,-1
 284 623 l 25,1,-1
 275 632 l 25,2,-1
 275 592 l 25,3,-1
 255 612 l 25,4,-1
 295 612 l 1049,5,-1
291.624023438 125.5 m 0
 367 126 367 126 415.649414062 200.7890625 c 0
 458.478515625 266.66015625 458.478515625 266.66015625 458.478515625 329.846679688 c 0,0,0
 458.478515625 417.09375 458.478515625 417.09375 423 473 c 0
 376 549 376 549 290.624023438 549.287109375 c 0
 209 549 209 549 165 473 c 0
 121.80859375 397.416015625 121.80859375 397.416015625 121.80859375 334.154296875 c 0,0,0
 121.80859375 263.286132812 121.80859375 263.286132812 164.149414062 199.7890625 c 0
 213.668945312 125.497070312 213.668945312 125.497070312 290.59375 125.497070312 c 0,0,0
 291.108398438 125.497070312 291.108398438 125.497070312 291.624023438 125.5 c 0
289.633789062 674.553710938 m 0
 290.137695312 674.555664062 290.137695312 674.555664062 290.641601562 674.555664062 c 0,0,0
 388.469726562 674.555664062 388.469726562 674.555664062 479.720703125 588.369140625 c 0
 582.463867188 491.563476562 582.463867188 491.563476562 582.463867188 332.381835938 c 0,0,0
 582.463867188 198.161132812 582.463867188 198.161132812 505.283203125 111.243164062 c 0
 501.814453125 105.5546875 501.814453125 105.5546875 496.965820312 101 c 0
 494.336914062 98.541015625 494.336914062 98.541015625 491.305664062 96.513671875 c 0
 485.686523438 90.9658203125 485.686523438 90.9658203125 479.720703125 85.6298828125 c 0
 385 0 385 0 290.633789062 -0.5537109375 c 0
 290.1640625 -0.5556640625 290.1640625 -0.5556640625 289.694335938 -0.5556640625 c 0,0,0
 198.494140625 -0.5556640625 198.494140625 -0.5556640625 100.346679688 85.6298828125 c 0
 0.5888671875 173.481445312 0.5888671875 173.481445312 0.00390625 330.1484375 c 0
 -0 330.573242188 -0 330.573242188 0 331 c 0
 0 331.154296875 0 331.154296875 0 331.30859375 c 0
 0 331.654296875 0 331.654296875 0 332 c 0
 0 472.854492188 0 472.854492188 72.248046875 559.255859375 c 0
 75.76953125 565.76953125 75.76953125 565.76953125 81 571 c 0
 84.5947265625 574.594726562 84.5947265625 574.594726562 88.7939453125 577.380859375 c 0
 94.3935546875 583.0078125 94.3935546875 583.0078125 100.346679688 588.369140625 c 0
 196 674 196 674 289.633789062 674.553710938 c 0
EndSplineSet
Validated: 526339
EndChar

StartChar: z
Encoding: 122 122 98
Width: 449
Flags: HW
LayerCount: 3
Fore
SplineSet
287.793945312 69.837890625 m 25,0,-1
 276.793945312 80.837890625 l 25,1,-1
 267.793945312 89.837890625 l 25,2,-1
 267.793945312 49.837890625 l 25,3,-1
 247.793945312 69.837890625 l 25,4,-1
 287.793945312 69.837890625 l 1049,5,-1
207 68 m 25,0,-1
 196 79 l 25,1,-1
 187 88 l 25,2,-1
 187 48 l 25,3,-1
 167 68 l 25,4,-1
 207 68 l 1049,5,-1
281 414 m 25,0,-1
 270 425 l 25,1,-1
 261 434 l 25,2,-1
 261 394 l 25,3,-1
 241 414 l 25,4,-1
 281 414 l 1049,5,-1
200 412 m 25,0,-1
 189 423 l 25,1,-1
 180 432 l 25,2,-1
 180 392 l 25,3,-1
 160 412 l 25,4,-1
 200 412 l 1049,5,-1
223.471679688 480.951171875 m 0
 304 481 304 481 372.451171875 417.796875 c 0
 406 387 406 387 427.9140625 339.258789062 c 0
 449 291 449 291 449.37109375 239 c 0
 449 189 449 189 426.294921875 138.408203125 c 0
 403 87 403 87 373.26171875 63.203125 c 0
 334 32 334 32 300.793945312 15.837890625 c 0
 268 0 268 0 223.471679688 0.048828125 c 0
 179 0 179 0 144.932617188 16.2421875 c 0
 111 32 111 32 73.6806640625 63.203125 c 0
 41 91 41 91 20.6474609375 139.217773438 c 0
 0 188 0 188 0 239 c 0
 0 351 0 351 73.6806640625 417.796875 c 0
 144 481 144 481 223.471679688 480.951171875 c 0
225.899414062 128.01953125 m 0
 276 128 276 128 304.033203125 161.766601562 c 0
 331 194 331 194 331.158203125 233.283203125 c 0
 331 264 331 264 304.033203125 309.278320312 c 0
 277.208551511 354.647273564 277.208551511 354.647273564 226.686427229 354.647273564 c 0,0,0
 226.293636839 354.647273564 226.293636839 354.647273564 225.899414062 354.64453125 c 0
 179 355 179 355 147 312.5 c 0
 115 270 115 270 115 233.5 c 0
 115 197 115 197 146.5 162.5 c 0
 178 128 178 128 225.899414062 128.01953125 c 0
EndSplineSet
Validated: 524323
EndChar

StartChar: l
Encoding: 108 108 99
Width: 266
Flags: HW
LayerCount: 3
Fore
SplineSet
179 221 m 25,0,-1
 168 232 l 25,1,-1
 159 241 l 25,2,-1
 159 201 l 25,3,-1
 139 221 l 25,4,-1
 179 221 l 1049,5,-1
125 221 m 25,0,-1
 114 232 l 25,1,-1
 105 241 l 25,2,-1
 105 201 l 25,3,-1
 85 221 l 25,4,-1
 125 221 l 1049,5,-1
178 69 m 25,0,-1
 167 80 l 25,1,-1
 158 89 l 25,2,-1
 158 49 l 25,3,-1
 138 69 l 25,4,-1
 178 69 l 1049,5,-1
128 68 m 25,0,-1
 117 79 l 25,1,-1
 108 88 l 25,2,-1
 108 48 l 25,3,-1
 88 68 l 25,4,-1
 128 68 l 1049,5,-1
132.799804688 291.80078125 m 0
 180.799804688 291.80078125 180.799804688 291.80078125 220.799804688 254.200195312 c 0
 266.400390625 212.600585938 266.400390625 212.600585938 266.400390625 145.400390625 c 0
 266.400390625 111.80078125 266.400390625 111.80078125 252.799804688 81.400390625 c 0
 239.200195312 51 239.200195312 51 221.600585938 36.6005859375 c 0
 208.110727589 26.0333655599 208.110727589 26.0333655599 195.189482803 18.4359442479 c 0
 192.381655174 16.5704291693 192.381655174 16.5704291693 189.230453217 15.0737320639 c 0
 159.476345391 -0.999998945119 159.476345391 -0.999998945119 132.799804688 -1 c 0
 104.907397682 -1 104.907397682 -1 76.6935872996 14.1098882747 c 0
 73.6883365919 15.543390234 73.6883365919 15.543390234 70.9962121672 17.3132211041 c 0
 57.534605945 25.2409572332 57.534605945 25.2409572332 44 36.6005859375 c 0
 24.7998046875 52.6005859375 24.7998046875 52.6005859375 12.400390625 81.80078125 c 0
 0 111 0 111 0 145.400390625 c 0
 0 214.200195312 0 214.200195312 44 254.200195312 c 0
 85.6005859375 291.80078125 85.6005859375 291.80078125 132.799804688 291.80078125 c 0
EndSplineSet
Validated: 524291
EndChar

StartChar: p
Encoding: 112 112 100
Width: 459
Flags: HW
LayerCount: 3
Fore
SplineSet
80 900 m 25,0,-1
 69 911 l 25,1,-1
 60 920 l 25,2,-1
 60 880 l 25,3,-1
 40 900 l 25,4,-1
 80 900 l 1049,5,-1
80 60 m 25,0,-1
 69 71 l 25,1,-1
 60 80 l 25,2,-1
 60 40 l 25,3,-1
 40 60 l 25,4,-1
 80 60 l 1049,5,-1
0 60 m 1029
80 821 m 25,0,-1
 69 832 l 25,1,-1
 60 841 l 25,2,-1
 60 801 l 25,3,-1
 40 821 l 25,4,-1
 80 821 l 1049,5,-1
80 901 m 25,0,-1
 69 912 l 25,1,-1
 60 921 l 25,2,-1
 60 881 l 25,3,-1
 40 901 l 25,4,-1
 80 901 l 1049,5,-1
120 985 m 1
 332 1171 332 1171 332 1419 c 0
 332 1625 332 1625 234 1625 c 0
 120 1625 120 1625 120 1419 c 0
 120 1345 120 1345 120 985 c 1
0 60 m 2
 0 818 l 1
 0 821 l 1
 0 899 l 1
 0 900 l 1
 0 901 l 1
 0 1419 l 2
 0 1744 0 1744 234.5 1744 c 0
 459.004415011 1744 459.004415011 1744 459.004415011 1422.85461164 c 0,0,0
 459.004415011 1159.9330956 459.004415011 1159.9330956 120 845 c 1
 120 821 l 1
 120 818 l 1
 120 60 l 2
 120 0 120 0 60 0 c 0
 0 0 0 0 0 60 c 2
EndSplineSet
Validated: 524291
EndChar

StartChar: b
Encoding: 98 98 101
Width: 466
Flags: HW
LayerCount: 3
Fore
SplineSet
80 640 m 25,0,-1
 69 651 l 25,1,-1
 60 660 l 25,2,-1
 60 620 l 25,3,-1
 40 640 l 25,4,-1
 80 640 l 1049,5,-1
81 60 m 25,0,-1
 70 71 l 25,1,-1
 61 80 l 25,2,-1
 61 40 l 25,3,-1
 41 60 l 25,4,-1
 81 60 l 1049,5,-1
1 60 m 1025
81 719 m 25,0,-1
 70 730 l 25,1,-1
 61 739 l 25,2,-1
 61 699 l 25,3,-1
 41 719 l 25,4,-1
 81 719 l 1049,5,-1
81 640 m 25,0,-1
 70 651 l 25,1,-1
 61 660 l 25,2,-1
 61 620 l 25,3,-1
 41 640 l 25,4,-1
 81 640 l 1049,5,-1
121 803 m 1
 206 880 206 880 268 972 c 0
 335.5437376 1074.15990312 335.5437376 1074.15990312 335.5437376 1133.10406606 c 0,0,0
 335.5437376 1213.50103093 335.5437376 1213.50103093 209.887866006 1213.50103093 c 0,0,0
 209.437902706 1213.50103093 209.437902706 1213.50103093 208.986328125 1213.5 c 0
 121 1213 121 1213 121 1007 c 0
 121 906 121 906 121 803 c 1
1 626.28434649 m 2
 7.77156117238e-16 632.73123476 7.77156117238e-16 632.73123476 0 640 c 0
 0 647 0 647 1 653.25 c 2
 1 719 l 1
 1 1003 l 2
 1 1334.003003 1 1334.003003 207.7526265 1334.003003 c 0,0,0
 208.375375375 1334.003003 208.375375375 1334.003003 209 1334 c 0
 465.805555556 1333.40277778 465.805555556 1333.40277778 465.805555556 1183.00231481 c 0,0,0
 465.805555556 1081.56944444 465.805555556 1081.56944444 349 912 c 0
 252 774 252 774 121 663 c 1
 121 647.383394888 121 647.383394888 120.9968292 640.785959717 c 0
 120.999999998 640.394168908 120.999999998 640.394168908 121 640 c 0
 121 639.759315089 121 639.759315089 120.998905429 639.519531308 c 0
 120.998905429 639.260321118 120.998905429 639.260321118 121 639 c 2
 121 60 l 2
 121 0 121 0 61 0 c 0
 1 0 1 0 1 60 c 2
 1 626.28434649 l 2
EndSplineSet
Validated: 524291
EndChar

StartChar: c
Encoding: 99 99 102
Width: 0
Flags: HW
LayerCount: 3
Back
SplineSet
120 899 m 5,0,-1
 120 60 l 5,1,2
 120 0 120 0 60 0 c 5,3,4
 0 0 0 0 0 60 c 5,5,-1
 0 899 l 5,6,7
 0 960 0 960 60 960 c 4,8,9
 120 960 120 960 120 899 c 5,0,-1
0 60 m 1029
EndSplineSet
Refer: 46 57346 S 1 0 0 1 0 0 2
Refer: 46 57346 S 1 0 0 1 0 840 2
Fore
Validated: 1
EndChar

StartChar: m
Encoding: 109 109 103
Width: 450
Flags: HW
LayerCount: 3
Fore
SplineSet
410 900 m 25,0,-1
 399 911 l 25,1,-1
 390 920 l 25,2,-1
 390 880 l 25,3,-1
 370 900 l 25,4,-1
 410 900 l 1049,5,-1
410 60 m 25,0,-1
 399 71 l 25,1,-1
 390 80 l 25,2,-1
 390 40 l 25,3,-1
 370 60 l 25,4,-1
 410 60 l 1049,5,-1
330 60 m 1029
40 935.994140625 m 25,0,-1
 51 924.994140625 l 25,1,-1
 60 915.994140625 l 25,2,-1
 60 955.994140625 l 25,3,-1
 80 935.994140625 l 25,4,-1
 40 935.994140625 l 1049,5,-1
370 899.994140625 m 25,0,-1
 381 888.994140625 l 25,1,-1
 390 879.994140625 l 25,2,-1
 390 919.994140625 l 25,3,-1
 410 899.994140625 l 25,4,-1
 370 899.994140625 l 1049,5,-1
60 875.994140625 m 0
 32 875.994140625 32 875.994140625 16 891.994140625 c 0
 0 907.994140625 0 907.994140625 0 935.994140625 c 0
 0 953.132546469 0 953.132546469 5.55929295544 965.701897459 c 1
 5 965.994140625 l 1
 82 1099.99414062 82 1099.99414062 215 1099.99414062 c 0
 216.415662651 1100.00016472 216.415662651 1100.00016472 217.822797213 1100.00016472 c 0,0,0
 450 1100.00016472 450 1100.00016472 450 935.994140625 c 2
 450 900 l 1
 450 899.994140625 l 1
 450 899 l 1
 450 898.994140625 l 1
 450 60 l 2
 450 0 450 0 390 0 c 0
 330 0 330 0 330 60 c 2
 330 899 l 2
 330 899.260321118 330 899.260321118 330.001094571 899.519531309 c 0
 330.001094571 899.680256957 330.001094571 899.680256957 330.000119188 899.841387483 c 0
 330.000119188 899.917719358 330.000119188 899.917719358 330 899.994140625 c 2
 330 900 l 1
 330 935.994140625 l 2
 330 979.994140625 330 979.994140625 214 979.994140625 c 0
 152 979.994140625 152 979.994140625 116 907.994140625 c 1
 115.02664908 908.502738403 l 1
 111.079595597 899.073736222 111.079595597 899.073736222 104 891.994140625 c 0
 88 875.994140625 88 875.994140625 60 875.994140625 c 0
EndSplineSet
Validated: 524291
EndChar

StartChar: n
Encoding: 110 110 104
Width: 784
Flags: HW
LayerCount: 3
Fore
SplineSet
412 105 m 25,0,-1
 401 116 l 25,1,-1
 392 125 l 25,2,-1
 392 85 l 25,3,-1
 372 105 l 25,4,-1
 412 105 l 1049,5,-1
744 150 m 25,0,-1
 733 161 l 25,1,-1
 724 170 l 25,2,-1
 724 130 l 25,3,-1
 704 150 l 25,4,-1
 744 150 l 1049,5,-1
372 104.995117188 m 25,0,-1
 383 93.9951171875 l 25,1,-1
 392 84.9951171875 l 25,2,-1
 392 124.995117188 l 25,3,-1
 412 104.995117188 l 25,4,-1
 372 104.995117188 l 1049,5,-1
40 59.9951171875 m 25,0,-1
 51 48.9951171875 l 25,1,-1
 60 39.9951171875 l 25,2,-1
 60 79.9951171875 l 25,3,-1
 80 59.9951171875 l 25,4,-1
 40 59.9951171875 l 1049,5,-1
724 210 m 0
 752 210 752 210 768 194 c 0
 784 178 784 178 784 150 c 0
 784 136.697159846 784 136.697159846 780.650596575 126.147117232 c 1
 781 126 l 1
 780.266914175 124.41164738 780.266914175 124.41164738 779.50397147 122.870033015 c 0
 776.149467628 114.127643604 776.149467628 114.127643604 770.292156885 107.442253257 c 0
 768.690743715 105.216635528 768.690743715 105.216635528 767 103.130859375 c 0
 692 -7 692 -7 586 -21 c 0
 552.347461781 -25.5232078844 552.347461781 -25.5232078844 522.884069474 -25.5232078844 c 0,0,0
 400.016789816 -25.5232078844 400.016789816 -25.5232078844 350 53.13671875 c 0
 346.684753973 59.6538967301 346.684753973 59.6538967301 342.682578784 66.2649903237 c 0
 341.581656795 67.8085497345 341.581656795 67.8085497345 340.594192384 69.4453575134 c 0
 302.893545526 111.117924247 302.893545526 111.117924247 250.570945274 111.117924247 c 0,0,0
 241.982456334 111.117924247 241.982456334 111.117924247 233 109.995117188 c 0
 148 98.9951171875 148 98.9951171875 117 35.9951171875 c 1
 116.434359247 36.2332817149 l 1
 112.446838275 24.4419554626 112.446838275 24.4419554626 104 15.9951171875 c 0
 88 -0.0048828125 88 -0.0048828125 60 -0.0048828125 c 0
 32 -0.0048828125 32 -0.0048828125 16 15.9951171875 c 0
 0 31.9951171875 0 31.9951171875 0 59.9951171875 c 0
 0 73.297957342 0 73.297957342 3.34940342489 83.847999956 c 1
 3 83.9951171875 l 1
 3.73308582459 85.5834698074 3.73308582459 85.5834698074 4.49602853014 87.1250841725 c 0
 7.85053237199 95.8674735836 7.85053237199 95.8674735836 13.707843115 102.55286393 c 0
 15.309256285 104.778481659 15.309256285 104.778481659 17 106.864257812 c 0
 92 216.995117188 92 216.995117188 198 230.995117188 c 0
 231.652538219 235.518325072 231.652538219 235.518325072 261.115930526 235.518325072 c 0,0,0
 383.983210184 235.518325072 383.983210184 235.518325072 434 156.858398438 c 0
 437.315246027 150.341220457 437.315246027 150.341220457 441.317421216 143.730126864 c 0
 442.418343205 142.186567453 442.418343205 142.186567453 443.405807616 140.549759674 c 0
 481.106454474 98.8771929403 481.106454474 98.8771929403 533.429054726 98.8771929403 c 0,0,0
 542.017543666 98.8771929403 542.017543666 98.8771929403 551 100 c 0
 636 111 636 111 667 174 c 1
 667.565640753 173.761835473 l 1
 671.553161725 185.553161725 671.553161725 185.553161725 680 194 c 0
 696 210 696 210 724 210 c 0
EndSplineSet
Validated: 524291
EndChar

StartChar: o
Encoding: 111 111 105
Width: 425
Flags: HW
LayerCount: 3
Fore
SplineSet
345 838.065429688 m 25,0,-1
 356 827.065429688 l 25,1,-1
 365 818.065429688 l 25,2,-1
 365 858.065429688 l 25,3,-1
 385 838.065429688 l 25,4,-1
 345 838.065429688 l 1049,5,-1
40 61.0654296875 m 25,0,-1
 51 50.0654296875 l 25,1,-1
 60 41.0654296875 l 25,2,-1
 60 81.0654296875 l 25,3,-1
 80 61.0654296875 l 25,4,-1
 40 61.0654296875 l 1049,5,-1
27.9150390625 114.576171875 m 0
 28.876953125 115.0546875 28.876953125 115.0546875 29.87109375 115.499023438 c 0
 35.4658203125 118.369140625 35.4658203125 118.369140625 41.06640625 122.02734375 c 0
 303 292.065429688 303 292.065429688 304.94140625 818.065429688 c 0
 305 835.065429688 305 835.065429688 304.94140625 838.065429688 c 1
 305 838.065429688 l 1
 305 868.065429688 305 868.065429688 322.034179688 884.065429688 c 0
 337 898.065429688 337 898.065429688 365 898.065429688 c 0
 393 898.065429688 393 898.065429688 407.965820312 884.065429688 c 0
 425 868.065429688 425 868.065429688 425 838.065429688 c 0
 425 836.596679688 425 836.596679688 424.956054688 835.16015625 c 0
 424.991210938 826.61328125 424.991210938 826.61328125 424.94140625 818.065429688 c 0
 425 206.065429688 425 206.065429688 103.201171875 13.603515625 c 1
 91.94140625 7.103515625 l 2
 85.3486328125 4.8271484375 85.3486328125 4.8271484375 79.17578125 3.2802734375 c 0
 78.9072265625 3.212890625 78.9072265625 3.212890625 78.6376953125 3.1474609375 c 0
 28.1748046875 -9.275390625 28.1748046875 -9.275390625 5.98046875 27.3330078125 c 0
 4.5283203125 32.669921875 4.5283203125 32.669921875 3.431640625 37.703125 c 0
 -0 48.09765625 -0 48.09765625 0 61.0654296875 c 0
 0 63.0029296875 0 63.0029296875 0.0712890625 64.8818359375 c 0
 -0.2685546875 101.848632812 -0.2685546875 101.848632812 27.9150390625 114.576171875 c 0
EndSplineSet
Validated: 524323
EndChar

StartChar: g_l
Encoding: 57589 57589 106
Width: 356
Flags: HW
LayerCount: 3
Fore
SplineSet
179 384 m 25,0,-1
 168 395 l 25,1,-1
 159 404 l 25,2,-1
 159 364 l 25,3,-1
 139 384 l 25,4,-1
 179 384 l 1049,5,-1
125 384 m 25,0,-1
 114 395 l 25,1,-1
 105 404 l 25,2,-1
 105 364 l 25,3,-1
 85 384 l 25,4,-1
 125 384 l 1049,5,-1
178 232 m 25,0,-1
 167 243 l 25,1,-1
 158 252 l 25,2,-1
 158 212 l 25,3,-1
 138 232 l 25,4,-1
 178 232 l 1049,5,-1
128 231 m 25,0,-1
 117 242 l 25,1,-1
 108 251 l 25,2,-1
 108 211 l 25,3,-1
 88 231 l 25,4,-1
 128 231 l 1049,5,-1
130 412 m 25,38,-1
 130 372 l 25,39,-1
 110 392 l 25,40,-1
 150 392 l 1049
130 81 m 25,18,-1
 130 41 l 25,19,-1
 110 61 l 25,20,-1
 150 61 l 1049
150 900 m 25,0,-1
 139 911 l 25,1,-1
 130 920 l 25,2,-1
 130 880 l 25,3,-1
 110 900 l 25,4,-1
 150 900 l 1049,5,-1
150 60 m 25,0,-1
 139 71 l 25,1,-1
 130 80 l 25,2,-1
 130 40 l 25,3,-1
 110 60 l 25,4,-1
 150 60 l 1049,5,-1
70 60 m 1029
195.189482803 181.435944248 m 0
 192.726813227 179.799751491 192.726813227 179.799751491 190 178.447275555 c 2
 190 138.12284714 l 1
 199.149578144 144.03498223 199.149578144 144.03498223 207.5 152 c 0
 237.256197237 180.382834288 237.256197237 180.382834288 239.661114461 220.146276546 c 1
 231.229509066 207.47864992 231.229509066 207.47864992 221.600585938 199.600585938 c 0
 208.110727589 189.03336556 208.110727589 189.03336556 195.189482803 181.435944248 c 0
189.600189079 908.552427695 m 0
 190.000000135 904.426142999 190.000000135 904.426142999 190 900 c 0
 190 899.75931509 190 899.75931509 189.998905429 899.519531309 c 0
 189.998905429 899.260321118 189.998905429 899.260321118 190 899 c 2
 190 445.032194131 l 1
 246.632007809 430.501486926 246.632007809 430.501486926 289.880859375 387.51953125 c 0
 356 322 356 322 355.810546875 227.637695312 c 0
 356 133 356 133 289.880859375 66.931640625 c 0
 230.462557189 7.46753855569 230.462557189 7.46753855569 148.171208724 1.634430648 c 0
 139.902819674 2.25060550196e-08 139.902819674 2.25060550196e-08 130 0 c 0
 70 0 70 0 70 60 c 2
 70 61 l 1
 70 180.904544615 l 1
 57.0338490968 188.661244427 57.0338490968 188.661244427 44 199.600585938 c 0
 24.7998046875 215.600585938 24.7998046875 215.600585938 12.400390625 244.80078125 c 0
 0 274 0 274 0 308.400390625 c 0
 0 377.200195312 0 377.200195312 44 417.200195312 c 0
 56.7375625823 428.713009513 56.7375625823 428.713009513 70 436.700748571 c 1
 70 899 l 2
 70 899.260321118 70 899.260321118 70.0010945712 899.519531309 c 0
 70.0010945712 899.75931509 70.0010945712 899.75931509 70 900 c 0
 70 904.426127613 70 904.426127613 70.3998082785 908.552399017 c 0
 74.8978052949 960 74.8978052949 960 130 960 c 0
 185.102179341 960 185.102179341 960 189.600189079 908.552427695 c 0
EndSplineSet
Validated: 526371
EndChar

StartChar: c_i
Encoding: 57590 57590 107
Width: 550
GlyphClass: 2
Flags: HW
LayerCount: 3
Fore
SplineSet
80 638 m 25,0,-1
 69 649 l 25,1,-1
 60 658 l 25,2,-1
 60 618 l 25,3,-1
 40 638 l 25,4,-1
 80 638 l 1049,5,-1
410 153 m 25,0,-1
 399 164 l 25,1,-1
 390 173 l 25,2,-1
 390 133 l 25,3,-1
 370 153 l 25,4,-1
 410 153 l 1049,5,-1
509 403 m 25,0,-1
 498 414 l 25,1,-1
 489 423 l 25,2,-1
 489 383 l 25,3,-1
 469 403 l 25,4,-1
 509 403 l 1049,5,-1
210 60 m 25,0,-1
 199 71 l 25,1,-1
 190 80 l 25,2,-1
 190 40 l 25,3,-1
 170 60 l 25,4,-1
 210 60 l 1049,5,-1
21.2058359212 686.543420316 m 0
 93.8777869664 779.002317833 93.8777869664 779.002317833 199.481445312 779.28125 c 0
 200.339588108 779.285459638 200.339588108 779.285459638 201.196392445 779.285459638 c 0,0,0
 346.629615483 779.285459638 346.629615483 779.285459638 453.5 658 c 0
 550 548 550 548 550 403 c 0
 550 310.983398438 550 310.983398438 514 228 c 0
 455 92 455 92 346 39.81640625 c 0
 261.062405278 -0.0912900062405 261.062405278 -0.0912900062405 196.283231433 -0.0912900062405 c 0,0,0
 193.184965482 -0.0912900062405 193.184965482 -0.0912900062405 190.1328125 0 c 1
 190.132812413 7.883320459e-05 l 2
 190.066442904 7.883320459e-05 190.066442904 7.883320459e-05 190 0 c 0
 162 0 162 0 147.034179688 14 c 0
 130 30 130 30 130 60 c 0
 130 88 130 88 146 104 c 0
 162 120 162 120 190 120 c 0
 248 123 248 123 292 150.211914062 c 0
 317.024486491 166.300687986 317.024486491 166.300687986 335.644919703 182.028965886 c 0
 339.503615904 190.503615904 339.503615904 190.503615904 346 197 c 0
 352.765585569 203.765585569 352.765585569 203.765585569 361.676787454 207.670349382 c 1
 395.214505258 248.250768401 395.214505258 248.250768401 418 328 c 0
 428 364.5 428 364.5 428 401.625 c 0,0,0
 428 438.75 428 438.75 418 476.5 c 0
 394 565 394 565 353.5 595.5 c 0
 279 653 279 653 224 656 c 0
 221.416666692 656.124999999 221.416666692 656.124999999 218.835069496 656.124999999 c 0,0,0
 163.367161162 656.124999999 163.367161162 656.124999999 108.700717614 598.41957741 c 0
 106.126499596 594.968789241 106.126499596 594.968789241 102.965820312 592 c 0
 102.483067782 591.548401939 102.483067782 591.548401939 101.986750842 591.111373004 c 0
 101.493343796 590.558040255 101.493343796 590.558040255 101 590 c 1
 100.865939891 590.157230991 l 1
 86.0922389902 578 86.0922389902 578 60 578 c 0
 32 578 32 578 17.0341796875 592 c 0
 0 608 0 608 0 638 c 0
 0 666 0 666 16 682 c 0
 18.4609717611 684.460971761 18.4609717611 684.460971761 21.2058359212 686.543420316 c 0
EndSplineSet
Validated: 524291
EndChar

StartChar: ij
Encoding: 307 307 108
Width: 702
Flags: HW
LayerCount: 3
Fore
SplineSet
0 1223.52636719 m 0
 0 1190.80563455 0 1190.80563455 32.701171875 1190.12695312 c 0
 186.837914617 1187.41771895 186.837914617 1187.41771895 363.126953125 1106.5390625 c 0
 486.239288332 1050.05704667 486.239288332 1050.05704667 560.04298401 939.664753804 c 0
 633.846679688 829.272460938 633.846679688 829.272460938 634.578125 673.87109375 c 2
 634.922851562 37.60546875 l 2
 634.930664062 23.783203125 634.930664062 23.783203125 644.71875 14 c 0
 654.506835938 4.216796875 654.506835938 4.216796875 668.330078125 4.216796875 c 0
 682.158203125 4.216796875 682.158203125 4.216796875 691.947265625 14.005859375 c 0
 701.737304688 23.7958984375 701.737304688 23.7958984375 701.737304688 37.6240234375 c 2
 701.391601562 673.907226562 l 2
 699.798379555 1012.39720785 699.798379555 1012.39720785 397.70703125 1163.5234375 c 0
 212.054998188 1256.39515113 212.054998188 1256.39515113 33.40625 1256.93359375 c 0
 19.578125 1256.93359375 19.578125 1256.93359375 9.7890625 1247.14355469 c 0
 0 1237.35449219 0 1237.35449219 0 1223.52636719 c 0
EndSplineSet
Validated: 524297
EndChar

StartChar: circumflex
Encoding: 710 710 110
Width: 639
Flags: HW
LayerCount: 3
Fore
SplineSet
246 2428 m 1
 393 2428 l 1
 639 2052 l 1
 500 2052 l 1
 319 2297 l 1
 139 2052 l 1
 0 2052 l 1
 246 2428 l 1
EndSplineSet
Validated: 1
EndChar

StartChar: n.TW
Encoding: 57610 57610 136
Width: 596
Flags: HW
LayerCount: 3
Fore
SplineSet
411 105 m 25,0,-1
 400 116 l 25,1,-1
 391 125 l 25,2,-1
 391 85 l 25,3,-1
 371 105 l 25,4,-1
 411 105 l 1049,5,-1
556 85 m 25,0,-1
 545 96 l 25,1,-1
 536 105 l 25,2,-1
 536 65 l 25,3,-1
 516 85 l 25,4,-1
 556 85 l 1049,5,-1
372 104.995117188 m 25,0,-1
 383 93.9951171875 l 25,1,-1
 392 84.9951171875 l 25,2,-1
 392 124.995117188 l 25,3,-1
 412 104.995117188 l 25,4,-1
 372 104.995117188 l 1049,5,-1
40 59.9951171875 m 25,0,-1
 51 48.9951171875 l 25,1,-1
 60 39.9951171875 l 25,2,-1
 60 79.9951171875 l 25,3,-1
 80 59.9951171875 l 25,4,-1
 40 59.9951171875 l 1049,5,-1
60 -0.0048828125 m 0
 32 -0.0048828125 32 -0.0048828125 16 15.9951171875 c 0
 0 31.9951171875 0 31.9951171875 0 59.9951171875 c 0
 0 73.297957342 0 73.297957342 3.34940342489 83.847999956 c 1
 3 83.9951171875 l 1
 3.73308582459 85.5834698074 3.73308582459 85.5834698074 4.49602853014 87.1250841725 c 0
 7.85053237199 95.8674735836 7.85053237199 95.8674735836 13.707843115 102.55286393 c 0
 15.309256285 104.778481659 15.309256285 104.778481659 17 106.864257812 c 0
 92 216.995117188 92 216.995117188 198 230.995117188 c 0
 231.652538219 235.518325072 231.652538219 235.518325072 261.115930526 235.518325072 c 0,0,0
 383.983210184 235.518325072 383.983210184 235.518325072 434 156.858398438 c 0
 437.315246027 150.341220457 437.315246027 150.341220457 441.317421216 143.730126864 c 0
 443.344178413 140.888490329 443.344178413 140.888490329 444.986408791 137.730819917 c 0
 452.90878557 130.644655857 452.90878557 130.644655857 460 130 c 0
 487.380494251 129.194691346 487.380494251 129.194691346 497.250892992 133.577560565 c 0
 499.283227782 135.115828594 499.283227782 135.115828594 501.47093265 136.446936862 c 0
 505.656041413 140.221541192 505.656041413 140.221541192 515.224556372 142.357714621 c 0
 524.621420311 145.000001664 524.621420311 145.000001664 536 145 c 0
 537.421220008 145 537.421220008 145 538.811523735 144.958777167 c 0
 539.401474991 144.980693815 539.401474991 144.980693815 540 145 c 0
 555.226985557 145.845943642 555.226985557 145.845943642 567.591488532 138.104439537 c 0
 574.50375968 134.49624032 574.50375968 134.49624032 580 129 c 0
 586.202156954 122.797843046 586.202156954 122.797843046 590.000142987 114.792557646 c 0
 591.908470879 110.967338342 591.908470879 110.967338342 593.03774673 106.873987294 c 0
 595.632676228 98.2662959498 595.632676228 98.2662959498 595.954451542 87.9537388388 c 0
 596.459542119 78.4663696597 596.459542119 78.4663696597 594.803729911 70.0828882102 c 0
 591.485857705 50.7599203205 591.485857705 50.7599203205 578.965820312 39 c 0
 574.285867248 34.6220680502 574.285867248 34.6220680502 568.331338815 31.6131561471 c 0
 558.619915247 24.9977870398 558.619915247 24.9977870398 545.508789062 20.119140625 c 0
 521 11 521 11 457 11.1923828125 c 0
 366.507353758 11.0542143221 366.507353758 11.0542143221 341.006128165 67.2380148173 c 0
 339.400262952 69.6082790362 339.400262952 69.6082790362 338.052119002 72.1903587723 c 0
 301.140930292 111.117924337 301.140930292 111.117924337 250.570946087 111.117924337 c 0,0,0
 241.982456762 111.117924337 241.982456762 111.117924337 233 109.995117188 c 0
 148 98.9951171875 148 98.9951171875 117 35.9951171875 c 1
 116.434359247 36.2332817149 l 1
 112.446838275 24.4419554626 112.446838275 24.4419554626 104 15.9951171875 c 0
 88 -0.0048828125 88 -0.0048828125 60 -0.0048828125 c 0
EndSplineSet
Validated: 524323
EndChar

StartChar: n.TWe
Encoding: 57611 57611 137
Width: 574
Flags: HW
LayerCount: 3
Fore
SplineSet
534 6 m 25,0,-1
 523 17 l 25,1,-1
 514 26 l 25,2,-1
 514 -14 l 25,3,-1
 494 6 l 25,4,-1
 534 6 l 1049,5,-1
412 106 m 25,0,-1
 401 117 l 25,1,-1
 392 126 l 25,2,-1
 392 86 l 25,3,-1
 372 106 l 25,4,-1
 412 106 l 1049,5,-1
372 104.995117188 m 25,0,-1
 383 93.9951171875 l 25,1,-1
 392 84.9951171875 l 25,2,-1
 392 124.995117188 l 25,3,-1
 412 104.995117188 l 25,4,-1
 372 104.995117188 l 1049,5,-1
40 59.9951171875 m 25,0,-1
 51 48.9951171875 l 25,1,-1
 60 39.9951171875 l 25,2,-1
 60 79.9951171875 l 25,3,-1
 80 59.9951171875 l 25,4,-1
 40 59.9951171875 l 1049,5,-1
60 -0.0048828125 m 0
 32 -0.0048828125 32 -0.0048828125 16 15.9951171875 c 0
 0 31.9951171875 0 31.9951171875 0 59.9951171875 c 0
 0 73.297957342 0 73.297957342 3.34940342489 83.847999956 c 1
 3 83.9951171875 l 1
 3.73308582459 85.5834698074 3.73308582459 85.5834698074 4.49602853014 87.1250841725 c 0
 7.85053237199 95.8674735836 7.85053237199 95.8674735836 13.707843115 102.55286393 c 0
 15.309256285 104.778481659 15.309256285 104.778481659 17 106.864257812 c 0
 92 216.995117188 92 216.995117188 198 230.995117188 c 0
 231.652538219 235.518325072 231.652538219 235.518325072 261.115930526 235.518325072 c 0,0,0
 383.983210184 235.518325072 383.983210184 235.518325072 434 156.858398438 c 0
 437.290399114 150.390065022 437.290399114 150.390065022 441.257469862 143.829218825 c 0
 451.999998762 128.943057376 451.999998762 128.943057376 452 106 c 2
 452 105 l 2
 452 104.995751612 452 104.995751612 452.001365589 104.991503758 c 0
 461.000910266 76.9989379539 461.000910266 76.9989379539 476 70 c 0
 484 66 484 66 508 66 c 2
 514 66 l 2
 542 66 542 66 558 50 c 0
 574 34 574 34 574 6 c 0
 574 -24 574 -24 556.965820312 -40 c 0
 542 -54 542 -54 514 -54 c 0
 511.831331053 -54 511.831331053 -54 509.740852638 -53.916015625 c 2
 507.623046875 -53.916015625 l 2
 449 -51 449 -51 410 -26 c 0
 351.50827199 9.39469901862 351.50827199 9.39469901862 336.505004252 73.7987415734 c 1
 300.085198545 111.11792411 300.085198545 111.11792411 250.570943824 111.11792411 c 0,0,0
 241.982455567 111.11792411 241.982455567 111.11792411 233 109.995117188 c 0
 148 98.9951171875 148 98.9951171875 117 35.9951171875 c 1
 116.434359247 36.2332817149 l 1
 112.446838275 24.4419554626 112.446838275 24.4419554626 104 15.9951171875 c 0
 88 -0.0048828125 88 -0.0048828125 60 -0.0048828125 c 0
EndSplineSet
Validated: 524291
EndChar

StartChar: gorTWe
Encoding: 57554 57554 138
Width: 242
Flags: HW
LayerCount: 3
Fore
SplineSet
40 180 m 25,0,-1
 51 169 l 25,1,-1
 60 160 l 25,2,-1
 60 200 l 25,3,-1
 80 180 l 25,4,-1
 40 180 l 1049,5,-1
162 80 m 25,0,-1
 173 69 l 25,1,-1
 182 60 l 25,2,-1
 182 100 l 25,3,-1
 202 80 l 25,4,-1
 162 80 l 1049,5,-1
182 20 m 0
 154 20 154 20 138 36 c 0
 122 52 122 52 122 80 c 2
 122 81 l 1
 113 109 113 109 98 116 c 0
 90 120 90 120 66 120 c 2
 60 120 l 2
 32 120 32 120 16 136 c 0
 0 152 0 152 0 180 c 0
 0 210 0 210 17.0341796875 226 c 0
 32 240 32 240 60 240 c 0
 62.1686689466 240 62.1686689466 240 64.2591473622 239.916015625 c 2
 66.376953125 239.916015625 l 2
 125 237 125 237 164 212 c 0
 228.895508791 172.730224949 228.895508791 172.730224949 240.258902601 97.7514014993 c 0
 241.737354271 90.8221620528 241.737354271 90.8221620528 241.960379419 82.8611170061 c 0
 241.98047385 82.6055527006 241.98047385 82.6055527006 242 82.349609375 c 2
 242 80 l 2
 242 52 242 52 226 36 c 0
 210 20 210 20 182 20 c 0
EndSplineSet
Validated: 524291
EndChar

StartChar: a
Encoding: 97 97 139
Width: 546
Flags: HW
LayerCount: 3
Fore
SplineSet
500.26171875 779.73046875 m 25,0,-1
 496.236328125 794.756835938 l 25,1,-1
 492.94140625 807.05078125 l 25,2,-1
 472.94140625 772.41015625 l 25,3,-1
 465.62109375 799.73046875 l 25,4,-1
 500.26171875 779.73046875 l 1049,5,-1
80.26171875 52.26953125 m 25,0,-1
 76.236328125 67.2958984375 l 25,1,-1
 72.94140625 79.58984375 l 25,2,-1
 52.94140625 44.94921875 l 25,3,-1
 45.62109375 72.26953125 l 25,4,-1
 80.26171875 52.26953125 l 1049,5,-1
10.98046875 92.26953125 m 1029
538.833007812 767.334960938 m 0
 537.116210938 763.5625 537.116210938 763.5625 534.903320312 759.73046875 c 0
 534.786132812 759.52734375 534.786132812 759.52734375 534.66796875 759.325195312 c 0
 534.537109375 759.094726562 534.537109375 759.094726562 534.403320312 758.864257812 c 2
 114.903320312 32.26953125 l 2
 95.884765625 -0.6728515625 95.884765625 -0.6728515625 68.0380859375 -0.6728515625 c 0,0,0
 51.9609375 -0.6728515625 51.9609375 -0.6728515625 32.94140625 10.3076171875 c 0
 0 29.3271484375 0 29.3271484375 0 57.1728515625 c 0,0,0
 0 73.25 0 73.25 10.98046875 92.26953125 c 2
 430.48046875 818.864257812 l 2
 430.608398438 819.084960938 430.608398438 819.084960938 430.736328125 819.3046875 c 0
 430.857421875 819.517578125 430.857421875 819.517578125 430.98046875 819.73046875 c 0
 433.194335938 823.564453125 433.194335938 823.564453125 435.604492188 826.938476562 c 0
 465.223632812 869.2421875 465.223632812 869.2421875 512.94140625 841.69140625 c 0
 560.663085938 814.139648438 560.663085938 814.139648438 538.833007812 767.334960938 c 0
EndSplineSet
Validated: 524291
EndChar

